<?xml version="1.0" encoding="utf-8"?>
<!-- Generator: Adobe Illustrator 27.0.0, SVG Export Plug-In . SVG Version: 6.00 Build 0)  -->
<svg version="1.2" baseProfile="tiny" id="Calque_1"
	 xmlns="http://www.w3.org/2000/svg" xmlns:xlink="http://www.w3.org/1999/xlink" x="0px" y="0px" viewBox="0 0 1920 1050"
	 overflow="visible" xml:space="preserve">
<path fill="none" stroke="#12473B" stroke-linecap="round" stroke-miterlimit="10" stroke-dasharray="9" d="M335.7,343.15h452.29
	c55.61,0,100.69,45.08,100.69,100.69v0c0,55.61-45.08,100.69-100.69,100.69H288.21"/>
<path fill="none" stroke="#12473B" stroke-linecap="round" stroke-miterlimit="10" stroke-dasharray="9" d="M732.25,745.91H288.21
	c-55.61,0-100.69-45.08-100.69-100.69v0c0-55.61,45.08-100.69,100.69-100.69"/>
<circle fill="#12473B" cx="331.03" cy="338.55" r="65.53"/>
<circle fill="#12473B" cx="537.08" cy="338.55" r="65.53"/>
<circle fill="#12473B" cx="331.09" cy="544.53" r="65.53"/>
<circle fill="#12473B" cx="537.08" cy="544.53" r="65.53"/>
<circle fill="#12473B" cx="743.06" cy="544.53" r="65.53"/>
<circle fill="#12473B" cx="331.09" cy="750.52" r="65.53"/>
<circle fill="#12473B" cx="537.08" cy="750.52" r="65.53"/>
<circle fill="#12473B" cx="743.06" cy="750.52" r="65.53"/>
<circle fill="#12473B" cx="743.06" cy="338.55" r="65.53"/>
</svg>
