<?xml version="1.0" encoding="utf-8"?>
<!-- Generator: Adobe Illustrator 27.0.0, SVG Export Plug-In . SVG Version: 6.00 Build 0)  -->
<svg version="1.1" id="Calque_1" xmlns="http://www.w3.org/2000/svg" xmlns:xlink="http://www.w3.org/1999/xlink" x="0px" y="0px"
	 viewBox="0 0 66.5 16.5" style="enable-background:new 0 0 66.5 16.5;" xml:space="preserve">
<style type="text/css">
	.st0{clip-path:url(#SVGID_00000149352531979358687910000011642252794455643320_);}
	.st1{fill:#FF0000;}
</style>
<g>
	<g>
		<defs>
			<rect id="SVGID_1_" width="66.5" height="16.5"/>
		</defs>
		<clipPath id="SVGID_00000161595663133233369690000005751159793462152068_">
			<use xlink:href="#SVGID_1_"  style="overflow:visible;"/>
		</clipPath>
		<g style="clip-path:url(#SVGID_00000161595663133233369690000005751159793462152068_);">
			<path class="st1" d="M13,0c-0.4,0-0.8,0.1-1.1,0.5L0.3,14.4c-0.4,0.5-0.4,1.3,0.1,1.8c0.2,0.2,0.5,0.3,0.8,0.3s0.8-0.2,1-0.5
				l9.4-11.3v5.6h-3c-0.7,0-1.3,0.6-1.3,1.3l0,0c0,0.7,0.5,1.2,1.2,1.3h3.2v2.2c0,0.7,0.6,1.3,1.4,1.3h1.4v-15
				c0-0.3-0.1-0.5-0.2-0.8C13.9,0.2,13.5,0,13,0 M60.4,4.4h-1.3v1.4c-1-0.9-2.4-1.5-3.8-1.5c-3.3,0-5.8,2.7-5.8,6.1s2.5,6.1,5.8,6.1
				c1.4,0,2.8-0.5,3.8-1.4v0.1c0,0.4,0.2,0.7,0.4,0.9l0,0l0,0c0.2,0.2,0.5,0.3,0.8,0.3h1.3V5.6C61.7,4.9,61.1,4.4,60.4,4.4L60.4,4.4
				 M59.1,10.4c0,2.1-1.6,3.7-3.5,3.7s-3.5-1.6-3.5-3.7s1.6-3.7,3.5-3.7s3.4,1.5,3.5,3.6V10.4z M64.9,13.3c-0.9,0-1.6,0.7-1.6,1.6
				s0.7,1.6,1.6,1.6s1.6-0.7,1.6-1.6C66.5,14.1,65.8,13.3,64.9,13.3L64.9,13.3 M18.9,13.5V1.3c0-0.7-0.6-1.3-1.3-1.3h-1.3v14.8
				c0,0.9,0.8,1.7,1.7,1.7c0.9,0,1.7-0.8,1.7-1.7l-0.5-0.5C19,14.1,18.9,13.8,18.9,13.5 M22.2,0h-1.3v15.2c0,0.7,0.6,1.3,1.3,1.3
				h1.3V1.3C23.5,0.6,22.9,0,22.2,0 M31.8,4.4h-2.5c-0.4,0-0.7,0.2-1,0.5l-4.7,5.6l4.8,5.7c0.2,0.3,0.6,0.5,1,0.5H32l-5.3-6.2
				L31.8,4.4z"/>
			<path class="st1" d="M36.9,14.2c-2,0-3.5-1.7-3.5-3.7s1.6-3.7,3.5-3.7c0.5,0,1.1,0.1,1.5,0.4l-3.2,3.7c-0.4,0.5-0.3,1.2,0.1,1.6
				c0.5,0.4,1.2,0.3,1.6-0.1l4.7-5.5c-1.1-1.4-2.9-2.4-4.8-2.4c-3.4,0-6.1,2.7-6.1,6.1s2.7,6.1,6.1,6.1c2.5,0,4.8-1.6,5.7-4h-2.8
				C39.2,13.5,38.1,14.2,36.9,14.2 M49.9,5.5c0-0.6-0.5-1.2-1.2-1.2c-2.8,0-5.2,2-5.2,4.8v6.2c0,0.7,0.5,1.2,1.2,1.2H46V9.2
				c0-1.4,1.3-2.5,2.7-2.5C49.4,6.7,49.9,6.2,49.9,5.5"/>
		</g>
	</g>
</g>
</svg>
