<?xml version="1.0" encoding="utf-8"?>
<!-- Generator: Adobe Illustrator 27.0.0, SVG Export Plug-In . SVG Version: 6.00 Build 0)  -->
<svg version="1.1" id="Calque_1" xmlns="http://www.w3.org/2000/svg" xmlns:xlink="http://www.w3.org/1999/xlink" x="0px" y="0px"
	 viewBox="0 0 92.12 92.12" enable-background="new 0 0 92.12 92.12" xml:space="preserve">
<g>
	<g>
		<path fill-rule="evenodd" clip-rule="evenodd" fill="#FFFFFF" d="M73.52,25.79c0-0.16,0.04-0.11-0.17-0.11
			C73.35,25.84,73.31,25.79,73.52,25.79"/>
		<path fill-rule="evenodd" clip-rule="evenodd" fill="#FFFFFF" d="M57.84,45.68c2.2,1.45,3.13,10.11,5.6,7.44
			c1.14-1.28,2.71-9.46,4.03-10c1.65,7.32,0.97,13.48,1.18,19.9h2.11c0.25-3.96,0.09-16.8-0.81-20.22c-1.18-4.33-3.56-3.64-5.12-0.8
			c-1.39,3.32-1.65,5.67-2.29,8.03c-0.72-1.71-2.75-8.88-5.81-7.6c-2.46,1.02-3.64,7.32-3.73,10l-1.99-5.03
			c-0.85-1.98-2.5-3.47-4.11-2.03c-1.99,1.76-2.62,8.18-2.88,11.55h2.5c0.21-2.62,0.68-6.1,1.69-8.56c0.38-0.96,0.34-0.75,0.63-0.86
			c0.63,1.76,2.96,10.53,5.25,9.04C55.01,56,56.15,46.43,57.84,45.68"/>
		<path fill-rule="evenodd" clip-rule="evenodd" fill="#FFFFFF" d="M26.54,38.3l1.18-9.15H25.1l-3.22,18.99l-2.54,0.69v1.87
			c0.34,0.11,1.53,0.86,1.9,1.18c-0.25,2.35-1.44,8.61-1.87,11.17L23.19,63c0.21-0.86,2.29-8.51,2.33-8.56
			c4.24,2.03,9.45,5.35,13.52,7.97c1.18,0.69,0.72,0.64,2.41,0.64c0-5.61-0.6-11.88-0.97-17.49c0.25-0.26,30-7.7,31.09-8.03
			c-0.34-1.02-0.38-1.02-0.46-2.3L40.09,43.1c-0.72-3.64-2.2-10.53-4.49-13.38c-1.32-1.61-3.64-0.59-3.82-0.32
			C31.08,30.01,28.07,33.7,26.54,38.3 M27.73,46.43h-0.09v-0.05c0.13-0.91,1.87-6.47,2.25-7.7c0.55-1.71,2.16-5.83,3.39-6.42
			c1.69,0.64,3.56,8.99,3.94,11.55L27.73,46.43z M39.5,60.66l-0.12-0.05c-1.48-0.59-12.45-7.54-13.43-7.81l1.06-4.01
			c0.12,0,0.42-0.11,0.51-0.11c0.25-0.05,0.51-0.11,0.72-0.16c3.17-0.64,6.39-1.61,9.32-2.19C38.23,50.6,39.16,56.7,39.5,60.66z"/>
		<path fill-rule="evenodd" clip-rule="evenodd" fill="#FFFFFF" d="M17.97,27.58v37.31l28.09,13.42l28.09-13.42V27.57L46.1,13.83
			L17.97,27.58z M16.53,26.67L46.1,12.23l29.49,14.45v39.11L46.06,79.89l-29.52-14.1V26.67z"/>
		<polygon fill-rule="evenodd" clip-rule="evenodd" fill="#FFFFFF" points="19.69,28.65 72.43,28.65 46.1,15.74 		"/>
		<polygon fill-rule="evenodd" clip-rule="evenodd" fill="#FFFFFF" points="19.26,63.49 72.86,63.49 46.1,76.39 		"/>
	</g>
</g>
</svg>
