<?xml version="1.0" encoding="utf-8"?>
<!-- Generator: Adobe Illustrator 27.0.0, SVG Export Plug-In . SVG Version: 6.00 Build 0)  -->
<svg version="1.1" id="Calque_1" xmlns="http://www.w3.org/2000/svg" xmlns:xlink="http://www.w3.org/1999/xlink" x="0px" y="0px"
	 viewBox="0 0 92.12 92.12" enable-background="new 0 0 92.12 92.12" xml:space="preserve">
<g>
	<g>
		<path fill="#FFFFFF" d="M38.44,44.79c0.02-0.08,0.03-0.17,0.03-0.27v-0.28c0-0.07,0-0.13,0.01-0.19c0-0.06,0-0.12-0.02-0.18
			c0-0.03,0-0.05-0.01-0.08c-0.01-0.02-0.01-0.05-0.01-0.08c-0.02-0.09-0.03-0.18-0.03-0.27c0-0.09-0.02-0.18-0.04-0.27
			c-0.02-0.07-0.03-0.13-0.04-0.19c-0.01-0.06-0.03-0.13-0.04-0.19c-0.09-0.29-0.21-0.55-0.34-0.78c-0.23-0.37-0.57-0.65-1.02-0.84
			c-0.08-0.04-0.15-0.08-0.24-0.09s-0.17-0.04-0.26-0.07c-0.09-0.03-0.18-0.04-0.28-0.04s-0.18-0.02-0.28-0.03H35.6
			c-0.03-0.01-0.05-0.02-0.08-0.02h-0.1h-1.51c-0.02,0.01-0.03,0.01-0.06,0.01c-0.03,0-0.04,0-0.06,0.01
			c-0.04,0.02-0.08,0.03-0.12,0.05s-0.07,0.04-0.08,0.08s-0.03,0.09-0.05,0.18v0.1c-0.01,0.03-0.01,0.07-0.01,0.11v0.11v5.61v0.12
			c0,0.03,0,0.08,0.01,0.1v0.1c0.02,0.08,0.03,0.14,0.05,0.18c0.07,0.1,0.19,0.14,0.37,0.14c0.18,0,0.35-0.01,0.52-0.01h0.71
			c0.06,0,0.12,0,0.18,0.01c0.07,0.01,0.13,0,0.18-0.02h0.13c0.04-0.01,0.08-0.01,0.13-0.01c0.05,0.01,0.1,0,0.15-0.01
			c0.05-0.02,0.1-0.03,0.15-0.03c0.05-0.01,0.1-0.02,0.16-0.03c0.09-0.03,0.18-0.05,0.27-0.08c0.08-0.03,0.18-0.06,0.27-0.1
			c0.3-0.13,0.56-0.31,0.78-0.54c0.22-0.23,0.39-0.5,0.54-0.81c0.04-0.09,0.08-0.18,0.11-0.29c0.03-0.1,0.06-0.21,0.09-0.32
			c0.03-0.09,0.04-0.18,0.06-0.29c0.01-0.1,0.03-0.2,0.04-0.3c0.01-0.04,0.02-0.08,0.02-0.1v-0.1H38.44z M39.61,44.15
			c0,0.07,0,0.13,0.01,0.22c0.01,0.08,0,0.14-0.02,0.2v0.13c-0.01,0.03-0.01,0.05-0.01,0.08c0,0.03,0,0.06-0.01,0.08
			c-0.01,0.04-0.01,0.08-0.01,0.13c0,0.04,0,0.09-0.02,0.13c-0.03,0.12-0.04,0.24-0.05,0.36c-0.01,0.13-0.03,0.25-0.08,0.36
			c-0.03,0.1-0.05,0.2-0.08,0.3c-0.03,0.1-0.07,0.2-0.11,0.3c-0.14,0.35-0.31,0.67-0.52,0.96s-0.47,0.53-0.78,0.72
			c-0.16,0.1-0.32,0.18-0.5,0.25c-0.18,0.07-0.37,0.13-0.57,0.2c-0.09,0.03-0.18,0.06-0.29,0.07c-0.1,0.01-0.2,0.03-0.3,0.06
			c-0.09,0.02-0.18,0.03-0.27,0.03c-0.08,0-0.17,0.01-0.25,0.03h-0.16c-0.03,0.01-0.05,0.01-0.08,0.01
			c-0.03-0.01-0.07-0.01-0.1-0.01h-2.47c-0.13,0-0.24-0.01-0.33-0.02c-0.09-0.02-0.16-0.07-0.19-0.15
			c-0.03-0.07-0.05-0.16-0.04-0.29s0.01-0.24,0.01-0.34v-7.3c0-0.1,0-0.2-0.01-0.31c-0.01-0.11,0.02-0.2,0.06-0.27
			c0.03-0.06,0.09-0.09,0.18-0.11c0.02-0.01,0.03-0.01,0.05-0.01s0.03,0,0.05-0.01h2.68c0.04,0,0.08,0,0.12-0.01
			c0.03,0,0.08,0,0.1,0.01c0.04,0.02,0.08,0.02,0.13,0.01c0.04-0.01,0.08-0.01,0.13,0c0.04,0.01,0.08,0.02,0.13,0.02
			s0.09,0,0.13,0.01c0.04,0.01,0.08,0.01,0.12,0.01s0.08,0,0.12,0.02c0.09,0.02,0.18,0.03,0.26,0.04c0.08,0.01,0.17,0.03,0.24,0.06
			c0.18,0.06,0.35,0.11,0.52,0.17c0.17,0.05,0.32,0.13,0.45,0.22c0.12,0.07,0.22,0.13,0.31,0.2c0.03,0.02,0.05,0.03,0.08,0.06
			c0.03,0.02,0.05,0.04,0.08,0.06c0.05,0.04,0.09,0.08,0.13,0.13c0.04,0.04,0.08,0.08,0.13,0.13c0.04,0.04,0.08,0.07,0.1,0.08
			c0.03,0.05,0.07,0.09,0.11,0.13c0.03,0.04,0.08,0.08,0.1,0.13c0.04,0.05,0.08,0.1,0.11,0.15c0.03,0.05,0.07,0.11,0.1,0.17
			c0.02,0.03,0.03,0.06,0.03,0.08c0.01,0.03,0.02,0.05,0.03,0.08c0.03,0.07,0.06,0.13,0.08,0.19c0.03,0.06,0.05,0.13,0.08,0.19
			c0.03,0.09,0.06,0.18,0.08,0.28c0.02,0.09,0.04,0.18,0.07,0.28c0.02,0.05,0.03,0.1,0.03,0.14s0.01,0.09,0.03,0.14
			c0.04,0.15,0.07,0.31,0.07,0.49C39.61,43.81,39.61,43.97,39.61,44.15"/>
		<path fill="#FFFFFF" d="M40.75,42.4c0.11,0,0.23,0,0.37-0.01c0.14,0,0.24,0.02,0.31,0.06c0.07,0.04,0.11,0.09,0.14,0.16
			c0.03,0.07,0.06,0.13,0.09,0.21c0.04,0.11,0.08,0.22,0.11,0.32c0.03,0.11,0.07,0.22,0.11,0.32c0.04,0.1,0.08,0.2,0.11,0.3
			c0.03,0.1,0.07,0.2,0.11,0.3c0.04,0.09,0.08,0.18,0.1,0.29c0.03,0.1,0.06,0.2,0.1,0.29c0.1,0.24,0.19,0.49,0.27,0.74
			c0.08,0.25,0.18,0.5,0.27,0.74c0.02,0.03,0.03,0.07,0.03,0.09c0,0.03,0.01,0.06,0.03,0.08c0.05,0.12,0.09,0.24,0.13,0.35
			c0.04,0.12,0.08,0.24,0.13,0.35c0.03,0.06,0.05,0.12,0.08,0.18c0.03,0.06,0.07,0.1,0.13,0.12c0.07,0.03,0.12,0,0.15-0.07
			s0.07-0.13,0.08-0.17c0.07-0.14,0.12-0.29,0.16-0.44c0.04-0.16,0.09-0.31,0.15-0.45c0.08-0.19,0.14-0.38,0.2-0.57
			c0.06-0.19,0.13-0.38,0.21-0.56c0.01-0.04,0.02-0.09,0.03-0.16c0.03-0.08,0.06-0.15,0.08-0.23c0.03-0.08,0.05-0.15,0.08-0.22
			c0.02-0.04,0.03-0.08,0.03-0.11s0.02-0.07,0.03-0.11c0.04-0.1,0.08-0.2,0.11-0.3c0.03-0.1,0.07-0.2,0.1-0.3
			c0.02-0.04,0.03-0.08,0.03-0.11c0.01-0.03,0.02-0.07,0.03-0.11c0.03-0.08,0.06-0.15,0.08-0.23c0.03-0.08,0.05-0.15,0.08-0.23
			c0.03-0.07,0.05-0.13,0.07-0.2c0.02-0.07,0.05-0.13,0.09-0.18c0.06-0.08,0.13-0.12,0.24-0.13c0.1-0.01,0.22-0.01,0.34-0.01
			c0.07,0,0.13,0,0.19,0.01c0.06,0,0.11,0.02,0.15,0.04c0.08,0.05,0.09,0.13,0.06,0.24c-0.03,0.11-0.06,0.19-0.08,0.24
			c-0.01,0.02-0.02,0.03-0.02,0.05c-0.01,0.02-0.01,0.03-0.02,0.05c-0.09,0.23-0.18,0.46-0.27,0.7c-0.09,0.24-0.18,0.47-0.27,0.7
			c-0.03,0.07-0.04,0.13-0.06,0.18c-0.02,0.05-0.03,0.11-0.06,0.17c-0.07,0.17-0.13,0.33-0.19,0.5c-0.06,0.17-0.13,0.34-0.19,0.5
			c-0.24,0.57-0.46,1.14-0.66,1.71c-0.21,0.58-0.43,1.15-0.66,1.71c-0.02,0.04-0.03,0.08-0.04,0.13c-0.01,0.04-0.03,0.09-0.04,0.14
			c-0.13,0.3-0.27,0.6-0.42,0.91c-0.15,0.3-0.35,0.54-0.62,0.7c-0.09,0.05-0.18,0.09-0.27,0.12c-0.09,0.03-0.19,0.06-0.31,0.08
			c-0.04,0.02-0.08,0.02-0.13,0.01c-0.04-0.01-0.09-0.01-0.14,0c-0.07,0.02-0.13,0.02-0.2,0c-0.03-0.01-0.08-0.01-0.13-0.01
			c-0.07-0.02-0.13-0.03-0.19-0.05c-0.06-0.02-0.11-0.05-0.14-0.1c-0.04-0.05-0.07-0.11-0.07-0.18s-0.01-0.14-0.01-0.23
			c0-0.06,0-0.11,0.01-0.17c0-0.05,0.02-0.1,0.04-0.13c0.06-0.09,0.16-0.12,0.29-0.08c0.09,0.02,0.19,0.03,0.29,0.03
			c0.11,0,0.2-0.02,0.29-0.05c0.13-0.04,0.23-0.1,0.3-0.18s0.14-0.18,0.2-0.28c0.06-0.1,0.11-0.21,0.15-0.33
			c0.04-0.12,0.09-0.23,0.14-0.34c0.03-0.08,0.07-0.17,0.11-0.27c0.03-0.11,0.04-0.22,0.01-0.34c-0.04-0.13-0.08-0.25-0.13-0.37
			s-0.09-0.23-0.14-0.34c-0.08-0.18-0.14-0.34-0.21-0.52c-0.07-0.18-0.13-0.34-0.2-0.5c-0.05-0.12-0.09-0.23-0.13-0.34
			c-0.04-0.11-0.08-0.22-0.13-0.34c-0.15-0.36-0.29-0.72-0.44-1.08c-0.14-0.36-0.29-0.72-0.44-1.08c-0.08-0.19-0.16-0.37-0.23-0.55
			s-0.13-0.35-0.21-0.54c-0.02-0.05-0.04-0.12-0.08-0.2c-0.03-0.08-0.03-0.16,0.01-0.22c0.03-0.04,0.08-0.07,0.15-0.08
			c0.02-0.01,0.03-0.01,0.06-0.01C40.72,42.4,40.73,42.4,40.75,42.4"/>
		<path fill="#FFFFFF" d="M50.32,42.27c0.52-0.02,0.93,0.05,1.25,0.21c0.31,0.16,0.56,0.39,0.76,0.71c0.05,0.08,0.09,0.17,0.12,0.27
			c0.03,0.09,0.06,0.19,0.08,0.29c0.04,0.16,0.07,0.33,0.08,0.5c0.01,0.18,0.01,0.37,0.01,0.55v1.32v1.92c0,0.14,0,0.28-0.01,0.42
			c0,0.14-0.06,0.23-0.17,0.27c-0.04,0.02-0.08,0.03-0.13,0.03c-0.04,0-0.09,0.01-0.14,0.01c-0.11,0-0.21,0-0.31-0.01
			c-0.1,0-0.17-0.04-0.21-0.11c-0.04-0.06-0.06-0.13-0.06-0.23v-0.27v-1.05V45.1c0-0.22,0-0.44-0.01-0.66
			c-0.01-0.22-0.04-0.4-0.11-0.56c-0.07-0.17-0.17-0.29-0.29-0.4c-0.13-0.1-0.29-0.18-0.45-0.24c-0.05-0.02-0.1-0.03-0.15-0.03
			c-0.05-0.01-0.11-0.02-0.15-0.03c-0.04-0.01-0.1-0.01-0.19-0.01c-0.08,0.01-0.14,0.01-0.18,0.02c-0.03,0.02-0.06,0.03-0.08,0.02
			c-0.03-0.01-0.05,0-0.08,0.01c-0.11,0.03-0.21,0.05-0.3,0.08c-0.09,0.03-0.18,0.07-0.27,0.12c-0.03,0.02-0.06,0.03-0.08,0.05
			c-0.03,0.02-0.05,0.03-0.08,0.05c-0.29,0.21-0.5,0.51-0.63,0.92c-0.03,0.07-0.04,0.13-0.05,0.2c-0.01,0.07-0.02,0.13-0.03,0.2
			c-0.02,0.04-0.02,0.08-0.01,0.12c0.01,0.03,0,0.08-0.02,0.1v0.26c-0.01,0.03-0.01,0.05-0.01,0.08s0.01,0.07,0.01,0.11v0.37v1.18
			v1.08v0.28c0,0.09-0.02,0.17-0.06,0.23c-0.04,0.07-0.11,0.1-0.22,0.11c-0.1,0-0.21,0.01-0.32,0.01c-0.07,0-0.13,0-0.18-0.01
			c-0.06-0.01-0.11-0.03-0.15-0.06c-0.07-0.04-0.1-0.12-0.1-0.24v-0.34v-1.46v-2.99v-0.76v-0.22c0-0.08,0.02-0.13,0.05-0.18
			c0.03-0.05,0.07-0.08,0.13-0.1c0.03-0.01,0.08-0.02,0.14-0.03c0.06-0.01,0.13-0.02,0.19-0.02s0.13,0.01,0.19,0.02
			c0.06,0.01,0.11,0.02,0.13,0.03c0.09,0.06,0.13,0.13,0.13,0.22c-0.01,0.08,0.01,0.18,0.03,0.29c0.02,0.05,0.05,0.09,0.1,0.13
			c0.1,0.01,0.18-0.03,0.24-0.11c0.06-0.08,0.13-0.15,0.19-0.2c0.12-0.08,0.24-0.16,0.35-0.23c0.12-0.07,0.26-0.13,0.41-0.18
			c0.07-0.03,0.13-0.04,0.22-0.05c0.08-0.01,0.15-0.02,0.23-0.03c0.04-0.01,0.08-0.02,0.13-0.02h0.08V42.27z"/>
		<path fill="#FFFFFF" d="M58.17,46.93c0.05-0.12,0.08-0.25,0.08-0.4c0-0.15,0.01-0.31,0.01-0.48c0-0.09,0-0.18-0.01-0.24
			c-0.01-0.08-0.04-0.13-0.1-0.18c-0.03-0.02-0.08-0.03-0.18-0.03c-0.02,0.02-0.04,0.03-0.08,0.03s-0.08,0.01-0.11,0.03
			c-0.07,0.02-0.14,0.03-0.23,0.05s-0.17,0.03-0.24,0.05c-0.03,0-0.05,0-0.08,0.01c-0.03,0.01-0.06,0.01-0.09,0.01
			c-0.13,0.03-0.26,0.05-0.4,0.06c-0.14,0.01-0.28,0.03-0.4,0.06c-0.07,0.02-0.13,0.03-0.18,0.04c-0.05,0.02-0.11,0.03-0.18,0.04
			c-0.13,0.04-0.25,0.09-0.37,0.15c-0.12,0.06-0.22,0.13-0.29,0.23c-0.08,0.09-0.14,0.2-0.18,0.33c-0.04,0.13-0.06,0.29-0.05,0.46
			c0,0.08,0.02,0.16,0.04,0.23c0.03,0.07,0.07,0.13,0.11,0.19c0.07,0.09,0.15,0.17,0.26,0.23c0.11,0.06,0.22,0.11,0.34,0.15
			c0.04,0.01,0.08,0.01,0.13,0.01c0.04,0,0.08,0.01,0.13,0.02c0.06,0.02,0.13,0.03,0.22,0.03c0.08,0,0.16,0,0.22-0.02
			c0.05-0.02,0.1-0.03,0.15-0.02c0.05,0.01,0.1,0,0.15-0.02c0.07-0.02,0.13-0.03,0.19-0.03c0.06-0.01,0.12-0.03,0.18-0.05
			c0.24-0.1,0.44-0.22,0.61-0.36C57.95,47.36,58.08,47.16,58.17,46.93 M59.93,48.3c0.03,0.13,0.01,0.24-0.03,0.33
			c-0.05,0.08-0.12,0.15-0.19,0.19c-0.04,0.02-0.08,0.03-0.13,0.03s-0.09,0.01-0.14,0.03c-0.18,0.04-0.36,0.03-0.54-0.03
			c-0.18-0.06-0.3-0.13-0.36-0.23c-0.04-0.06-0.08-0.13-0.11-0.2s-0.08-0.14-0.13-0.19c-0.02-0.02-0.03-0.03-0.06-0.05
			c-0.02-0.02-0.05-0.02-0.08-0.01c-0.09,0.03-0.18,0.07-0.25,0.13s-0.15,0.13-0.23,0.18c-0.11,0.07-0.22,0.13-0.34,0.18
			c-0.13,0.05-0.25,0.1-0.39,0.14c-0.08,0.03-0.17,0.04-0.27,0.05c-0.09,0.01-0.18,0.02-0.28,0.03c-0.04,0.01-0.08,0.01-0.11,0.01
			H56.2c-0.09,0.02-0.18,0.02-0.26,0h-0.11c-0.04-0.01-0.08-0.01-0.13-0.01s-0.08-0.01-0.11-0.03c-0.03-0.01-0.06-0.01-0.08-0.01
			c-0.03,0.01-0.04,0-0.07-0.01c-0.07-0.02-0.13-0.03-0.2-0.04c-0.07-0.02-0.13-0.03-0.18-0.06c-0.24-0.11-0.44-0.23-0.6-0.36
			c-0.15-0.13-0.28-0.33-0.38-0.57c-0.08-0.18-0.11-0.4-0.11-0.65v-0.26c0.01-0.04,0.02-0.08,0.02-0.13
			c0.01-0.04,0.01-0.09,0.02-0.14c0.03-0.09,0.07-0.18,0.1-0.27c0.03-0.09,0.08-0.18,0.13-0.24c0.15-0.24,0.35-0.41,0.6-0.53
			c0.25-0.12,0.54-0.22,0.84-0.31c0.12-0.03,0.24-0.06,0.36-0.08s0.24-0.03,0.37-0.06c0.06-0.02,0.11-0.03,0.17-0.03
			c0.05,0,0.11-0.01,0.18-0.03c0.06-0.02,0.12-0.03,0.18-0.03c0.06,0,0.12-0.02,0.18-0.03c0.21-0.05,0.4-0.09,0.58-0.13
			c0.18-0.03,0.33-0.13,0.43-0.28c0.05-0.07,0.09-0.15,0.13-0.25c0.03-0.1,0.03-0.22,0-0.34c-0.05-0.2-0.13-0.35-0.22-0.47
			c-0.09-0.12-0.23-0.21-0.4-0.27c-0.1-0.04-0.22-0.07-0.35-0.08c-0.13-0.02-0.28-0.03-0.43-0.03s-0.29,0.01-0.43,0.03
			c-0.14,0.02-0.26,0.04-0.36,0.08c-0.14,0.05-0.28,0.12-0.4,0.21c-0.07,0.05-0.13,0.11-0.18,0.19c-0.05,0.08-0.1,0.16-0.14,0.25
			c-0.03,0.07-0.05,0.13-0.07,0.21c-0.03,0.08-0.06,0.13-0.12,0.18c-0.03,0.03-0.09,0.04-0.17,0.06s-0.16,0.02-0.24,0.02
			s-0.16-0.01-0.24-0.02c-0.08-0.01-0.13-0.03-0.17-0.06s-0.06-0.07-0.08-0.13s-0.02-0.12,0-0.18c0.03-0.11,0.05-0.21,0.08-0.3
			c0.03-0.09,0.07-0.18,0.11-0.28c0.16-0.29,0.35-0.51,0.6-0.67c0.24-0.16,0.54-0.29,0.89-0.39c0.08-0.02,0.17-0.03,0.25-0.03
			c0.08-0.01,0.18-0.02,0.27-0.03c0.03-0.01,0.08-0.01,0.16-0.01c0.08,0.01,0.12,0,0.13-0.02c0.58-0.01,1.07,0.06,1.5,0.2
			c0.43,0.14,0.73,0.41,0.9,0.81c0.08,0.17,0.12,0.35,0.13,0.57c0.02,0.22,0.02,0.44,0.02,0.69v2.73c0,0.12,0.01,0.23,0.01,0.34
			c0.01,0.11,0.03,0.19,0.08,0.26c0.04,0.06,0.09,0.1,0.16,0.13c0.08,0.03,0.14,0.06,0.21,0.07c0.07,0.02,0.12,0.05,0.15,0.12
			c0.02,0.03,0.03,0.05,0.03,0.08C59.93,48.22,59.93,48.26,59.93,48.3"/>
		<path fill="#FFFFFF" d="M64.02,42.24c0.19,0,0.29,0.05,0.32,0.14c0.03,0.09,0.03,0.24,0.03,0.41v0.24c0,0.08-0.03,0.13-0.06,0.18
			c-0.05,0.07-0.12,0.1-0.21,0.1c-0.09,0.01-0.18,0.02-0.27,0.04c-0.12,0.03-0.23,0.05-0.33,0.08c-0.1,0.03-0.2,0.06-0.29,0.1
			c-0.24,0.11-0.43,0.25-0.58,0.44c-0.15,0.18-0.28,0.39-0.39,0.64c-0.03,0.09-0.06,0.18-0.08,0.28c-0.02,0.09-0.03,0.19-0.06,0.29
			c-0.01,0.04-0.01,0.08-0.01,0.13c0,0.04,0,0.08-0.01,0.13c-0.03,0.1-0.03,0.21-0.03,0.34s0.01,0.25,0.01,0.36v1.52v0.29
			c0,0.1-0.01,0.19-0.02,0.29c-0.01,0.09-0.01,0.17-0.01,0.24c0.01,0.07-0.02,0.13-0.06,0.18c-0.04,0.06-0.1,0.09-0.19,0.1
			c-0.08,0.01-0.18,0.01-0.28,0.01H61.3c-0.04-0.02-0.08-0.03-0.12-0.04c-0.03-0.01-0.07-0.03-0.08-0.06
			c-0.04-0.06-0.07-0.13-0.07-0.22c-0.01-0.08-0.01-0.18-0.01-0.27v-0.95v-3.42v-0.85c0-0.09,0-0.18,0.01-0.25
			c0-0.08,0.03-0.14,0.07-0.2c0.03-0.03,0.07-0.06,0.13-0.08c0.06-0.02,0.13-0.03,0.2-0.03c0.08,0,0.15,0,0.22,0.01
			c0.08,0.01,0.13,0.02,0.18,0.03c0.07,0.03,0.11,0.08,0.13,0.14c0.02,0.07,0.03,0.14,0.03,0.22v0.24c0,0.08,0.02,0.16,0.05,0.23
			c0.01,0.02,0.02,0.03,0.03,0.03c0.01,0.01,0.02,0.02,0.03,0.03c0.09,0,0.17-0.04,0.22-0.12c0.06-0.08,0.11-0.14,0.15-0.19
			l0.08-0.08c0.08-0.09,0.18-0.18,0.31-0.29c0.13-0.1,0.25-0.18,0.37-0.23c0.08-0.04,0.15-0.08,0.24-0.09
			c0.08-0.02,0.17-0.04,0.26-0.07c0.05-0.01,0.1-0.02,0.15-0.02C63.94,42.26,63.98,42.25,64.02,42.24"/>
		<path fill="#FFFFFF" d="M69.61,44.91c0.03-0.03,0.04-0.08,0.06-0.13c0.02-0.05,0.02-0.11,0-0.17c-0.05-0.18-0.12-0.35-0.21-0.5
			c-0.12-0.19-0.24-0.35-0.39-0.48c-0.14-0.13-0.32-0.24-0.55-0.34c-0.06-0.02-0.12-0.03-0.18-0.04c-0.06-0.01-0.12-0.03-0.18-0.04
			s-0.13-0.03-0.21-0.03h-0.21c-0.03,0.02-0.05,0.03-0.08,0.02c-0.03,0-0.06,0-0.08,0.01c-0.07,0.02-0.13,0.03-0.19,0.04
			c-0.06,0.02-0.13,0.03-0.18,0.04c-0.24,0.1-0.43,0.23-0.57,0.37c-0.14,0.15-0.28,0.34-0.39,0.55c-0.03,0.04-0.05,0.09-0.08,0.15
			c-0.03,0.06-0.04,0.13-0.06,0.2c-0.02,0.08-0.02,0.14-0.01,0.21c0.01,0.07,0.03,0.12,0.08,0.15c0.07,0.05,0.18,0.08,0.34,0.07
			c0.16-0.01,0.3-0.01,0.41-0.01h1.88c0.13,0,0.27,0,0.44,0.01C69.45,45,69.56,44.97,69.61,44.91 M70.81,45.33
			c0.02,0.08,0.02,0.18,0.01,0.28s-0.04,0.18-0.08,0.22c-0.04,0.03-0.1,0.06-0.18,0.07s-0.17,0.02-0.27,0.02s-0.2,0-0.29-0.01
			c-0.1-0.01-0.18-0.01-0.26-0.01h-3.16c-0.07,0-0.13,0-0.2,0.01c-0.07,0.01-0.12,0.02-0.16,0.04c-0.03,0.02-0.07,0.05-0.1,0.1
			c-0.02,0.03-0.03,0.06-0.05,0.11c-0.02,0.04-0.02,0.09,0,0.13c0.01,0.04,0.01,0.08,0.01,0.11c0,0.03,0.01,0.07,0.02,0.1
			c0.02,0.07,0.03,0.13,0.05,0.2c0.02,0.07,0.04,0.13,0.08,0.2c0.19,0.44,0.5,0.76,0.94,0.95c0.05,0.03,0.1,0.04,0.16,0.06
			c0.06,0.02,0.12,0.03,0.18,0.05c0.03,0.01,0.07,0.02,0.13,0.02c0.12,0.03,0.27,0.05,0.45,0.05c0.19,0,0.34-0.02,0.45-0.05
			c0.12-0.03,0.22-0.07,0.31-0.11c0.09-0.03,0.18-0.08,0.27-0.14c0.09-0.06,0.17-0.13,0.24-0.2c0.07-0.08,0.13-0.16,0.18-0.25
			c0.05-0.08,0.09-0.17,0.13-0.26s0.1-0.16,0.19-0.2c0.03-0.02,0.08-0.03,0.16-0.03c0.08-0.01,0.15-0.01,0.22-0.01
			c0.08,0.01,0.14,0.01,0.21,0.02c0.07,0.01,0.11,0.03,0.13,0.05c0.08,0.06,0.1,0.15,0.06,0.29c-0.07,0.23-0.15,0.42-0.26,0.6
			c-0.17,0.26-0.35,0.48-0.56,0.65c-0.21,0.17-0.48,0.31-0.8,0.41c-0.08,0.03-0.17,0.06-0.24,0.07c-0.08,0.01-0.17,0.03-0.26,0.04
			c-0.04,0.01-0.08,0.02-0.12,0.02s-0.08,0-0.12,0.01h-0.13c-0.04,0.01-0.09,0.01-0.14,0.01s-0.1-0.01-0.13-0.01h-0.11
			c-0.04-0.01-0.08-0.01-0.11-0.01s-0.07-0.01-0.1-0.02c-0.04-0.01-0.08-0.02-0.13-0.02c-0.05-0.01-0.09-0.01-0.13-0.02
			c-0.08-0.02-0.15-0.03-0.23-0.06c-0.08-0.02-0.14-0.04-0.21-0.07c-0.03-0.02-0.06-0.03-0.08-0.03c-0.03,0-0.05-0.02-0.08-0.03
			c-0.13-0.06-0.25-0.13-0.39-0.21c-0.24-0.16-0.44-0.34-0.61-0.57c-0.17-0.23-0.31-0.48-0.43-0.76c-0.04-0.09-0.08-0.18-0.09-0.29
			c-0.02-0.1-0.05-0.2-0.08-0.29c-0.01-0.03-0.01-0.06-0.01-0.08c0-0.03-0.01-0.06-0.01-0.1c-0.02-0.07-0.03-0.13-0.03-0.21
			C65,46.06,65,45.98,64.98,45.91v-0.18c-0.01-0.03-0.02-0.08-0.02-0.14c0-0.06,0-0.11,0.01-0.15v-0.13
			c0.02-0.04,0.03-0.08,0.02-0.13c-0.01-0.04,0-0.09,0.01-0.13c0.03-0.13,0.06-0.26,0.08-0.39c0.02-0.13,0.06-0.25,0.1-0.37
			c0.04-0.09,0.08-0.18,0.12-0.28c0.03-0.09,0.08-0.18,0.13-0.28c0.18-0.29,0.39-0.54,0.61-0.75c0.23-0.21,0.51-0.39,0.85-0.53
			c0.1-0.04,0.2-0.08,0.3-0.09s0.21-0.04,0.33-0.07c0.04-0.01,0.08-0.02,0.11-0.02s0.07-0.01,0.11-0.01c0.02-0.01,0.03-0.01,0.06,0
			c0.03,0.01,0.04,0.01,0.06-0.01c0.34-0.01,0.65,0.03,0.9,0.11c0.25,0.08,0.49,0.18,0.69,0.31c0.04,0.02,0.08,0.04,0.1,0.07
			c0.03,0.03,0.05,0.05,0.08,0.07c0.07,0.05,0.13,0.11,0.2,0.18c0.07,0.07,0.13,0.13,0.18,0.2c0.13,0.18,0.24,0.34,0.34,0.5
			c0.06,0.09,0.1,0.19,0.13,0.29c0.03,0.11,0.07,0.22,0.11,0.32c0.04,0.11,0.08,0.22,0.09,0.34s0.05,0.23,0.08,0.34
			c0.01,0.06,0.02,0.12,0.02,0.18C70.8,45.21,70.81,45.27,70.81,45.33"/>
		<path fill="#FFFFFF" d="M75.05,42.27c0.52-0.02,0.93,0.05,1.25,0.21c0.31,0.16,0.56,0.39,0.76,0.71c0.05,0.08,0.09,0.17,0.12,0.27
			c0.03,0.09,0.06,0.19,0.08,0.29c0.04,0.16,0.07,0.33,0.08,0.5c0.01,0.18,0.01,0.37,0.01,0.55v1.32v1.92c0,0.14,0,0.28-0.01,0.42
			c-0.01,0.14-0.06,0.23-0.17,0.27c-0.04,0.02-0.08,0.03-0.13,0.03c-0.04,0-0.09,0.01-0.14,0.01c-0.11,0-0.21,0-0.31-0.01
			c-0.1,0-0.17-0.04-0.21-0.11c-0.04-0.06-0.06-0.13-0.06-0.23v-0.27v-1.05V45.1c0-0.22-0.01-0.44-0.01-0.66
			c-0.01-0.22-0.04-0.4-0.11-0.56c-0.07-0.17-0.17-0.29-0.29-0.4c-0.13-0.1-0.29-0.18-0.45-0.24c-0.05-0.02-0.1-0.03-0.15-0.03
			c-0.05-0.01-0.1-0.02-0.15-0.03c-0.04-0.01-0.1-0.01-0.19-0.01c-0.08,0.01-0.14,0.01-0.18,0.02c-0.03,0.02-0.06,0.03-0.08,0.02
			c-0.03-0.01-0.06,0-0.08,0.01c-0.11,0.03-0.21,0.05-0.3,0.08c-0.09,0.03-0.18,0.07-0.27,0.12c-0.03,0.02-0.06,0.03-0.08,0.05
			c-0.03,0.02-0.05,0.03-0.08,0.05c-0.29,0.21-0.5,0.51-0.63,0.92c-0.03,0.07-0.04,0.13-0.05,0.2c-0.01,0.07-0.02,0.13-0.03,0.2
			c-0.02,0.04-0.02,0.08-0.01,0.12c0.01,0.03,0.01,0.08-0.01,0.1v0.26c-0.01,0.03-0.01,0.05-0.01,0.08s0.01,0.07,0.01,0.11v0.37
			v1.18v1.08v0.28c0,0.09-0.02,0.17-0.06,0.23c-0.04,0.07-0.12,0.1-0.22,0.11c-0.1,0-0.21,0.01-0.32,0.01c-0.07,0-0.13,0-0.18-0.01
			c-0.06-0.01-0.11-0.03-0.15-0.06c-0.07-0.04-0.1-0.12-0.1-0.24v-0.34v-1.46v-2.99v-0.76v-0.22c0-0.08,0.02-0.13,0.05-0.18
			c0.03-0.05,0.07-0.08,0.13-0.1c0.03-0.01,0.08-0.02,0.14-0.03c0.06-0.01,0.13-0.02,0.19-0.02s0.13,0.01,0.19,0.02
			c0.06,0.01,0.11,0.02,0.13,0.03c0.09,0.06,0.13,0.13,0.13,0.22c-0.01,0.08,0,0.18,0.03,0.29c0.02,0.05,0.05,0.09,0.1,0.13
			c0.1,0.01,0.18-0.03,0.24-0.11c0.06-0.08,0.13-0.15,0.19-0.2c0.12-0.08,0.24-0.16,0.35-0.23c0.12-0.07,0.26-0.13,0.41-0.18
			c0.07-0.03,0.13-0.04,0.22-0.05c0.08-0.01,0.15-0.02,0.23-0.03c0.04-0.01,0.08-0.02,0.13-0.02h0.07V42.27z"/>
		<path fill="#FFFFFF" d="M52.82,53.24c0.03-0.05,0.03-0.12,0.04-0.19c0-0.08,0-0.15,0-0.23c0-0.04,0-0.08-0.01-0.12
			c-0.01-0.03-0.02-0.06-0.05-0.08c-0.01-0.01-0.04-0.01-0.08-0.01c-0.01,0.01-0.03,0.01-0.04,0.01s-0.04,0-0.05,0.01
			c-0.03,0.01-0.07,0.02-0.1,0.03c-0.04,0.01-0.08,0.02-0.12,0.03c-0.01,0-0.03,0-0.04,0c-0.02,0-0.03,0-0.04,0
			c-0.06,0.02-0.13,0.03-0.19,0.03c-0.07,0-0.13,0.01-0.19,0.03c-0.03,0.01-0.06,0.02-0.08,0.02c-0.03,0.01-0.05,0.02-0.08,0.02
			c-0.06,0.02-0.12,0.04-0.18,0.08c-0.06,0.03-0.1,0.07-0.14,0.11c-0.04,0.04-0.07,0.09-0.09,0.15c-0.02,0.06-0.03,0.13-0.03,0.22
			c0,0.04,0.01,0.08,0.02,0.11c0.02,0.03,0.03,0.07,0.05,0.09c0.03,0.04,0.08,0.08,0.13,0.11s0.11,0.05,0.17,0.08
			c0.02,0,0.04,0.01,0.06,0.01s0.04,0,0.06,0.01c0.03,0.01,0.06,0.01,0.1,0.02c0.04,0,0.08,0,0.1-0.01
			c0.03-0.01,0.05-0.01,0.07-0.01c0.03,0,0.05,0,0.07-0.01c0.03-0.01,0.06-0.02,0.09-0.02s0.06-0.01,0.08-0.03
			c0.11-0.05,0.21-0.1,0.29-0.17C52.71,53.44,52.78,53.35,52.82,53.24 M53.65,53.89c0.01,0.06,0.01,0.12-0.02,0.15
			c-0.03,0.04-0.06,0.07-0.09,0.09c-0.02,0.01-0.04,0.01-0.06,0.01c-0.03,0-0.04,0-0.07,0.01c-0.08,0.02-0.17,0.02-0.25-0.02
			c-0.08-0.03-0.14-0.07-0.18-0.11c-0.02-0.03-0.03-0.06-0.05-0.09s-0.03-0.07-0.06-0.09c-0.01-0.01-0.02-0.02-0.03-0.03
			c-0.01-0.01-0.03-0.01-0.03-0.01c-0.04,0.01-0.08,0.03-0.12,0.07c-0.03,0.03-0.08,0.06-0.11,0.08c-0.05,0.03-0.11,0.06-0.16,0.08
			c-0.06,0.03-0.12,0.05-0.18,0.07c-0.04,0.01-0.08,0.02-0.13,0.03c-0.04,0-0.09,0.01-0.13,0.02c-0.02,0.01-0.03,0.01-0.05,0.01
			H51.9c-0.04,0.01-0.08,0.01-0.13,0h-0.07c-0.02,0-0.04-0.01-0.06-0.01s-0.03,0-0.05-0.01c-0.02,0-0.03-0.01-0.04,0
			c-0.01,0-0.02,0-0.03,0c-0.03-0.01-0.06-0.02-0.09-0.02c-0.03-0.01-0.06-0.02-0.08-0.03c-0.12-0.05-0.21-0.11-0.29-0.18
			c-0.08-0.07-0.13-0.15-0.18-0.27c-0.03-0.08-0.05-0.18-0.05-0.31v-0.13c0-0.02,0.01-0.04,0.01-0.06c0-0.03,0.01-0.04,0.01-0.07
			c0.02-0.04,0.03-0.08,0.05-0.13c0.02-0.04,0.03-0.08,0.06-0.12c0.07-0.12,0.17-0.2,0.29-0.25c0.12-0.05,0.25-0.1,0.39-0.14
			c0.06-0.02,0.11-0.03,0.17-0.03s0.12-0.02,0.18-0.03c0.03-0.01,0.05-0.01,0.08-0.01s0.05,0,0.08-0.01
			c0.03-0.01,0.06-0.02,0.08-0.02c0.03,0,0.06-0.01,0.08-0.02c0.1-0.03,0.19-0.04,0.28-0.06c0.08-0.02,0.15-0.06,0.2-0.13
			c0.03-0.03,0.04-0.07,0.06-0.12c0.02-0.05,0.02-0.1,0-0.16c-0.03-0.09-0.06-0.17-0.1-0.23c-0.04-0.05-0.11-0.1-0.19-0.13
			c-0.05-0.02-0.1-0.03-0.17-0.04s-0.13-0.01-0.2-0.01s-0.13,0-0.2,0.01c-0.07,0.01-0.13,0.02-0.17,0.03
			c-0.07,0.03-0.13,0.06-0.19,0.1c-0.03,0.03-0.06,0.05-0.08,0.09c-0.03,0.03-0.05,0.08-0.07,0.12c-0.01,0.03-0.03,0.07-0.03,0.1
			c-0.01,0.03-0.03,0.06-0.06,0.08c-0.02,0.01-0.04,0.02-0.08,0.03c-0.03,0.01-0.08,0.01-0.12,0.01s-0.08,0-0.12-0.01
			c-0.03-0.01-0.07-0.02-0.08-0.03c-0.02-0.01-0.03-0.03-0.03-0.06c-0.01-0.03-0.01-0.06,0-0.08c0.01-0.05,0.03-0.1,0.04-0.14
			c0.02-0.04,0.03-0.09,0.05-0.13c0.08-0.13,0.17-0.24,0.28-0.32c0.11-0.08,0.25-0.13,0.42-0.18c0.04-0.01,0.08-0.02,0.12-0.02
			s0.08-0.01,0.13-0.02c0.02,0,0.04-0.01,0.08,0c0.03,0,0.06,0,0.07-0.01c0.28-0.01,0.51,0.03,0.71,0.09
			c0.2,0.07,0.34,0.19,0.43,0.38c0.03,0.08,0.06,0.17,0.06,0.27c0.01,0.1,0.01,0.21,0.01,0.33v1.29c0,0.05,0,0.11,0.01,0.16
			c0,0.05,0.02,0.09,0.03,0.13c0.02,0.03,0.04,0.05,0.08,0.06c0.03,0.02,0.07,0.03,0.1,0.03c0.03,0.01,0.05,0.03,0.07,0.06
			c0.01,0.01,0.01,0.03,0.01,0.03C53.65,53.86,53.65,53.87,53.65,53.89"/>
		<path fill="#FFFFFF" d="M54.97,51.03c0.28,0,0.52,0.03,0.71,0.09c0.19,0.07,0.34,0.18,0.44,0.36c0.03,0.04,0.05,0.08,0.07,0.13
			c0.02,0.04,0.03,0.09,0.05,0.15c0.01,0.03,0.01,0.06,0.01,0.08c0,0.03-0.01,0.05-0.02,0.07c-0.01,0.01-0.02,0.02-0.03,0.02
			c-0.01,0.01-0.03,0.01-0.03,0.02c-0.02,0.01-0.04,0.01-0.06,0.01s-0.04,0-0.06,0c-0.03,0.01-0.08,0.01-0.13,0
			c-0.05-0.01-0.08-0.02-0.11-0.03c-0.03-0.02-0.05-0.05-0.06-0.08c-0.01-0.03-0.03-0.07-0.04-0.09c-0.03-0.06-0.08-0.12-0.14-0.17
			c-0.04-0.03-0.09-0.05-0.14-0.07c-0.05-0.02-0.1-0.03-0.17-0.05c-0.02-0.01-0.04-0.01-0.06-0.01c-0.02,0-0.04,0-0.06,0
			c-0.03-0.01-0.05-0.01-0.08-0.01s-0.07,0-0.08,0.01h-0.03c-0.02,0.01-0.04,0.01-0.06,0.01s-0.04,0.01-0.06,0.01
			c-0.1,0.03-0.18,0.06-0.25,0.1c-0.07,0.04-0.11,0.12-0.13,0.22c-0.01,0.03-0.01,0.06,0,0.08c0.01,0.03,0.01,0.05,0.02,0.07
			c0.03,0.06,0.05,0.1,0.08,0.13c0.03,0.03,0.08,0.05,0.13,0.08c0.06,0.04,0.13,0.07,0.21,0.08c0.08,0.02,0.16,0.04,0.24,0.06
			c0.05,0.02,0.1,0.03,0.15,0.03s0.1,0.02,0.15,0.03c0.08,0.03,0.16,0.04,0.24,0.07c0.08,0.03,0.16,0.05,0.24,0.08
			c0.02,0.01,0.04,0.02,0.06,0.03c0.02,0.01,0.04,0.02,0.06,0.03c0.08,0.05,0.14,0.1,0.2,0.16c0.06,0.06,0.11,0.13,0.14,0.22
			c0.01,0.03,0.02,0.07,0.03,0.11c0.01,0.03,0.02,0.06,0.02,0.08c0,0.03,0,0.06,0,0.09v0.06c-0.01,0.03-0.01,0.06-0.01,0.08
			c0,0.03-0.01,0.06-0.01,0.08c-0.01,0.04-0.03,0.08-0.04,0.13c-0.02,0.04-0.03,0.08-0.05,0.1c-0.06,0.1-0.14,0.18-0.24,0.24
			c-0.1,0.06-0.21,0.11-0.33,0.15c-0.03,0.01-0.07,0.02-0.11,0.03c-0.03,0.01-0.08,0.02-0.11,0.03c-0.04,0.01-0.08,0.01-0.12,0.01
			c-0.04,0-0.08,0-0.12,0.01h-0.06c-0.02,0.01-0.05,0.01-0.08,0.01c-0.03,0-0.07,0-0.08-0.01h-0.07c-0.03-0.01-0.05-0.01-0.08-0.01
			c-0.03,0-0.05,0-0.07-0.01c-0.02-0.01-0.04-0.01-0.08-0.01c-0.03-0.01-0.06-0.02-0.09-0.02c-0.03-0.01-0.06-0.02-0.09-0.03
			c-0.12-0.04-0.23-0.08-0.32-0.14s-0.17-0.13-0.24-0.23c-0.03-0.05-0.07-0.1-0.08-0.16c-0.03-0.06-0.04-0.12-0.07-0.18
			c-0.01-0.03-0.01-0.05-0.01-0.08c0-0.03,0.01-0.06,0.02-0.08c0.01-0.02,0.03-0.03,0.06-0.05c0.02-0.01,0.05-0.02,0.08-0.02
			c0.03,0,0.07,0,0.1,0c0.03,0,0.07,0.01,0.1,0.02c0.03,0.01,0.06,0.02,0.07,0.02c0.03,0.02,0.04,0.05,0.06,0.08
			c0.01,0.03,0.03,0.07,0.04,0.1c0.04,0.08,0.09,0.15,0.16,0.2c0.05,0.03,0.1,0.07,0.16,0.08c0.06,0.02,0.12,0.04,0.18,0.06
			l0.13,0.02h0.03c0.03,0.01,0.07,0.01,0.11,0.01c0.04,0,0.08,0,0.12-0.01c0.03,0,0.05,0,0.07-0.01c0.03,0,0.05-0.01,0.07-0.01
			c0.03,0,0.04-0.01,0.07-0.01c0.11-0.03,0.2-0.08,0.27-0.13c0.07-0.05,0.11-0.13,0.14-0.26c0.01-0.02,0.01-0.04,0.01-0.07
			c0-0.03-0.01-0.04-0.01-0.05c-0.02-0.08-0.05-0.13-0.08-0.17c-0.03-0.03-0.08-0.08-0.13-0.1c-0.03-0.03-0.08-0.04-0.12-0.06
			s-0.08-0.03-0.13-0.05c-0.01,0-0.03-0.01-0.03-0.01s-0.02,0-0.03-0.01c-0.13-0.04-0.27-0.08-0.41-0.09
			c-0.14-0.03-0.28-0.06-0.4-0.11c-0.04-0.02-0.08-0.03-0.11-0.04c-0.03-0.01-0.07-0.03-0.1-0.05c-0.08-0.04-0.14-0.09-0.2-0.14
			c-0.06-0.06-0.11-0.13-0.14-0.2c-0.01-0.03-0.02-0.06-0.03-0.08c-0.01-0.03-0.02-0.06-0.02-0.08c-0.01-0.05-0.02-0.1-0.01-0.16
			c0-0.06,0.01-0.11,0.02-0.15c0.01-0.02,0.01-0.03,0.02-0.05c0-0.02,0.01-0.03,0.02-0.04c0.03-0.09,0.08-0.17,0.14-0.24
			c0.06-0.07,0.13-0.13,0.21-0.18c0.06-0.03,0.13-0.07,0.19-0.08c0.07-0.03,0.14-0.04,0.22-0.06c0.03,0,0.05-0.01,0.08-0.01
			c0.03,0,0.05-0.01,0.08-0.01C54.93,51.02,54.95,51.02,54.97,51.03C54.95,51.04,54.96,51.04,54.97,51.03"/>
		<path fill="#FFFFFF" d="M57.81,51.03c0.28,0,0.52,0.03,0.71,0.09c0.19,0.07,0.34,0.18,0.44,0.36c0.03,0.04,0.05,0.08,0.07,0.13
			c0.02,0.04,0.03,0.09,0.05,0.15c0.01,0.03,0.01,0.06,0.01,0.08c0,0.03-0.01,0.05-0.02,0.07c-0.01,0.01-0.02,0.02-0.03,0.02
			c-0.01,0.01-0.03,0.01-0.03,0.02c-0.02,0.01-0.04,0.01-0.06,0.01s-0.04,0-0.06,0c-0.03,0.01-0.08,0.01-0.13,0
			c-0.05-0.01-0.08-0.02-0.11-0.03c-0.03-0.02-0.05-0.05-0.06-0.08c-0.01-0.03-0.03-0.07-0.04-0.09c-0.03-0.06-0.08-0.12-0.14-0.17
			c-0.04-0.03-0.09-0.05-0.14-0.07c-0.05-0.02-0.1-0.03-0.17-0.05c-0.02-0.01-0.04-0.01-0.06-0.01c-0.02,0-0.04,0-0.06,0
			c-0.03-0.01-0.05-0.01-0.08-0.01s-0.07,0-0.08,0.01h-0.03c-0.02,0.01-0.04,0.01-0.06,0.01s-0.04,0.01-0.06,0.01
			c-0.1,0.03-0.18,0.06-0.25,0.1c-0.07,0.04-0.11,0.12-0.13,0.22c-0.01,0.03-0.01,0.06,0,0.08c0.01,0.03,0.02,0.05,0.03,0.07
			c0.03,0.06,0.05,0.1,0.08,0.13c0.03,0.03,0.08,0.05,0.13,0.08c0.06,0.04,0.13,0.07,0.21,0.08c0.08,0.02,0.16,0.04,0.24,0.06
			c0.05,0.02,0.1,0.03,0.15,0.03s0.1,0.02,0.15,0.03c0.08,0.03,0.16,0.04,0.24,0.07c0.08,0.03,0.16,0.05,0.24,0.08
			c0.02,0.01,0.04,0.02,0.06,0.03c0.02,0.01,0.04,0.02,0.06,0.03c0.08,0.05,0.14,0.1,0.2,0.16c0.06,0.06,0.11,0.13,0.14,0.22
			c0.01,0.03,0.02,0.07,0.03,0.11c0.01,0.03,0.02,0.06,0.02,0.08c0,0.03,0,0.06,0,0.09v0.06c-0.01,0.03-0.01,0.06-0.01,0.08
			c0,0.03-0.01,0.06-0.01,0.08c-0.01,0.04-0.03,0.08-0.04,0.13c-0.02,0.04-0.03,0.08-0.05,0.1c-0.06,0.1-0.14,0.18-0.24,0.24
			c-0.1,0.06-0.21,0.11-0.33,0.15c-0.03,0.01-0.07,0.02-0.11,0.03c-0.03,0.01-0.08,0.02-0.11,0.03c-0.04,0.01-0.08,0.01-0.12,0.01
			s-0.08,0-0.12,0.01h-0.06c-0.02,0.01-0.05,0.01-0.08,0.01c-0.03,0-0.06,0-0.08-0.01h-0.07c-0.03-0.01-0.05-0.01-0.08-0.01
			c-0.03,0-0.05,0-0.07-0.01c-0.02-0.01-0.04-0.01-0.08-0.01c-0.03-0.01-0.06-0.02-0.09-0.02c-0.03-0.01-0.06-0.02-0.09-0.03
			c-0.12-0.04-0.23-0.08-0.32-0.14c-0.09-0.06-0.17-0.13-0.24-0.23c-0.03-0.05-0.07-0.1-0.09-0.16c-0.03-0.06-0.04-0.12-0.07-0.18
			c-0.01-0.03-0.01-0.05-0.01-0.08c0-0.03,0.01-0.06,0.02-0.08s0.03-0.03,0.06-0.05c0.02-0.01,0.05-0.02,0.08-0.02
			c0.03,0,0.07,0,0.1,0s0.07,0.01,0.1,0.02c0.03,0.01,0.06,0.02,0.07,0.02c0.03,0.02,0.04,0.05,0.06,0.08
			c0.01,0.03,0.03,0.07,0.04,0.1c0.04,0.08,0.09,0.15,0.16,0.2c0.05,0.03,0.1,0.07,0.16,0.08s0.12,0.04,0.18,0.06l0.13,0.02h0.03
			c0.03,0.01,0.07,0.01,0.11,0.01c0.04,0,0.08,0,0.12-0.01c0.03,0,0.05,0,0.07-0.01c0.03,0,0.05-0.01,0.07-0.01
			c0.03,0,0.04-0.01,0.07-0.01c0.12-0.03,0.2-0.08,0.27-0.13c0.07-0.05,0.11-0.13,0.14-0.26c0.01-0.02,0.01-0.04,0.01-0.07
			c0-0.03-0.01-0.04-0.01-0.05c-0.02-0.08-0.05-0.13-0.08-0.17c-0.03-0.03-0.08-0.08-0.13-0.1c-0.03-0.03-0.08-0.04-0.12-0.06
			s-0.08-0.03-0.13-0.05c-0.01,0-0.03-0.01-0.03-0.01c-0.01,0-0.02,0-0.03-0.01c-0.13-0.04-0.27-0.08-0.41-0.09
			c-0.14-0.03-0.28-0.06-0.4-0.11c-0.04-0.02-0.08-0.03-0.11-0.04c-0.03-0.01-0.07-0.03-0.1-0.05c-0.08-0.04-0.14-0.09-0.2-0.14
			c-0.06-0.06-0.11-0.13-0.14-0.2c-0.01-0.03-0.02-0.06-0.03-0.08c-0.01-0.03-0.01-0.06-0.02-0.08c-0.01-0.05-0.02-0.1-0.01-0.16
			c0-0.06,0.01-0.11,0.02-0.15c0.01-0.02,0.01-0.03,0.02-0.05c0-0.02,0.01-0.03,0.02-0.04c0.03-0.09,0.08-0.17,0.14-0.24
			c0.06-0.07,0.13-0.13,0.21-0.18c0.06-0.03,0.13-0.07,0.19-0.08c0.07-0.03,0.14-0.04,0.22-0.06c0.03,0,0.05-0.01,0.08-0.01
			c0.03,0,0.05-0.01,0.08-0.01C57.76,51.02,57.78,51.02,57.81,51.03C57.78,51.04,57.8,51.04,57.81,51.03"/>
		<path fill="#FFFFFF" d="M60.24,53.82c0,0.04,0,0.08,0,0.12c0,0.04-0.01,0.08-0.03,0.09c-0.01,0.03-0.03,0.04-0.05,0.04
			c-0.03,0.01-0.05,0.02-0.08,0.02h-0.08c-0.05,0-0.09,0-0.13-0.01c-0.03-0.01-0.07-0.03-0.08-0.06c-0.02-0.03-0.03-0.05-0.03-0.09
			v-0.11v-2.48v-0.13c0-0.04,0.01-0.08,0.03-0.1c0.01-0.02,0.03-0.03,0.05-0.03c0.02,0,0.04-0.01,0.07-0.02c0.01,0,0.02,0,0.03,0
			c0.01,0,0.02,0,0.03,0c0.05,0,0.1,0,0.15,0c0.05,0,0.09,0.02,0.11,0.05c0.02,0.03,0.03,0.05,0.03,0.09v0.12L60.24,53.82
			L60.24,53.82z M59.81,50.51c-0.03-0.03-0.05-0.07-0.05-0.13c0-0.06,0-0.12,0-0.18v-0.1c0-0.03,0.01-0.07,0.02-0.08
			c0.02-0.03,0.05-0.05,0.09-0.07c0.01-0.01,0.02-0.01,0.03,0c0.01,0,0.02,0,0.03,0c0.07,0,0.13,0,0.18,0.01
			c0.06,0,0.1,0.03,0.12,0.07c0.01,0.03,0.02,0.05,0.02,0.08v0.1c0,0.07,0,0.13,0,0.2c0,0.06-0.03,0.1-0.08,0.13
			c-0.02,0.01-0.04,0.01-0.06,0.01h-0.07h-0.13C59.87,50.54,59.83,50.53,59.81,50.51"/>
		<path fill="#FFFFFF" d="M61.85,51.03c0.28,0,0.52,0.03,0.71,0.09c0.19,0.07,0.34,0.18,0.44,0.36c0.03,0.04,0.05,0.08,0.07,0.13
			c0.02,0.04,0.03,0.09,0.05,0.15c0.01,0.03,0.01,0.06,0.01,0.08c0,0.03-0.01,0.05-0.02,0.07c-0.01,0.01-0.02,0.02-0.03,0.02
			c-0.01,0.01-0.03,0.01-0.03,0.02c-0.02,0.01-0.04,0.01-0.06,0.01c-0.02,0-0.04,0-0.06,0c-0.03,0.01-0.08,0.01-0.13,0
			c-0.05-0.01-0.08-0.02-0.11-0.03c-0.03-0.02-0.05-0.05-0.06-0.08c-0.01-0.03-0.03-0.07-0.04-0.09c-0.03-0.06-0.08-0.12-0.14-0.17
			c-0.04-0.03-0.09-0.05-0.14-0.07c-0.05-0.02-0.1-0.03-0.17-0.05c-0.02-0.01-0.04-0.01-0.06-0.01s-0.04,0-0.06,0
			c-0.03-0.01-0.05-0.01-0.08-0.01s-0.07,0-0.08,0.01h-0.03c-0.02,0.01-0.04,0.01-0.06,0.01c-0.02,0-0.04,0.01-0.06,0.01
			c-0.1,0.03-0.18,0.06-0.25,0.1c-0.07,0.04-0.11,0.12-0.13,0.22c-0.01,0.03-0.01,0.06,0,0.08c0.01,0.03,0.02,0.05,0.03,0.07
			c0.03,0.06,0.05,0.1,0.08,0.13c0.03,0.03,0.08,0.05,0.13,0.08c0.06,0.04,0.13,0.07,0.21,0.08c0.08,0.02,0.16,0.04,0.24,0.06
			c0.05,0.02,0.1,0.03,0.15,0.03c0.05,0.01,0.1,0.02,0.15,0.03c0.08,0.03,0.16,0.04,0.24,0.07c0.08,0.03,0.16,0.05,0.24,0.08
			c0.02,0.01,0.04,0.02,0.06,0.03c0.02,0.01,0.04,0.02,0.06,0.03c0.08,0.05,0.14,0.1,0.2,0.16c0.06,0.06,0.11,0.13,0.14,0.22
			c0.01,0.03,0.02,0.07,0.03,0.11c0.01,0.03,0.02,0.06,0.02,0.08c0,0.03,0,0.06,0,0.09v0.06c-0.01,0.03-0.01,0.06-0.01,0.08
			c0,0.03,0,0.06-0.01,0.08c-0.01,0.04-0.03,0.08-0.04,0.13c-0.02,0.04-0.03,0.08-0.05,0.1c-0.06,0.1-0.14,0.18-0.24,0.24
			c-0.1,0.06-0.21,0.11-0.33,0.15c-0.03,0.01-0.08,0.02-0.11,0.03c-0.03,0.01-0.08,0.02-0.11,0.03c-0.04,0.01-0.08,0.01-0.12,0.01
			c-0.04,0-0.08,0-0.12,0.01h-0.06c-0.02,0.01-0.05,0.01-0.08,0.01s-0.06,0-0.08-0.01h-0.07c-0.03-0.01-0.05-0.01-0.08-0.01
			s-0.05,0-0.07-0.01c-0.02-0.01-0.04-0.01-0.08-0.01c-0.03-0.01-0.06-0.02-0.09-0.02c-0.03-0.01-0.06-0.02-0.09-0.03
			c-0.12-0.04-0.23-0.08-0.32-0.14s-0.17-0.13-0.24-0.23c-0.03-0.05-0.07-0.1-0.09-0.16c-0.03-0.06-0.04-0.12-0.07-0.18
			c-0.01-0.03-0.01-0.05-0.01-0.08c0-0.03,0.01-0.06,0.02-0.08c0.01-0.02,0.03-0.03,0.06-0.05c0.02-0.01,0.05-0.02,0.08-0.02
			s0.07,0,0.11,0c0.03,0,0.07,0.01,0.1,0.02c0.03,0.01,0.06,0.02,0.07,0.02c0.03,0.02,0.04,0.05,0.06,0.08
			c0.01,0.03,0.03,0.07,0.04,0.1c0.04,0.08,0.09,0.15,0.16,0.2c0.05,0.03,0.1,0.07,0.16,0.08c0.06,0.02,0.12,0.04,0.18,0.06
			l0.13,0.02h0.03c0.03,0.01,0.07,0.01,0.11,0.01c0.04,0,0.08,0,0.12-0.01c0.03,0,0.05,0,0.07-0.01c0.03,0,0.05-0.01,0.07-0.01
			c0.03,0,0.04-0.01,0.07-0.01c0.12-0.03,0.2-0.08,0.27-0.13s0.11-0.13,0.14-0.26c0.01-0.02,0.01-0.04,0.01-0.07
			c0-0.03-0.01-0.04-0.01-0.05c-0.02-0.08-0.05-0.13-0.08-0.17c-0.03-0.03-0.08-0.08-0.13-0.1c-0.03-0.03-0.08-0.04-0.12-0.06
			c-0.04-0.02-0.08-0.03-0.13-0.05c-0.01,0-0.03-0.01-0.03-0.01s-0.02,0-0.03-0.01c-0.13-0.04-0.27-0.08-0.41-0.09
			c-0.14-0.03-0.28-0.06-0.4-0.11c-0.04-0.02-0.08-0.03-0.11-0.04s-0.07-0.03-0.1-0.05c-0.08-0.04-0.14-0.09-0.2-0.14
			c-0.06-0.06-0.11-0.13-0.14-0.2c-0.01-0.03-0.02-0.06-0.03-0.08c-0.01-0.03-0.01-0.06-0.02-0.08c-0.01-0.05-0.02-0.1-0.01-0.16
			c0-0.06,0.01-0.11,0.02-0.15c0.01-0.02,0.01-0.03,0.02-0.05c0-0.02,0.01-0.03,0.02-0.04c0.03-0.09,0.08-0.17,0.14-0.24
			c0.06-0.07,0.13-0.13,0.21-0.18c0.06-0.03,0.13-0.07,0.19-0.08c0.07-0.03,0.14-0.04,0.22-0.06c0.03,0,0.05-0.01,0.08-0.01
			c0.03,0,0.05-0.01,0.08-0.01C61.81,51.02,61.82,51.02,61.85,51.03C61.83,51.04,61.85,51.04,61.85,51.03"/>
		<path fill="#FFFFFF" d="M64.11,50.18c0.06,0,0.12,0,0.18,0s0.1,0.02,0.13,0.05c0.02,0.03,0.03,0.06,0.03,0.09
			c0,0.04,0,0.08,0,0.13v0.34c0,0.03,0,0.07,0,0.09c0,0.03,0,0.06,0.01,0.08c0.02,0.06,0.05,0.09,0.11,0.11
			c0.02,0,0.04,0.01,0.06,0.01h0.06c0.04,0,0.09,0,0.16,0c0.06,0,0.11,0,0.13,0.02c0.03,0.03,0.06,0.05,0.07,0.07
			s0.01,0.03,0.01,0.05v0.06c0,0.04,0,0.08-0.01,0.12c0,0.03-0.02,0.07-0.04,0.08c-0.03,0.02-0.06,0.03-0.09,0.03
			c-0.04,0-0.08,0-0.13,0s-0.09,0-0.13,0s-0.08,0.01-0.11,0.02c-0.03,0.01-0.05,0.03-0.06,0.06c-0.01,0.03-0.02,0.06-0.03,0.09
			c0,0.03-0.01,0.08,0,0.12c0,0.04,0,0.08,0,0.12v1.16c0,0.08,0,0.18,0,0.27s0.02,0.17,0.05,0.22c0.02,0.03,0.04,0.05,0.08,0.07
			c0.03,0.01,0.07,0.03,0.11,0.03c0.01,0,0.03,0.01,0.04,0c0.02,0,0.03,0,0.04,0h0.08c0.04,0,0.08,0,0.11,0.01
			c0.03,0.01,0.06,0.02,0.08,0.04c0.01,0.01,0.02,0.03,0.02,0.06c0.01,0.03,0.01,0.06,0.01,0.09s0,0.06,0,0.09
			c0,0.03-0.01,0.05-0.03,0.07c-0.02,0.03-0.04,0.05-0.08,0.06c-0.03,0.01-0.07,0.01-0.11,0.01c-0.04,0-0.08,0-0.11,0
			c-0.03,0-0.05,0-0.07,0c-0.03,0-0.04,0-0.07,0h-0.07c-0.02,0-0.04-0.01-0.06-0.01s-0.03,0-0.06,0c-0.08-0.02-0.14-0.04-0.2-0.07
			c-0.06-0.03-0.11-0.07-0.14-0.13c-0.05-0.08-0.08-0.18-0.09-0.29c-0.01-0.12-0.01-0.24-0.01-0.39v-1.53
			c-0.01-0.05-0.03-0.08-0.03-0.11c-0.01-0.03-0.04-0.04-0.08-0.06c-0.02,0-0.03,0-0.05,0c-0.02,0-0.03,0-0.05-0.01h-0.09
			c-0.05,0-0.09-0.01-0.13-0.02c-0.03-0.01-0.06-0.03-0.07-0.07c-0.01-0.02-0.02-0.03-0.02-0.05s0-0.04,0-0.06
			c0-0.05,0-0.1,0.01-0.13c0.01-0.03,0.03-0.07,0.07-0.08c0.04-0.02,0.1-0.02,0.17-0.01c0.07,0.01,0.13,0,0.17-0.01
			c0.03-0.02,0.06-0.05,0.08-0.08c0.01-0.03,0.01-0.05,0.01-0.08v-0.08v-0.36v-0.09c0-0.03,0.01-0.06,0.01-0.08
			c0.02-0.03,0.04-0.06,0.08-0.08c0.01,0,0.03,0,0.03,0C64.09,50.19,64.1,50.18,64.11,50.18"/>
		<path fill="#FFFFFF" d="M67.34,53.24c0.03-0.05,0.03-0.12,0.04-0.19c0-0.08,0-0.15,0-0.23c0-0.04,0-0.08-0.01-0.12
			c0-0.03-0.02-0.06-0.05-0.08c-0.01-0.01-0.04-0.01-0.08-0.01c-0.01,0.01-0.03,0.01-0.04,0.01s-0.03,0-0.05,0.01
			c-0.03,0.01-0.07,0.02-0.11,0.03c-0.04,0.01-0.08,0.02-0.12,0.03c-0.01,0-0.03,0-0.04,0s-0.03,0-0.04,0
			c-0.06,0.02-0.12,0.03-0.19,0.03c-0.07,0-0.13,0.01-0.19,0.03c-0.03,0.01-0.06,0.02-0.08,0.02c-0.03,0.01-0.05,0.02-0.08,0.02
			c-0.06,0.02-0.12,0.04-0.18,0.08c-0.06,0.03-0.1,0.07-0.14,0.11c-0.04,0.04-0.07,0.09-0.08,0.15c-0.02,0.06-0.03,0.13-0.03,0.22
			c0,0.04,0.01,0.08,0.03,0.11c0.02,0.03,0.03,0.07,0.05,0.09c0.03,0.04,0.08,0.08,0.13,0.11c0.05,0.03,0.11,0.05,0.17,0.08
			c0.02,0,0.04,0.01,0.06,0.01c0.02,0,0.04,0,0.06,0.01c0.03,0.01,0.06,0.01,0.1,0.02c0.04,0,0.08,0,0.1-0.01
			c0.03-0.01,0.05-0.01,0.07-0.01c0.03,0,0.05,0,0.07-0.01c0.03-0.01,0.06-0.02,0.09-0.02c0.03,0,0.06-0.01,0.08-0.03
			c0.11-0.05,0.21-0.1,0.29-0.17C67.24,53.44,67.3,53.35,67.34,53.24 M68.18,53.89c0.01,0.06,0.01,0.12-0.02,0.15
			c-0.03,0.04-0.06,0.07-0.09,0.09c-0.02,0.01-0.04,0.01-0.06,0.01c-0.03,0-0.04,0-0.07,0.01c-0.08,0.02-0.17,0.02-0.25-0.02
			c-0.08-0.03-0.14-0.07-0.18-0.11c-0.02-0.03-0.03-0.06-0.05-0.09c-0.02-0.03-0.03-0.07-0.06-0.09c-0.01-0.01-0.02-0.02-0.03-0.03
			c-0.01-0.01-0.03-0.01-0.04-0.01c-0.04,0.01-0.08,0.03-0.12,0.07c-0.03,0.03-0.08,0.06-0.11,0.08c-0.05,0.03-0.1,0.06-0.17,0.08
			c-0.06,0.03-0.12,0.05-0.18,0.07c-0.04,0.01-0.08,0.02-0.13,0.03c-0.04,0-0.09,0.01-0.13,0.02c-0.02,0.01-0.03,0.01-0.05,0.01
			h-0.04c-0.04,0.01-0.08,0.01-0.13,0h-0.05c-0.02,0-0.04-0.01-0.06-0.01c-0.02,0-0.03,0-0.05-0.01c-0.02,0-0.03-0.01-0.04,0
			c-0.01,0-0.02,0-0.03,0c-0.03-0.01-0.07-0.02-0.09-0.02c-0.03-0.01-0.06-0.02-0.08-0.03c-0.12-0.05-0.21-0.11-0.29-0.18
			c-0.08-0.07-0.13-0.15-0.18-0.27c-0.03-0.08-0.05-0.18-0.05-0.31v-0.13c0-0.02,0.01-0.04,0.01-0.06c0-0.03,0.01-0.04,0.01-0.07
			c0.02-0.04,0.03-0.08,0.05-0.13c0.02-0.04,0.03-0.08,0.06-0.12c0.07-0.12,0.17-0.2,0.29-0.25c0.12-0.05,0.25-0.1,0.39-0.14
			c0.06-0.02,0.11-0.03,0.17-0.03c0.06-0.01,0.12-0.02,0.18-0.03c0.03-0.01,0.05-0.01,0.08-0.01s0.05,0,0.08-0.01
			c0.03-0.01,0.06-0.02,0.08-0.02c0.03,0,0.06-0.01,0.08-0.02c0.1-0.03,0.19-0.04,0.28-0.06c0.08-0.02,0.15-0.06,0.2-0.13
			c0.03-0.03,0.04-0.07,0.06-0.12c0.02-0.05,0.02-0.1,0-0.16c-0.03-0.09-0.06-0.17-0.1-0.23c-0.04-0.05-0.11-0.1-0.19-0.13
			c-0.05-0.02-0.1-0.03-0.17-0.04c-0.07-0.01-0.13-0.01-0.2-0.01c-0.07,0-0.14,0-0.2,0.01c-0.07,0.01-0.13,0.02-0.17,0.03
			c-0.07,0.03-0.13,0.06-0.19,0.1c-0.03,0.03-0.06,0.05-0.08,0.09c-0.03,0.03-0.05,0.08-0.07,0.12c-0.01,0.03-0.03,0.07-0.03,0.1
			c-0.01,0.03-0.03,0.06-0.06,0.08c-0.02,0.01-0.04,0.02-0.08,0.03c-0.03,0.01-0.08,0.01-0.12,0.01c-0.04,0-0.08,0-0.12-0.01
			c-0.03-0.01-0.07-0.02-0.08-0.03c-0.02-0.01-0.03-0.03-0.03-0.06c-0.01-0.03-0.01-0.06,0-0.08c0.01-0.05,0.03-0.1,0.04-0.14
			c0.02-0.04,0.03-0.09,0.05-0.13c0.08-0.13,0.17-0.24,0.28-0.32c0.11-0.08,0.25-0.13,0.42-0.18c0.04-0.01,0.08-0.02,0.12-0.02
			s0.08-0.01,0.13-0.02c0.02,0,0.04-0.01,0.08,0c0.03,0,0.06,0,0.07-0.01c0.27-0.01,0.51,0.03,0.71,0.09
			c0.2,0.07,0.34,0.19,0.43,0.38c0.03,0.08,0.06,0.17,0.06,0.27c0.01,0.1,0.01,0.21,0.01,0.33v1.29c0,0.05,0,0.11,0.01,0.16
			c0,0.05,0.02,0.09,0.03,0.13c0.02,0.03,0.04,0.05,0.08,0.06c0.03,0.02,0.07,0.03,0.1,0.03s0.05,0.03,0.07,0.06
			c0.01,0.01,0.01,0.03,0.01,0.03C68.17,53.86,68.17,53.87,68.18,53.89"/>
		<path fill="#FFFFFF" d="M69.98,51.04c0.24-0.01,0.44,0.03,0.59,0.1c0.15,0.08,0.27,0.18,0.36,0.34c0.03,0.04,0.04,0.08,0.06,0.13
			c0.02,0.04,0.03,0.09,0.04,0.13c0.02,0.08,0.03,0.15,0.03,0.24c0,0.08,0.01,0.18,0.01,0.26v0.63v0.92c0,0.07,0,0.13,0,0.2
			s-0.03,0.11-0.08,0.13c-0.02,0.01-0.04,0.02-0.06,0.02c-0.03,0-0.04,0-0.07,0c-0.05,0-0.1,0-0.14,0c-0.05,0-0.08-0.02-0.1-0.05
			c-0.02-0.03-0.03-0.06-0.03-0.11v-0.13v-0.5v-0.95c0-0.11,0-0.21-0.01-0.31c0-0.1-0.03-0.19-0.05-0.27
			c-0.03-0.08-0.08-0.14-0.14-0.19c-0.06-0.05-0.13-0.08-0.22-0.12c-0.03-0.01-0.05-0.01-0.08-0.02c-0.03,0-0.05-0.01-0.08-0.02
			c-0.02,0-0.05-0.01-0.09,0c-0.04,0-0.07,0.01-0.08,0.01c-0.02,0.01-0.03,0.01-0.04,0.01c-0.01,0-0.03,0-0.04,0
			c-0.05,0.01-0.1,0.03-0.14,0.04c-0.04,0.02-0.08,0.03-0.13,0.06c-0.02,0.01-0.03,0.02-0.04,0.03c-0.01,0.01-0.03,0.02-0.04,0.03
			c-0.13,0.1-0.24,0.24-0.3,0.44c-0.01,0.03-0.02,0.07-0.03,0.09c-0.01,0.03-0.01,0.07-0.02,0.09c-0.01,0.02-0.01,0.04-0.01,0.06
			s0,0.03-0.01,0.05v0.13c-0.01,0.01-0.01,0.03,0,0.04c0,0.02,0,0.03,0,0.05v0.18v0.56v0.51v0.13c0,0.04-0.01,0.08-0.03,0.11
			c-0.02,0.03-0.05,0.05-0.1,0.05c-0.05,0-0.1,0-0.15,0c-0.03,0-0.06,0-0.08-0.01c-0.03,0-0.05-0.02-0.07-0.03
			c-0.03-0.02-0.05-0.06-0.05-0.11v-0.16v-0.69v-1.41v-0.36v-0.11c0-0.03,0.01-0.06,0.03-0.08c0.01-0.03,0.03-0.04,0.06-0.05
			c0.02,0,0.04-0.01,0.07-0.01c0.03-0.01,0.06-0.01,0.09-0.01s0.06,0,0.09,0.01c0.03,0,0.05,0.01,0.06,0.02
			c0.04,0.03,0.06,0.06,0.06,0.1c-0.01,0.04,0,0.08,0.02,0.13c0.01,0.03,0.03,0.04,0.05,0.06c0.05,0,0.08-0.02,0.12-0.05
			c0.03-0.04,0.06-0.07,0.09-0.09c0.06-0.04,0.11-0.08,0.17-0.11c0.06-0.03,0.12-0.06,0.19-0.08c0.03-0.01,0.06-0.02,0.09-0.02
			s0.08-0.01,0.11-0.02c0.02,0,0.04-0.01,0.06-0.01H69.98z"/>
		<path fill="#FFFFFF" d="M72.93,51.03c0.29,0,0.53,0.04,0.72,0.13c0.19,0.08,0.34,0.22,0.46,0.39c0.05,0.08,0.09,0.18,0.13,0.29
			c0.01,0.02,0.02,0.04,0.02,0.08s0,0.06-0.01,0.08c-0.01,0.02-0.03,0.03-0.06,0.05c-0.01,0.01-0.03,0.01-0.03,0.01
			c-0.01,0-0.03,0-0.04,0s-0.03,0.01-0.05,0c-0.02,0-0.03,0-0.05,0c-0.04,0-0.08,0-0.13,0s-0.08-0.01-0.1-0.03
			c-0.03-0.03-0.05-0.06-0.07-0.1c-0.01-0.04-0.03-0.08-0.05-0.11c-0.06-0.1-0.13-0.18-0.23-0.24c-0.03-0.02-0.07-0.03-0.1-0.05
			s-0.08-0.03-0.11-0.04c-0.06-0.02-0.13-0.03-0.22-0.03c-0.09,0-0.16,0.01-0.23,0.03c-0.03,0.01-0.05,0.02-0.08,0.02
			c-0.03,0-0.05,0.01-0.08,0.02c-0.1,0.04-0.19,0.1-0.27,0.18s-0.13,0.16-0.18,0.26c-0.02,0.03-0.03,0.07-0.04,0.11
			c-0.01,0.03-0.03,0.08-0.03,0.12l-0.03,0.16c0,0.02-0.01,0.04,0,0.07c0,0.03,0,0.04-0.01,0.07v0.05c0,0.02-0.01,0.04-0.01,0.08
			s0,0.06,0.01,0.08c0,0.02,0,0.04,0,0.06c0,0.02,0,0.04,0,0.06s0.01,0.04,0.01,0.08c0.01,0.03,0.02,0.07,0.02,0.1
			c0.01,0.03,0.02,0.07,0.02,0.1c0.04,0.13,0.09,0.24,0.15,0.33c0.06,0.09,0.13,0.17,0.24,0.24c0.03,0.02,0.07,0.03,0.11,0.05
			c0.03,0.02,0.08,0.03,0.12,0.05c0.02,0,0.03,0.01,0.05,0.01c0.01,0,0.03,0,0.05,0.01c0.01,0,0.03,0.01,0.06,0.01h0.07
			c0,0,0.01,0.01,0.03,0.01c0.01,0,0.02-0.01,0.03,0c0.01,0,0.03,0,0.03,0c0.03-0.01,0.05-0.01,0.08-0.01c0.03,0,0.05,0,0.08-0.01
			c0.1-0.03,0.18-0.07,0.26-0.12c0.08-0.05,0.13-0.11,0.18-0.19c0.02-0.03,0.03-0.07,0.05-0.1c0.02-0.03,0.03-0.07,0.05-0.11
			c0.01-0.03,0.02-0.06,0.03-0.09s0.03-0.05,0.06-0.08c0.01-0.01,0.03-0.02,0.07-0.03c0.03-0.01,0.08-0.01,0.12-0.01s0.08,0,0.12,0
			c0.03,0,0.07,0.01,0.08,0.03c0.03,0.02,0.04,0.04,0.04,0.07c0.01,0.03,0.01,0.07,0,0.1c-0.02,0.06-0.04,0.12-0.06,0.17
			c-0.02,0.05-0.04,0.1-0.07,0.15c-0.06,0.12-0.13,0.22-0.22,0.31s-0.19,0.16-0.32,0.22c-0.03,0.02-0.07,0.03-0.1,0.04
			c-0.03,0.01-0.08,0.02-0.11,0.03c-0.04,0.02-0.08,0.03-0.13,0.03c-0.04,0-0.08,0.01-0.13,0.02c-0.02,0.01-0.03,0.01-0.05,0.01
			c-0.02,0-0.03,0-0.05,0h-0.05c-0.03,0-0.06,0-0.09,0s-0.06,0-0.08-0.01h-0.03l-0.14-0.02c-0.05-0.02-0.1-0.03-0.14-0.04
			c-0.05-0.01-0.09-0.03-0.13-0.05c-0.14-0.06-0.25-0.13-0.34-0.22c-0.09-0.08-0.18-0.19-0.25-0.32c-0.02-0.03-0.03-0.07-0.05-0.11
			c-0.02-0.04-0.03-0.08-0.05-0.12c-0.02-0.04-0.03-0.08-0.04-0.13c-0.01-0.05-0.02-0.09-0.03-0.14c0-0.02-0.01-0.03-0.01-0.05
			s0-0.03-0.01-0.05c-0.01-0.03-0.01-0.05-0.01-0.08c0-0.03,0-0.05-0.01-0.08v-0.06c0-0.02-0.01-0.05-0.01-0.08s0-0.06,0.01-0.08
			c0-0.02,0.01-0.03,0-0.05c0-0.02,0-0.03,0-0.05c0.01-0.03,0.01-0.06,0.01-0.08c0-0.03,0-0.05,0.01-0.08
			c0.02-0.07,0.03-0.13,0.04-0.2s0.03-0.13,0.05-0.18c0.08-0.2,0.18-0.37,0.3-0.49c0.12-0.13,0.28-0.23,0.48-0.31
			c0.04-0.02,0.09-0.03,0.14-0.04c0.05-0.01,0.1-0.02,0.16-0.03c0.03,0,0.06-0.01,0.08-0.01C72.87,51.04,72.9,51.03,72.93,51.03"/>
		<path fill="#FFFFFF" d="M76.83,52.28c0.01-0.02,0.03-0.03,0.03-0.06c0.01-0.03,0.01-0.05,0-0.08c-0.03-0.08-0.06-0.17-0.1-0.24
			c-0.06-0.09-0.12-0.17-0.18-0.23c-0.07-0.06-0.15-0.12-0.26-0.16c-0.03-0.01-0.05-0.02-0.08-0.02c-0.03-0.01-0.06-0.02-0.08-0.02
			c-0.03-0.01-0.07-0.01-0.1-0.01h-0.1c-0.01,0.01-0.03,0.01-0.04,0.01s-0.03,0-0.04,0c-0.03,0.01-0.06,0.02-0.09,0.02
			c-0.03,0.01-0.06,0.02-0.08,0.02c-0.11,0.05-0.2,0.11-0.27,0.18c-0.07,0.07-0.13,0.16-0.18,0.26c-0.01,0.02-0.03,0.04-0.03,0.08
			c-0.01,0.03-0.03,0.06-0.03,0.1c-0.01,0.03-0.01,0.07-0.01,0.1c0,0.03,0.02,0.06,0.04,0.07c0.03,0.03,0.08,0.03,0.16,0.03
			c0.08,0,0.14,0,0.19,0h0.89c0.06,0,0.13,0,0.21,0C76.74,52.33,76.79,52.31,76.83,52.28 M77.39,52.48c0.01,0.04,0.01,0.08,0,0.13
			s-0.02,0.08-0.04,0.1c-0.02,0.02-0.05,0.03-0.08,0.03s-0.08,0.01-0.13,0.01c-0.05,0-0.09,0-0.14,0s-0.08,0-0.13,0h-1.49
			c-0.03,0-0.06,0-0.09,0s-0.06,0.01-0.08,0.02c-0.02,0.01-0.03,0.03-0.05,0.05c-0.01,0.01-0.02,0.03-0.03,0.05
			c-0.01,0.03-0.01,0.04,0,0.06c0,0.02,0.01,0.03,0.01,0.05s0,0.03,0.01,0.05c0.01,0.03,0.02,0.07,0.03,0.09
			c0.01,0.03,0.02,0.07,0.03,0.09c0.09,0.21,0.24,0.36,0.44,0.45c0.03,0.01,0.05,0.03,0.08,0.03c0.03,0.01,0.05,0.02,0.08,0.03
			c0.01,0,0.03,0.01,0.06,0.01c0.06,0.02,0.13,0.03,0.22,0.03s0.16-0.01,0.22-0.03c0.05-0.02,0.1-0.03,0.15-0.05
			c0.04-0.02,0.08-0.04,0.13-0.07s0.08-0.06,0.11-0.09c0.03-0.03,0.06-0.08,0.08-0.12c0.03-0.04,0.04-0.08,0.06-0.13
			c0.02-0.04,0.05-0.08,0.09-0.09c0.02-0.01,0.04-0.02,0.08-0.02s0.07-0.01,0.11,0c0.03,0,0.07,0.01,0.1,0.01s0.05,0.01,0.07,0.03
			c0.04,0.03,0.05,0.08,0.03,0.13c-0.03,0.11-0.08,0.2-0.13,0.28c-0.08,0.13-0.17,0.23-0.27,0.3c-0.1,0.08-0.23,0.14-0.38,0.19
			c-0.04,0.02-0.08,0.03-0.12,0.03c-0.04,0.01-0.08,0.02-0.13,0.02c-0.02,0-0.04,0.01-0.06,0.01c-0.02,0-0.03,0-0.06,0.01h-0.06
			c-0.02,0-0.04,0.01-0.07,0.01s-0.04,0-0.06-0.01h-0.05c-0.02-0.01-0.03-0.01-0.05-0.01c-0.02,0-0.03,0-0.05-0.01
			c-0.02,0-0.04-0.01-0.07-0.01c-0.03,0-0.04-0.01-0.07-0.01c-0.03-0.01-0.07-0.02-0.11-0.03c-0.03-0.01-0.07-0.02-0.1-0.03
			c-0.02-0.01-0.03-0.02-0.04-0.02c-0.01,0-0.03-0.01-0.04-0.02c-0.06-0.03-0.12-0.06-0.18-0.1c-0.11-0.08-0.21-0.17-0.29-0.27
			c-0.08-0.11-0.14-0.23-0.2-0.36c-0.02-0.04-0.03-0.08-0.04-0.13c-0.01-0.05-0.03-0.09-0.04-0.14c-0.01-0.02-0.01-0.03-0.01-0.04
			c0-0.01,0-0.03-0.01-0.05c-0.01-0.03-0.02-0.07-0.02-0.1c0-0.03-0.01-0.07-0.02-0.11v-0.08c0-0.02-0.01-0.04-0.01-0.07
			c0-0.03,0-0.05,0-0.08v-0.07c0.01-0.02,0.01-0.04,0.01-0.06c0-0.03,0-0.04,0-0.06c0.02-0.06,0.03-0.13,0.04-0.18
			c0.01-0.06,0.03-0.12,0.05-0.18c0.02-0.04,0.04-0.08,0.06-0.13c0.02-0.04,0.04-0.08,0.06-0.13c0.08-0.13,0.18-0.25,0.29-0.35
			s0.24-0.18,0.4-0.25c0.05-0.02,0.09-0.03,0.14-0.04c0.05-0.01,0.1-0.02,0.15-0.03c0.02,0,0.03-0.01,0.05-0.01
			c0.02,0,0.03,0,0.05,0c0.01,0,0.02,0,0.03,0c0.01,0,0.03,0,0.03-0.01c0.17,0,0.3,0.02,0.43,0.05c0.12,0.03,0.23,0.08,0.33,0.15
			c0.02,0.01,0.03,0.02,0.05,0.03c0.01,0.02,0.03,0.03,0.04,0.03c0.03,0.03,0.07,0.05,0.09,0.08c0.03,0.03,0.06,0.06,0.08,0.09
			c0.06,0.08,0.12,0.16,0.16,0.24c0.03,0.04,0.05,0.09,0.07,0.14c0.02,0.05,0.03,0.1,0.05,0.15c0.02,0.05,0.03,0.1,0.04,0.16
			c0.01,0.05,0.03,0.11,0.04,0.16c0,0.03,0.01,0.06,0.01,0.08C77.38,52.43,77.39,52.45,77.39,52.48"/>
		<path fill="#FFFFFF" d="M28.52,44.09c0-3.42-2.77-6.18-6.18-6.18v5.05c0,0.6,0.49,1.09,1.09,1.1L28.52,44.09z"/>
		<path fill="#FFFFFF" d="M22.34,50.93c3.42,0,6.18-2.77,6.18-6.18h-5.09c-0.6,0-1.09,0.49-1.09,1.09
			C22.34,45.85,22.34,50.93,22.34,50.93z"/>
		<path fill="#FFFFFF" d="M15.43,37.86c0,3.41,2.77,6.18,6.18,6.18v-5.05c0-0.6-0.49-1.09-1.09-1.1L15.43,37.86z"/>
		<path fill="#FFFFFF" d="M15.43,50.93c3.42,0,6.18-2.77,6.18-6.18h-5.09c-0.6,0-1.09,0.49-1.09,1.09
			C15.43,45.85,15.43,50.93,15.43,50.93z"/>
	</g>
</g>
</svg>
