<?xml version="1.0" encoding="utf-8"?>
<!-- Generator: Adobe Illustrator 27.0.0, SVG Export Plug-In . SVG Version: 6.00 Build 0)  -->
<svg version="1.1" id="Calque_1" xmlns="http://www.w3.org/2000/svg" xmlns:xlink="http://www.w3.org/1999/xlink" x="0px" y="0px"
	 viewBox="0 0 92.12 92.12" enable-background="new 0 0 92.12 92.12" xml:space="preserve">
<g>
	
		<line fill="none" stroke="#FFFFFF" stroke-width="0.3888" stroke-linecap="round" stroke-linejoin="round" stroke-miterlimit="10" x1="46.96" y1="35.68" x2="49.59" y2="35.68"/>
	
		<line fill="none" stroke="#FFFFFF" stroke-width="0.3888" stroke-linecap="round" stroke-linejoin="round" stroke-miterlimit="10" x1="41.23" y1="35.68" x2="42.88" y2="35.68"/>
	
		<line fill="none" stroke="#FFFFFF" stroke-width="0.3888" stroke-linecap="round" stroke-linejoin="round" stroke-miterlimit="10" x1="39.44" y1="32.96" x2="43.43" y2="32.96"/>
	
		<line fill="none" stroke="#FFFFFF" stroke-width="0.3888" stroke-linecap="round" stroke-linejoin="round" stroke-miterlimit="10" x1="51.12" y1="32.96" x2="53.02" y2="32.96"/>
	
		<line fill="none" stroke="#FFFFFF" stroke-width="0.3888" stroke-linecap="round" stroke-linejoin="round" stroke-miterlimit="10" x1="43.35" y1="38.35" x2="45.57" y2="38.35"/>
	
		<line fill="none" stroke="#FFFFFF" stroke-width="0.3888" stroke-linecap="round" stroke-linejoin="round" stroke-miterlimit="10" x1="50.1" y1="38.35" x2="51.78" y2="38.35"/>
	
		<line fill="none" stroke="#FFFFFF" stroke-width="0.3888" stroke-linecap="round" stroke-linejoin="round" stroke-miterlimit="10" x1="46.96" y1="41.01" x2="51.12" y2="41.01"/>
	
		<line fill="none" stroke="#FFFFFF" stroke-width="0.3888" stroke-linecap="round" stroke-linejoin="round" stroke-miterlimit="10" x1="40.57" y1="41.01" x2="43.3" y2="41.01"/>
	
		<line fill="none" stroke="#FFFFFF" stroke-width="0.3888" stroke-linecap="round" stroke-linejoin="round" stroke-miterlimit="10" x1="43.43" y1="43.67" x2="45.29" y2="43.67"/>
	
		<line fill="none" stroke="#FFFFFF" stroke-width="0.3888" stroke-linecap="round" stroke-linejoin="round" stroke-miterlimit="10" x1="46.96" y1="46.33" x2="51.5" y2="46.33"/>
	
		<line fill="none" stroke="#FFFFFF" stroke-width="0.3888" stroke-linecap="round" stroke-linejoin="round" stroke-miterlimit="10" x1="40.07" y1="46.33" x2="41.61" y2="46.33"/>
	
		<line fill="none" stroke="#FFFFFF" stroke-width="0.3888" stroke-linecap="round" stroke-linejoin="round" stroke-miterlimit="10" x1="43.43" y1="48.99" x2="47.31" y2="48.99"/>
	
		<line fill="none" stroke="#FFFFFF" stroke-width="0.3888" stroke-linecap="round" stroke-linejoin="round" stroke-miterlimit="10" x1="45.57" y1="30.24" x2="48.16" y2="30.24"/>
	
		<line fill="none" stroke="#FFFFFF" stroke-width="0.3888" stroke-linecap="round" stroke-linejoin="round" stroke-miterlimit="10" x1="46.37" y1="30.24" x2="46.37" y2="31.91"/>
	
		<line fill="none" stroke="#FFFFFF" stroke-width="0.3888" stroke-linecap="round" stroke-linejoin="round" stroke-miterlimit="10" x1="42.42" y1="31.6" x2="42.42" y2="32.96"/>
	
		<line fill="none" stroke="#FFFFFF" stroke-width="0.3888" stroke-linecap="round" stroke-linejoin="round" stroke-miterlimit="10" x1="44.4" y1="38.6" x2="44.4" y2="39.81"/>
	
		<line fill="none" stroke="#FFFFFF" stroke-width="0.3888" stroke-linecap="round" stroke-linejoin="round" stroke-miterlimit="10" x1="48.33" y1="44.83" x2="48.33" y2="46.33"/>
	
		<line fill="none" stroke="#FFFFFF" stroke-width="0.3888" stroke-linecap="round" stroke-linejoin="round" stroke-miterlimit="10" x1="48.33" y1="50.21" x2="48.33" y2="51.65"/>
	
		<line fill="none" stroke="#FFFFFF" stroke-width="0.3888" stroke-linecap="round" stroke-linejoin="round" stroke-miterlimit="10" x1="48.33" y1="34.41" x2="48.33" y2="35.68"/>
	
		<line fill="none" stroke="#FFFFFF" stroke-width="0.3888" stroke-linecap="round" stroke-linejoin="round" stroke-miterlimit="10" x1="44.4" y1="48.99" x2="44.4" y2="50.44"/>
	
		<line fill="none" stroke="#FFFFFF" stroke-width="0.3888" stroke-linecap="round" stroke-linejoin="round" stroke-miterlimit="10" x1="50.31" y1="41.01" x2="50.31" y2="42.34"/>
	<path fill="none" stroke="#FFFFFF" stroke-linecap="round" stroke-linejoin="round" stroke-miterlimit="10" d="M62.15,37.79
		c0-9.06-7.64-16.34-16.82-15.75c-7.7,0.5-14.01,6.65-14.68,14.33c-0.58,6.59,2.91,12.43,8.23,15.3c0.27,0.15,0.61-0.04,0.64-0.34
		l1.62-15.46c0.01-0.06-0.01-0.14-0.04-0.19l-1.64-2.66c-0.02-0.06-0.03-0.1-0.05-0.16v-4.78c0-0.17,0.14-0.3,0.3-0.3h2.58
		c0.17,0,0.3,0.14,0.3,0.3v1.85c0,0.17,0.14,0.3,0.3,0.3h0.25c0.17,0,0.3-0.14,0.3-0.3v-1.85c0-0.17,0.14-0.3,0.3-0.3h5.23
		c0.17,0,0.3,0.14,0.3,0.3v1.85c0,0.17,0.14,0.3,0.3,0.3h0.25c0.17,0,0.3-0.14,0.3-0.3v-1.85c0-0.17,0.14-0.3,0.3-0.3h2.58
		c0.17,0,0.3,0.14,0.3,0.3v4.78c-0.02,0.06-0.03,0.1-0.05,0.16l-1.64,2.66c-0.03,0.06-0.05,0.13-0.04,0.19l1.62,15.46
		c0.03,0.31,0.37,0.5,0.64,0.35C58.8,49.01,62.15,43.79,62.15,37.79z"/>
	<g>
		<path fill="#FFFFFF" d="M31.65,66.02c0.02-0.1,0.05-0.25,0.06-0.45c0.02-0.2,0.03-0.38,0.06-0.56l-0.02-0.04
			c-0.12,0.16-0.26,0.32-0.42,0.48c-0.16,0.15-0.34,0.3-0.54,0.42c-0.19,0.12-0.4,0.22-0.62,0.3c-0.22,0.07-0.46,0.11-0.7,0.11
			c-0.28,0-0.53-0.05-0.75-0.15c-0.22-0.1-0.4-0.23-0.54-0.4s-0.26-0.36-0.33-0.58s-0.11-0.45-0.11-0.69c0-0.34,0.08-0.63,0.23-0.88
			c0.15-0.25,0.36-0.46,0.62-0.62c0.23-0.14,0.51-0.26,0.84-0.36c0.32-0.09,0.63-0.16,0.94-0.2c0.3-0.04,0.58-0.06,0.82-0.06
			c0.25,0,0.41,0,0.49,0h0.19c-0.01-0.34-0.02-0.61-0.06-0.8c-0.02-0.2-0.06-0.36-0.11-0.49c-0.1-0.27-0.27-0.47-0.52-0.59
			c-0.25-0.12-0.54-0.18-0.89-0.18c-0.14,0-0.3,0.02-0.47,0.04c-0.17,0.02-0.33,0.08-0.48,0.15c-0.15,0.07-0.28,0.18-0.38,0.3
			c-0.11,0.13-0.18,0.3-0.19,0.51l-0.06,0.04h-0.3l-0.12-0.99l0.04-0.08c0.05-0.06,0.14-0.11,0.29-0.18
			c0.14-0.06,0.31-0.13,0.51-0.18c0.19-0.06,0.42-0.11,0.66-0.15c0.24-0.04,0.48-0.06,0.71-0.06c0.33,0,0.63,0.04,0.91,0.13
			c0.28,0.09,0.52,0.22,0.73,0.38c0.21,0.18,0.37,0.38,0.48,0.65c0.12,0.26,0.18,0.56,0.18,0.9c0,0.38,0,0.72-0.01,1.02
			c-0.01,0.3-0.01,0.57-0.02,0.82c-0.01,0.25-0.02,0.5-0.02,0.74c-0.01,0.24-0.01,0.5-0.01,0.77c0.02,0.21,0.04,0.36,0.07,0.46
			c0.02,0.1,0.07,0.17,0.14,0.21c0.07,0.07,0.18,0.11,0.32,0.13c0.14,0.02,0.28,0.02,0.43,0.02l0.06,0.06l0.02,0.19l-0.02,0.06
			c-0.16-0.02-0.34-0.04-0.53-0.04c-0.19,0-0.38,0-0.56,0c-0.34,0-0.66,0.01-0.94,0.02L31.65,66.02z M31.65,64.55
			c0.02-0.05,0.06-0.1,0.09-0.16c0.03-0.06,0.06-0.14,0.06-0.23l0.07-1.36h-0.12c-0.36,0-0.73,0.02-1.09,0.06
			c-0.36,0.04-0.69,0.12-0.98,0.24c-0.29,0.12-0.52,0.28-0.7,0.49c-0.18,0.21-0.27,0.48-0.27,0.8c0,0.34,0.1,0.62,0.3,0.82
			c0.2,0.21,0.46,0.3,0.78,0.3c0.19,0,0.38-0.03,0.57-0.1c0.19-0.06,0.37-0.14,0.54-0.25c0.17-0.1,0.32-0.21,0.45-0.31
			C31.47,64.75,31.57,64.65,31.65,64.55z"/>
		<path fill="#FFFFFF" d="M35.86,61.02c0.23-0.39,0.54-0.72,0.91-0.98c0.37-0.26,0.83-0.39,1.39-0.39c0.26,0,0.51,0.04,0.76,0.11
			c0.26,0.07,0.49,0.18,0.7,0.34c0.22,0.15,0.39,0.35,0.53,0.59c0.14,0.24,0.23,0.52,0.28,0.85c0.02,0.23,0.04,0.49,0.05,0.75
			c0.01,0.26,0.01,0.53,0.01,0.79c0,0.33,0,0.66,0.01,0.98c0.01,0.33,0.01,0.66,0.01,0.98c0.02,0.21,0.04,0.36,0.07,0.46
			c0.02,0.1,0.07,0.17,0.12,0.21c0.08,0.07,0.19,0.11,0.34,0.13c0.14,0.02,0.28,0.02,0.43,0.02l0.04,0.06l0.02,0.19l-0.02,0.06
			c-0.15-0.02-0.33-0.04-0.52-0.04c-0.19,0-0.38,0-0.56,0c-0.34,0-0.66,0.01-0.94,0.02l-0.1-0.14c0.04-0.12,0.06-0.27,0.08-0.46
			c0.02-0.19,0.03-0.36,0.04-0.5c0.02-0.38,0.03-0.75,0.04-1.12c0.01-0.37,0.02-0.67,0.02-0.92c0-0.21-0.01-0.43-0.02-0.68
			c-0.02-0.25-0.04-0.46-0.09-0.64c-0.09-0.42-0.28-0.74-0.56-0.95c-0.28-0.21-0.61-0.31-0.98-0.31c-0.3,0-0.58,0.06-0.84,0.19
			c-0.26,0.13-0.48,0.28-0.66,0.47c-0.18,0.18-0.33,0.38-0.43,0.58c-0.1,0.21-0.16,0.38-0.16,0.52v1.54c0,0.2,0,0.36,0,0.49
			c0,0.13,0,0.24,0.01,0.33s0.01,0.18,0.02,0.25c0.01,0.08,0.02,0.16,0.02,0.25c0.02,0.19,0.04,0.34,0.06,0.43
			c0.02,0.1,0.07,0.18,0.14,0.24c0.07,0.06,0.18,0.1,0.3,0.12c0.13,0.02,0.26,0.02,0.4,0.02l0.07,0.07l0.02,0.18l-0.02,0.06
			c-0.06,0-0.16-0.01-0.29-0.02c-0.13-0.01-0.26-0.02-0.41-0.02s-0.28,0-0.41,0c-0.13,0-0.22,0-0.29,0h-0.19c-0.06,0-0.16,0-0.3,0
			c-0.13,0-0.26,0-0.41,0s-0.28,0-0.41,0c-0.13,0-0.23,0-0.3,0l-0.02-0.02l0.02-0.19l0.06-0.06c0.14,0,0.29-0.01,0.43-0.02
			c0.14-0.02,0.25-0.06,0.32-0.13c0.07-0.06,0.12-0.14,0.14-0.25c0.02-0.1,0.04-0.24,0.06-0.42c0.01-0.14,0.02-0.3,0.02-0.44
			c0.01-0.15,0.02-0.38,0.02-0.71v-1.67c0-0.19,0-0.35,0-0.48c0-0.13,0-0.25-0.01-0.34c-0.01-0.1-0.01-0.19-0.02-0.27
			c-0.01-0.08-0.01-0.17-0.02-0.26c-0.02-0.1-0.05-0.19-0.08-0.26c-0.04-0.08-0.07-0.13-0.1-0.16c-0.09-0.11-0.21-0.18-0.34-0.2
			c-0.14-0.02-0.28-0.03-0.42-0.03l-0.06-0.06v-0.19l0.06-0.05h0.25c0.15,0,0.35,0,0.58,0s0.44-0.02,0.62-0.04l0.48-0.07l0.08,0.11
			c-0.04,0.1-0.07,0.26-0.09,0.47c-0.02,0.21-0.03,0.41-0.04,0.6L35.86,61.02z"/>
		<path fill="#FFFFFF" d="M46.72,66c0.02-0.1,0.06-0.25,0.07-0.45c0.02-0.2,0.04-0.38,0.06-0.53l-0.02-0.06
			c-0.26,0.38-0.57,0.69-0.94,0.93c-0.38,0.23-0.8,0.35-1.28,0.35c-0.52,0-0.97-0.09-1.34-0.27s-0.69-0.42-0.93-0.72
			c-0.24-0.3-0.42-0.64-0.54-1.02c-0.12-0.38-0.18-0.78-0.18-1.21c0-0.62,0.1-1.14,0.29-1.57c0.19-0.43,0.43-0.78,0.72-1.05
			c0.29-0.26,0.61-0.46,0.96-0.58c0.35-0.12,0.68-0.18,1-0.18c0.43,0,0.86,0.1,1.26,0.3c0.4,0.19,0.74,0.52,1.02,0.98l0.02-0.06
			c-0.02-0.21-0.02-0.41-0.02-0.61c0-0.19,0-0.4,0-0.61c0-0.37,0-0.11,0-0.37s-0.02-0.36-0.02-0.5c-0.01-0.14-0.01-0.29-0.02-0.43
			c-0.01-0.1-0.03-0.18-0.07-0.26s-0.07-0.13-0.1-0.16c-0.09-0.1-0.21-0.16-0.34-0.19c-0.14-0.02-0.28-0.04-0.42-0.04l-0.06-0.06
			v-0.18l0.06-0.06h0.25c0.15,0,0.35,0,0.58,0s0.44-0.02,0.62-0.04l0.48-0.07l0.08,0.12c-0.02,0.04-0.03,0.1-0.05,0.2
			c-0.02,0.1-0.02,0.2-0.02,0.3c-0.01,0.11-0.01,0.22-0.02,0.31c-0.01,0.1-0.01,0.18-0.01,0.23c0,0.14-0.02,0.79-0.02,1.17v2.96
			c0,0.38,0,0.7,0.01,0.94c0.01,0.25,0.01,0.46,0.02,0.62c0.01,0.18,0.01,0.32,0.02,0.45c0.01,0.13,0.01,0.27,0.02,0.43
			c0.02,0.21,0.04,0.36,0.07,0.46c0.02,0.1,0.07,0.17,0.12,0.21c0.08,0.07,0.19,0.11,0.33,0.13c0.14,0.02,0.28,0.02,0.42,0.02
			l0.06,0.06l0.02,0.19l-0.02,0.06c-0.16-0.02-0.34-0.04-0.52-0.04c-0.18,0-0.38,0-0.57,0c-0.34,0-0.65,0.01-0.93,0.02L46.72,66z
			 M42.67,62.99c0,0.31,0.04,0.62,0.12,0.91s0.21,0.57,0.37,0.8c0.16,0.23,0.37,0.42,0.62,0.56c0.26,0.14,0.56,0.21,0.91,0.21
			c0.34,0,0.64-0.06,0.9-0.19c0.26-0.13,0.5-0.28,0.67-0.46c0.18-0.18,0.33-0.37,0.43-0.57c0.1-0.2,0.16-0.37,0.17-0.52v-1.51
			c-0.02-0.14-0.07-0.32-0.17-0.53c-0.1-0.21-0.23-0.41-0.41-0.61c-0.18-0.19-0.39-0.36-0.66-0.5c-0.26-0.14-0.57-0.21-0.92-0.21
			c-0.36,0-0.67,0.07-0.94,0.22c-0.26,0.15-0.47,0.34-0.64,0.59s-0.29,0.52-0.37,0.84C42.71,62.35,42.67,62.67,42.67,62.99z"/>
		<path fill="#FFFFFF" d="M55.15,62.47l-0.22,0.1c-0.49,0-0.99,0-1.51,0c-0.52,0-1.02,0-1.53,0h-1.61
			c-0.01,0.06-0.02,0.13-0.02,0.18s0,0.12,0,0.17c0,0.34,0.05,0.68,0.15,0.99c0.1,0.31,0.26,0.59,0.47,0.82
			c0.22,0.24,0.49,0.42,0.82,0.57c0.34,0.14,0.74,0.21,1.22,0.21c0.28,0,0.58-0.03,0.9-0.09s0.62-0.17,0.89-0.32l0.14,0.08v0.25
			l-0.14,0.15c-0.22,0.18-0.53,0.33-0.93,0.47c-0.4,0.14-0.84,0.21-1.34,0.21c-0.48,0-0.92-0.08-1.31-0.24
			c-0.39-0.16-0.74-0.38-1.02-0.67c-0.29-0.29-0.51-0.63-0.66-1.03c-0.16-0.4-0.24-0.84-0.24-1.34s0.08-0.95,0.25-1.36
			c0.16-0.41,0.38-0.76,0.67-1.05c0.29-0.29,0.62-0.52,1.01-0.68c0.38-0.16,0.8-0.25,1.25-0.25c0.23,0,0.5,0.03,0.8,0.1
			c0.3,0.06,0.58,0.18,0.85,0.36c0.27,0.18,0.52,0.42,0.74,0.75c0.22,0.32,0.37,0.74,0.45,1.27L55.15,62.47z M52.42,60.26
			c-0.29,0-0.55,0.05-0.78,0.14c-0.23,0.09-0.43,0.22-0.62,0.38c-0.18,0.15-0.32,0.34-0.43,0.54c-0.11,0.21-0.19,0.42-0.24,0.66
			h0.53c0.49,0,0.97,0,1.43,0c0.46,0,0.94,0,1.46,0c0.12-0.01,0.2-0.04,0.24-0.1c0.04-0.06,0.06-0.12,0.06-0.19
			c0-0.06-0.01-0.1-0.02-0.15c-0.01-0.05-0.02-0.1-0.04-0.14c-0.1-0.35-0.29-0.63-0.56-0.83C53.18,60.36,52.84,60.26,52.42,60.26z"
			/>
		<path fill="#FFFFFF" d="M57.62,61.36c0.09-0.18,0.19-0.37,0.3-0.57s0.24-0.38,0.38-0.55c0.14-0.17,0.31-0.31,0.5-0.42
			s0.4-0.17,0.63-0.17c0.16,0,0.34,0.02,0.55,0.07c0.21,0.05,0.34,0.11,0.42,0.19l0.11,0.12l-0.16,1.05h-0.45
			c-0.02-0.13-0.1-0.24-0.21-0.34c-0.11-0.1-0.29-0.16-0.52-0.16c-0.22,0-0.43,0.06-0.62,0.2c-0.19,0.13-0.36,0.3-0.5,0.5
			c-0.14,0.2-0.25,0.41-0.33,0.63c-0.08,0.22-0.11,0.42-0.11,0.61v1.22c0,0.2,0,0.36,0.01,0.49c0.01,0.12,0.01,0.22,0.02,0.31
			s0.01,0.16,0.02,0.22c0.01,0.06,0.01,0.12,0.01,0.18l0.02,0.12c0.02,0.14,0.04,0.26,0.06,0.38c0.02,0.12,0.07,0.22,0.14,0.28
			c0.05,0.04,0.11,0.06,0.2,0.08s0.18,0.03,0.27,0.04c0.1,0.01,0.19,0.02,0.28,0.02c0.09,0,0.16,0,0.22,0l0.07,0.07l0.02,0.18
			l-0.02,0.02c-0.06,0-0.17,0-0.3,0c-0.14,0-0.29,0-0.44,0s-0.3,0-0.44,0c-0.14,0-0.24,0-0.3,0h-0.33c-0.06,0-0.16,0-0.3,0
			c-0.13,0-0.27,0-0.42,0s-0.28,0-0.42,0c-0.13,0-0.23,0-0.3,0l-0.02-0.02l0.02-0.19l0.06-0.06c0.14,0,0.29-0.01,0.43-0.02
			c0.14-0.02,0.25-0.06,0.32-0.13c0.07-0.06,0.12-0.14,0.14-0.25c0.02-0.1,0.04-0.24,0.06-0.42l0.02-0.12
			c0.01-0.09,0.02-0.2,0.02-0.34c0.01-0.14,0.01-0.37,0.01-0.7v-1.67c0-0.19,0-0.35,0-0.48c0-0.13,0-0.25-0.01-0.34
			c-0.01-0.1-0.01-0.19-0.02-0.27c-0.01-0.08-0.01-0.17-0.02-0.26c-0.02-0.1-0.05-0.18-0.08-0.26c-0.04-0.08-0.07-0.13-0.1-0.16
			c-0.09-0.11-0.21-0.18-0.34-0.2s-0.28-0.03-0.42-0.03l-0.06-0.06v-0.19l0.06-0.05h0.25c0.15,0,0.35,0,0.58,0s0.44-0.02,0.62-0.04
			l0.48-0.07l0.08,0.11c-0.06,0.2-0.1,0.43-0.11,0.69c-0.02,0.26-0.03,0.51-0.03,0.75L57.62,61.36z"/>
		<path fill="#FFFFFF" d="M60.52,57.46l0.06-0.06h0.25c0.15,0,0.35,0,0.58,0s0.44-0.02,0.62-0.04l0.49-0.07l0.08,0.12
			c-0.02,0.04-0.03,0.1-0.04,0.2s-0.02,0.2-0.02,0.3c-0.01,0.11-0.02,0.22-0.02,0.31c-0.01,0.1-0.01,0.18-0.01,0.23
			c-0.01,0.14-0.04,0.79-0.04,1.17v2.97c0,0.38,0,0.7,0.01,0.94c0.01,0.25,0.01,0.46,0.02,0.62c0.01,0.18,0.01,0.32,0.02,0.45
			c0.01,0.13,0.01,0.27,0.02,0.43c0.02,0.19,0.04,0.34,0.06,0.43s0.07,0.18,0.14,0.24c0.07,0.06,0.18,0.1,0.3,0.12
			c0.13,0.02,0.26,0.02,0.4,0.02l0.07,0.07l0.02,0.18l-0.02,0.06c-0.06,0-0.16-0.01-0.29-0.02s-0.26-0.02-0.41-0.02s-0.28,0-0.41,0
			c-0.13,0-0.22,0-0.29,0h-0.19c-0.06,0-0.16,0-0.3,0c-0.13,0-0.26,0-0.41,0s-0.28,0-0.41,0s-0.23,0-0.3,0l-0.02-0.02l0.02-0.19
			l0.06-0.06c0.14,0,0.29-0.01,0.43-0.02s0.25-0.06,0.32-0.13c0.07-0.06,0.12-0.14,0.14-0.25c0.02-0.1,0.04-0.24,0.06-0.42
			c0.01-0.12,0.02-0.23,0.02-0.35c0.01-0.12,0.01-0.26,0.02-0.42c0.01-0.16,0.01-0.34,0.01-0.56c0-0.22,0-0.48,0-0.8v-3.27
			c0-0.37,0-0.11,0-0.37c0-0.26-0.02-0.36-0.02-0.5c-0.01-0.14-0.01-0.29-0.02-0.43c-0.01-0.1-0.03-0.18-0.07-0.26
			c-0.04-0.07-0.07-0.13-0.1-0.16c-0.09-0.1-0.21-0.16-0.34-0.19c-0.14-0.02-0.28-0.04-0.42-0.04l-0.06-0.06L60.52,57.46
			L60.52,57.46z"/>
		<path fill="#FFFFFF" d="M69.83,62.47l-0.22,0.1c-0.49,0-0.99,0-1.51,0c-0.52,0-1.02,0-1.53,0h-1.61
			c-0.01,0.06-0.02,0.13-0.02,0.18s0,0.12,0,0.17c0,0.34,0.05,0.68,0.15,0.99c0.1,0.31,0.26,0.59,0.47,0.82
			c0.22,0.24,0.49,0.42,0.82,0.57c0.34,0.14,0.74,0.21,1.22,0.21c0.28,0,0.58-0.03,0.9-0.09s0.62-0.17,0.89-0.32l0.14,0.08v0.25
			l-0.14,0.15c-0.22,0.18-0.53,0.33-0.93,0.47s-0.84,0.21-1.34,0.21c-0.48,0-0.92-0.08-1.31-0.24c-0.39-0.16-0.74-0.38-1.02-0.67
			c-0.29-0.29-0.51-0.63-0.66-1.03c-0.16-0.4-0.24-0.84-0.24-1.34s0.08-0.95,0.25-1.36c0.16-0.41,0.38-0.76,0.67-1.05
			c0.29-0.29,0.62-0.52,1.01-0.68c0.38-0.16,0.8-0.25,1.25-0.25c0.23,0,0.5,0.03,0.8,0.1c0.3,0.06,0.58,0.18,0.85,0.36
			c0.27,0.18,0.52,0.42,0.74,0.75c0.22,0.32,0.37,0.74,0.45,1.27L69.83,62.47z M67.11,60.26c-0.29,0-0.55,0.05-0.78,0.14
			c-0.23,0.09-0.43,0.22-0.62,0.38c-0.18,0.15-0.32,0.34-0.43,0.54c-0.11,0.21-0.19,0.42-0.24,0.66h0.53c0.49,0,0.97,0,1.43,0
			s0.94,0,1.46,0c0.12-0.01,0.2-0.04,0.24-0.1c0.04-0.06,0.06-0.12,0.06-0.19c0-0.06-0.01-0.1-0.02-0.15
			c-0.01-0.05-0.02-0.1-0.04-0.14c-0.1-0.35-0.29-0.63-0.56-0.83C67.87,60.36,67.53,60.26,67.11,60.26z"/>
		<path fill="#FFFFFF" d="M70.35,69.22c0.13,0,0.25-0.01,0.36-0.02c0.11-0.01,0.22-0.03,0.34-0.06s0.22-0.08,0.32-0.15
			c0.1-0.07,0.22-0.17,0.34-0.3c0.18-0.18,0.32-0.37,0.45-0.57s0.23-0.41,0.31-0.61l0.43-1.09L71.97,64
			c-0.04-0.08-0.1-0.22-0.18-0.44c-0.09-0.22-0.18-0.46-0.3-0.72c-0.11-0.26-0.22-0.54-0.34-0.81c-0.11-0.28-0.21-0.52-0.3-0.74
			c-0.09-0.22-0.18-0.38-0.25-0.51c-0.09-0.14-0.19-0.26-0.3-0.34s-0.26-0.13-0.46-0.14l-0.08-0.06v-0.33l0.06-0.06
			c0.15,0.02,0.32,0.04,0.49,0.06c0.18,0.02,0.33,0.02,0.48,0.02h0.53c0.14,0,0.32-0.01,0.52-0.02c0.21-0.02,0.4-0.04,0.58-0.06
			l0.06,0.06v0.3l-0.06,0.06c-0.2,0.02-0.37,0.07-0.5,0.15c-0.13,0.09-0.2,0.21-0.2,0.37c0,0.1,0.04,0.3,0.13,0.57
			s0.18,0.56,0.3,0.87c0.11,0.31,0.22,0.6,0.31,0.86c0.1,0.26,0.17,0.44,0.21,0.52l0.68,1.74l0.64-1.54
			c0.06-0.15,0.15-0.36,0.26-0.62c0.11-0.26,0.22-0.54,0.33-0.83c0.11-0.3,0.2-0.58,0.28-0.86c0.08-0.28,0.11-0.52,0.11-0.72
			s-0.07-0.33-0.22-0.39c-0.14-0.06-0.31-0.11-0.49-0.13L74.2,60.2v-0.3l0.06-0.06c0.35,0.06,0.69,0.08,0.99,0.08h0.56
			c0.15,0,0.3-0.01,0.44-0.02c0.14-0.02,0.3-0.04,0.47-0.06l0.06,0.06v0.33l-0.07,0.06c-0.16,0.02-0.29,0.06-0.38,0.14
			c-0.09,0.07-0.18,0.18-0.28,0.35c-0.08,0.14-0.18,0.32-0.28,0.54c-0.1,0.22-0.21,0.45-0.31,0.7c-0.1,0.25-0.21,0.5-0.31,0.77
			c-0.1,0.26-0.2,0.5-0.29,0.73c-0.09,0.22-0.16,0.42-0.22,0.58c-0.06,0.17-0.1,0.28-0.13,0.34l-1.34,3.27
			c-0.23,0.58-0.55,1.02-0.96,1.3c-0.4,0.28-0.84,0.48-1.31,0.6c-0.09,0.02-0.18,0.02-0.25,0.02c-0.07,0-0.15,0-0.25,0l-0.11-0.02
			l-0.02-0.33L70.35,69.22z"/>
		<path fill="#FFFFFF" d="M21.7,64.42c0.02-0.05,0.1-0.22,0.23-0.53c0.13-0.3,0.28-0.68,0.47-1.13c0.18-0.45,0.31-0.76,0.52-1.3
			c0.21-0.54,0.41-1.06,0.6-1.58c0.19-0.51,0.35-0.98,0.49-1.42s0.22-0.78,0.26-1.03l0.07-0.06c0.07,0.01,0.15,0.01,0.23,0.01
			c0.08,0,0.16,0,0.23,0h0.49c0.06,0,0.17,0,0.31,0s0.3,0,0.45,0s0.3,0,0.45,0s0.25,0,0.31,0l0.02,0.02l-0.04,0.25l-0.07,0.06
			c-0.14,0-0.29,0.01-0.42,0.02c-0.13,0.02-0.23,0.06-0.3,0.11c-0.07,0.06-0.14,0.14-0.22,0.25c-0.08,0.11-0.11,0.29-0.11,0.53
			c0,0.13,0,0.25,0.01,0.35c0.01,0.11,0.01,0.24,0.02,0.38c0.01,0.14,0.02,0.32,0.02,0.53c0.02,0.21,0.03,0.48,0.06,0.81l0.14,2.27
			c0.02,0.33,0.05,0.59,0.06,0.8c0.02,0.21,0.02,0.38,0.04,0.51c0.02,0.14,0.02,0.25,0.04,0.34c0.02,0.1,0.03,0.2,0.05,0.3
			c0.04,0.26,0.09,0.43,0.16,0.53c0.07,0.1,0.14,0.18,0.22,0.25c0.08,0.06,0.19,0.1,0.32,0.11c0.13,0.02,0.27,0.02,0.42,0.02
			l0.07,0.06l0.04,0.25l-0.02,0.02c-0.06,0-0.17,0-0.31,0s-0.3,0-0.45,0c-0.15,0-0.3,0-0.45,0s-0.25,0-0.31,0h-0.26
			c-0.06,0-0.17,0-0.31,0s-0.3,0-0.45,0c-0.15,0-0.3,0-0.45,0s-0.25,0-0.31,0l-0.04-0.02l0.04-0.25l0.06-0.06
			c0.14,0,0.28-0.01,0.42-0.02c0.14-0.02,0.23-0.06,0.3-0.11c0.06-0.06,0.13-0.14,0.18-0.25c0.06-0.1,0.09-0.28,0.09-0.53
			c0-0.06,0-0.14,0-0.22s0-0.19-0.01-0.32c-0.01-0.13-0.01-0.28-0.02-0.46c-0.01-0.18-0.02-0.41-0.04-0.68
			c-0.07-0.95-0.11-1.47-0.15-2.04c-0.04-0.57-0.07-1.01-0.1-1.33c-0.02-0.32-0.05-0.54-0.06-0.68c-0.02-0.14-0.02-0.25-0.03-0.34
			c-0.06,0.16-0.16,0.42-0.3,0.76c-0.14,0.34-0.3,0.73-0.47,1.17c-0.18,0.44-0.37,0.91-0.57,1.41c-0.2,0.5-0.33,0.82-0.52,1.3
			s-0.38,0.95-0.56,1.39c-0.18,0.44-0.33,0.81-0.46,1.12h-0.64l-1.41-3.78l-1.25-3.35c-0.01,0.09-0.02,0.18-0.02,0.29
			c-0.01,0.1-0.02,0.22-0.02,0.36c-0.01,0.14-0.02,0.3-0.03,0.49c-0.02,0.18-0.03,0.42-0.05,0.69l-0.17,2.27
			c-0.02,0.31-0.05,0.56-0.06,0.76c-0.01,0.2-0.02,0.38-0.02,0.52c-0.01,0.14-0.02,0.27-0.02,0.37s0,0.21,0,0.31
			c0,0.26,0.03,0.43,0.09,0.53c0.06,0.1,0.13,0.18,0.2,0.25c0.07,0.06,0.16,0.1,0.25,0.11c0.1,0.02,0.22,0.02,0.36,0.02l0.06,0.06
			l0.04,0.25l-0.02,0.06c-0.06,0-0.16,0-0.28-0.01c-0.12-0.01-0.25-0.01-0.38-0.02c-0.13-0.01-0.26-0.01-0.38-0.02
			s-0.22-0.01-0.28-0.01h-0.26c-0.06,0-0.17,0-0.3,0c-0.14,0-0.29,0-0.45,0s-0.31,0-0.45,0c-0.14,0-0.24,0-0.3,0l-0.02-0.02
			l0.04-0.25l0.08-0.06c0.14,0,0.26-0.01,0.39-0.02c0.13-0.02,0.24-0.06,0.33-0.11c0.07-0.06,0.14-0.14,0.22-0.25
			c0.08-0.1,0.14-0.28,0.17-0.53c0.01-0.06,0.02-0.14,0.02-0.22s0.02-0.19,0.03-0.32c0.02-0.13,0.03-0.28,0.05-0.46
			c0.02-0.18,0.04-0.41,0.06-0.68l0.17-2.52c0.02-0.32,0.05-0.58,0.06-0.8c0.02-0.22,0.02-0.41,0.02-0.56
			c0.01-0.15,0.01-0.29,0.02-0.39c0.01-0.11,0.01-0.22,0.01-0.33c0-0.26-0.04-0.43-0.11-0.54c-0.08-0.1-0.15-0.18-0.22-0.24
			c-0.08-0.06-0.18-0.1-0.31-0.11c-0.14-0.01-0.27-0.02-0.42-0.02l-0.07-0.06l-0.04-0.25l0.02-0.02c0.06,0,0.17,0,0.31,0
			s0.3,0,0.45,0c0.15,0,0.3,0,0.45,0s0.25,0,0.31,0h0.48c0.07,0,0.18,0,0.3,0c0.13,0,0.24-0.01,0.32-0.02l0.07,0.04
			c0.01,0.12,0.04,0.27,0.1,0.47c0.06,0.19,0.13,0.42,0.22,0.66c0.09,0.25,0.18,0.5,0.28,0.78c0.1,0.28,0.2,0.55,0.3,0.82l0.86,2.35
			c0.15,0.44,0.3,0.81,0.42,1.11C21.48,63.91,21.59,64.19,21.7,64.42z"/>
	</g>
</g>
</svg>
