<?xml version="1.0" encoding="utf-8"?>
<!-- Generator: Adobe Illustrator 27.0.0, SVG Export Plug-In . SVG Version: 6.00 Build 0)  -->
<svg version="1.1" id="Calque_1" xmlns="http://www.w3.org/2000/svg" xmlns:xlink="http://www.w3.org/1999/xlink" x="0px" y="0px"
	 viewBox="0 0 92.12 92.12" enable-background="new 0 0 92.12 92.12" xml:space="preserve">
<g>
	<g>
		<polygon fill="#FFFFFF" points="16.35,68.02 21.47,68.02 21.47,69.39 18.09,69.39 18.09,71.52 21.18,71.52 21.18,72.89 
			18.09,72.89 18.09,75.33 21.49,75.33 21.49,76.69 16.35,76.69 		"/>
		<g>
			<path fill="#FFFFFF" d="M22.21,70.3h1.57v0.87h0.03c0.52-0.74,1.23-1.02,2.1-1.02c1.51,0,2.17,1.07,2.17,2.51v4.04h-1.66v-3.41
				c0-0.79-0.01-1.84-1.08-1.84c-1.21,0-1.46,1.3-1.46,2.12v3.13h-1.66L22.21,70.3L22.21,70.3z"/>
			<path fill="#FFFFFF" d="M30.05,71.51h-1.22V70.3h1.23v-1.28l1.66-0.53v1.81h1.48v1.21h-1.48v2.98c0,0.55,0.15,1.05,0.78,1.05
				c0.3,0,0.58-0.06,0.76-0.17l0.05,1.32c-0.35,0.1-0.74,0.15-1.23,0.15c-1.3,0-2.02-0.8-2.02-2.07L30.05,71.51L30.05,71.51z"/>
			<path fill="#FFFFFF" d="M34.09,70.3h1.48v1.45h0.03c0.08-0.6,0.76-1.6,1.75-1.6c0.16,0,0.33,0,0.5,0.05v1.68
				c-0.15-0.09-0.44-0.14-0.74-0.14c-1.35,0-1.35,1.69-1.35,2.61v2.34h-1.67C34.09,76.7,34.09,70.3,34.09,70.3z"/>
			<path fill="#FFFFFF" d="M42.38,72.87c-0.05-0.8-0.42-1.51-1.35-1.51c-0.93,0-1.4,0.65-1.48,1.51H42.38z M43.5,76.33
				c-0.61,0.33-1.3,0.51-2.2,0.51c-2.11,0-3.34-1.21-3.34-3.32c0-1.85,0.98-3.38,2.97-3.38c2.37,0,3.04,1.63,3.04,3.86h-4.42
				c0.08,1.04,0.8,1.62,1.82,1.62c0.8,0,1.51-0.3,2.12-0.65L43.5,76.33L43.5,76.33z"/>
			<path fill="#FFFFFF" d="M46.67,73.47c0,0.91,0.36,2.07,1.46,2.07c1.1,0,1.4-1.19,1.4-2.07c0-0.86-0.3-2.04-1.38-2.04
				C47.09,71.44,46.67,72.58,46.67,73.47 M44.99,70.3h1.59v0.91h0.03c0.38-0.62,1-1.06,1.99-1.06c1.96,0,2.68,1.57,2.68,3.33
				c0,1.75-0.72,3.36-2.72,3.36c-0.71,0-1.29-0.17-1.87-0.88h-0.03v3.35h-1.67L44.99,70.3L44.99,70.3z"/>
			<path fill="#FFFFFF" d="M52.32,70.3h1.48v1.45h0.03c0.08-0.6,0.76-1.6,1.75-1.6c0.16,0,0.33,0,0.51,0.05v1.68
				c-0.15-0.09-0.44-0.14-0.74-0.14C54,71.75,54,73.43,54,74.35v2.34h-1.67L52.32,70.3L52.32,70.3z"/>
		</g>
		<path fill="#FFFFFF" d="M56.87,70.3h1.67v6.4h-1.67V70.3z M56.93,67.54h1.67l-0.05,1.59h-1.67L56.93,67.54z"/>
		<g>
			<path fill="#FFFFFF" d="M63.8,71.63c-0.5-0.17-0.88-0.27-1.49-0.27c-0.44,0-0.98,0.16-0.98,0.71c0,1.02,2.89,0.38,2.89,2.69
				c0,1.49-1.33,2.09-2.68,2.09c-0.63,0-1.27-0.11-1.88-0.27l0.1-1.37c0.52,0.26,1.07,0.42,1.64,0.42c0.42,0,1.1-0.16,1.1-0.78
				c0-1.26-2.89-0.39-2.89-2.7c0-1.38,1.21-1.99,2.51-1.99c0.78,0,1.29,0.13,1.81,0.24L63.8,71.63z"/>
			<path fill="#FFFFFF" d="M75.36,71.63c-0.5-0.17-0.88-0.27-1.49-0.27c-0.44,0-0.98,0.16-0.98,0.71c0,1.02,2.89,0.38,2.89,2.69
				c0,1.49-1.33,2.09-2.69,2.09c-0.63,0-1.27-0.11-1.88-0.27l0.1-1.37c0.52,0.26,1.07,0.42,1.63,0.42c0.42,0,1.1-0.16,1.1-0.78
				c0-1.26-2.89-0.39-2.89-2.7c0-1.38,1.21-1.99,2.51-1.99c0.78,0,1.29,0.13,1.81,0.24L75.36,71.63z"/>
			<path fill="#FFFFFF" d="M69.23,72.87c-0.05-0.8-0.42-1.51-1.35-1.51s-1.4,0.65-1.48,1.51H69.23z M70.35,76.33
				c-0.61,0.33-1.3,0.51-2.2,0.51c-2.11,0-3.34-1.21-3.34-3.32c0-1.85,0.98-3.38,2.97-3.38c2.37,0,3.04,1.63,3.04,3.86H66.4
				c0.08,1.04,0.8,1.62,1.82,1.62c0.8,0,1.51-0.3,2.12-0.65L70.35,76.33L70.35,76.33z"/>
		</g>
		<g>
			<path fill="#FFFFFF" d="M18.09,59.77h0.61c0.86,0,1.65-0.28,1.65-1.29s-0.75-1.35-1.65-1.35h-0.61V59.77z M16.35,55.77h2.2
				c1.88,0,3.61,0.55,3.61,2.62c0,2.02-1.48,2.76-3.34,2.76H18.1v3.29h-1.74L16.35,55.77L16.35,55.77z"/>
			<path fill="#FFFFFF" d="M25.91,63.29c1.27,0,1.61-1.15,1.61-2.21c0-0.98-0.52-1.9-1.61-1.9c-1.08,0-1.6,0.94-1.6,1.9
				C24.31,62.14,24.64,63.29,25.91,63.29 M25.91,57.89c1.9,0,3.35,1.27,3.35,3.39c0,1.84-1.23,3.3-3.35,3.3
				c-2.1,0-3.34-1.46-3.34-3.3C22.57,59.17,24.03,57.89,25.91,57.89"/>
		</g>
		<rect x="30.33" y="55.77" fill="#FFFFFF" width="1.66" height="8.67"/>
		<g>
			<path fill="#FFFFFF" d="M36.27,62.71h0.03l1.54-4.67h1.69l-2.4,6.34c-0.53,1.41-0.92,2.81-2.65,2.81c-0.39,0-0.8-0.06-1.18-0.17
				l0.11-1.23c0.21,0.08,0.44,0.11,0.86,0.11c0.67,0,1.08-0.46,1.08-1.14l-2.45-6.72h1.84L36.27,62.71z"/>
			<path fill="#FFFFFF" d="M44.4,60.6c-0.05-0.8-0.42-1.51-1.35-1.51c-0.93,0-1.4,0.64-1.47,1.51H44.4z M45.51,64.07
				c-0.61,0.33-1.3,0.51-2.2,0.51c-2.1,0-3.34-1.21-3.34-3.31c0-1.85,0.98-3.38,2.96-3.38c2.37,0,3.04,1.63,3.04,3.86h-4.42
				c0.08,1.03,0.8,1.62,1.82,1.62c0.8,0,1.5-0.3,2.12-0.65L45.51,64.07L45.51,64.07z"/>
		</g>
		<polygon fill="#FFFFFF" points="46.64,58.04 48.6,58.04 49.86,60.13 51.08,58.04 52.85,58.04 50.94,61.08 53.09,64.43 
			51.11,64.43 49.68,62.05 48.24,64.43 46.42,64.43 48.62,61.08 		"/>
		<g>
			<path fill="#FFFFFF" d="M55.61,61.22c0,0.91,0.36,2.07,1.46,2.07c1.09,0,1.4-1.19,1.4-2.07c0-0.86-0.3-2.04-1.38-2.04
				C56.04,59.18,55.61,60.32,55.61,61.22 M53.94,58.04h1.58v0.91h0.03c0.37-0.62,1-1.05,1.99-1.05c1.96,0,2.68,1.57,2.68,3.33
				c0,1.75-0.72,3.36-2.72,3.36c-0.71,0-1.29-0.17-1.87-0.88h-0.03v3.34h-1.66L53.94,58.04L53.94,58.04z"/>
			<path fill="#FFFFFF" d="M65.53,60.6c-0.05-0.8-0.42-1.51-1.35-1.51c-0.93,0-1.4,0.64-1.47,1.51H65.53z M66.66,64.07
				c-0.61,0.33-1.3,0.51-2.2,0.51c-2.1,0-3.34-1.21-3.34-3.31c0-1.85,0.98-3.38,2.96-3.38c2.37,0,3.04,1.63,3.04,3.86h-4.41
				c0.08,1.03,0.8,1.62,1.82,1.62c0.8,0,1.5-0.3,2.12-0.65V64.07z"/>
			<path fill="#FFFFFF" d="M68.34,58.04h1.48v1.45h0.03c0.08-0.6,0.75-1.6,1.75-1.6c0.16,0,0.33,0,0.51,0.05v1.68
				c-0.15-0.09-0.44-0.14-0.74-0.14c-1.35,0-1.35,1.69-1.35,2.61v2.34h-1.66L68.34,58.04L68.34,58.04z"/>
			<path fill="#FFFFFF" d="M72.99,59.25L72.99,59.25v-1.21v-1.27l1.66-0.53v1.81h1.48v1.21h-1.48v2.98c0,0.55,0.15,1.05,0.78,1.05
				c0.3,0,0.58-0.06,0.75-0.17l0.05,1.32c-0.35,0.09-0.74,0.15-1.22,0.15c-1.3,0-2.02-0.8-2.02-2.07V59.25z"/>
		</g>
	</g>
</g>
<g>
	<path fill="#FFFFFF" d="M64.28,25.21c-0.7-3.6-2.96-7.31-5.97-9.83c-2.98-2.5-6.61-3.94-9.95-4.43c-0.36-0.05-0.71-0.09-1.06-0.12
		c-4.83-0.44-9.08,1.21-11.79,3.42c-0.06,0.05-0.14,0.09-0.2,0.15c-1.34,0.98-2.4,2.12-3.07,3.26c0.33-0.28,0.56-0.52,0.88-0.79
		c0.02-0.02,0.15-0.12,0.15-0.15c0.09-0.09,0.18-0.15,0.27-0.23c2.93-2.28,7.13-3.87,11.52-3.69c0.9,0.03,1.81,0.15,2.74,0.33
		c5.96,1.04,11.92,6.27,12.73,11.79c0.39,2.33-0.01,4.72-1.08,6.55c-0.12,0.15-0.22,0.29-0.35,0.42c-0.01,0.01-0.01,0.01-0.02,0.02
		c-1.48,1.54-3.71,2.37-6.14,2.34c-0.84-0.01-1.69-0.11-2.54-0.33c-3.82-0.69-6.8-3.25-8.47-6.3c-1.56-2.87-1.82-5.99-0.51-8.27
		c0-0.01,0.01-0.01,0.01-0.02c-0.34,0.3-0.68,0.6-1.03,0.91c-2,1.95-3.16,5.48-2.06,9.39c1.1,4.18,5.08,8.26,9.97,9.75
		c1.63,0.56,3.35,0.8,5.02,0.73c2.87-0.13,5.58-1.2,7.53-3.16c0.55-0.54,1.02-1.14,1.43-1.77c0.21-0.33,0.42-0.68,0.63-1.01
		c-0.09,0.14-0.19,0.27-0.27,0.4C64.35,31.99,64.92,28.52,64.28,25.21"/>
	<path fill="#FFFFFF" d="M32.89,18.64c-2.75,2.41-4.46,5.93-4.77,9.63c-0.44,4.95,1.69,10.26,5.53,13.9c3.94,3.74,9,5.47,13.58,5.48
		c0.47,0.01,0.92-0.01,1.38-0.03c5.32-0.36,9.48-3.2,11.78-6.48c0.25-0.35,0.49-0.7,0.72-1.05c-0.3,0.44,0.29-0.49,0,0
		c0.65-1.06,1.37-2.23,1.82-4.03c-0.54,0.94-1.23,1.84-2.06,2.65c-0.56,0.57-1.17,1.11-1.85,1.58c-1.93,1.36-4.36,2.28-7.08,2.46
		c-1.03,0.07-2.09,0.03-3.18-0.15c-7.76-0.82-15.03-7.91-14.46-15.55c0.14-2.65,1.25-5.18,3.02-6.94c0.13-0.1,0.27-0.2,0.39-0.28
		c1.89-1.3,4.36-1.94,6.79-1.84c0.8,0.03,1.59,0.15,2.37,0.34c6.48,1.3,10.55,8.81,8.86,13.78c0.27-0.35,0.53-0.69,0.78-1.04
		c0.13-0.19,0.25-0.39,0.36-0.61c1.04-1.99,1.23-4.91-0.11-7.86c-1.33-3.03-4.71-6.04-8.6-7.27c-1.38-0.46-2.85-0.73-4.33-0.8
		c-2.74-0.11-5.58,0.5-7.93,1.85c-0.89,0.5-1.74,1.1-2.52,1.8L32.89,18.64z"/>
</g>
</svg>
