<?xml version="1.0" encoding="utf-8"?>
<!-- Generator: Adobe Illustrator 27.0.0, SVG Export Plug-In . SVG Version: 6.00 Build 0)  -->
<svg version="1.1" id="Calque_1" xmlns="http://www.w3.org/2000/svg" xmlns:xlink="http://www.w3.org/1999/xlink" x="0px" y="0px"
	 viewBox="0 0 92.12 92.12" enable-background="new 0 0 92.12 92.12" xml:space="preserve">
<g>
	<g>
		<g id="XMLID_00000065764680169283763320000018003798357659883917_">
			<path id="XMLID_00000052817699216590053870000008691707366512185484_" fill="#FFFFFF" d="M21.18,45.07
				c0.1,2.3,1.56,4.25,3.53,5.34c-1.37,1.07-2.94,2.17-4.08,3.46c-2.68-2.18-4.11-5.56-3.62-9.21c0.02-0.11,0.03-0.22,0.05-0.33
				c0.47-2.91,2.05-5.42,4.29-7.09c2.16-1.68,4.38-2.11,5.91-2.16c0.26-0.02,0.51-0.02,0.73,0.01c0.79,0.03,1.28,0.16,1.28,0.16
				c-0.57,0.19-1.12,0.36-1.65,0.55C23.61,37.23,20.99,41,21.18,45.07z"/>
			
				<path id="XMLID_00000034803930668360785890000018175926785587602083_" opacity="0.55" fill="#FFFFFF" enable-background="new    " d="
				M29.26,35.25c0,0-8.13-0.14-10.04,8.12c-0.91,3.97-1.66,3.03-2.16,0.96c0.47-2.91,2.05-5.42,4.29-7.09
				c2.16-1.68,4.38-2.11,5.91-2.16c0.26-0.02,0.51-0.02,0.73,0.01C28.77,35.14,29.26,35.25,29.26,35.25z"/>
			<path id="XMLID_00000152262150078983249430000014728938722983905178_" fill="#FFFFFF" d="M31.41,49.02
				c0,0.04-0.01,0.08-0.03,0.14c-0.19,0.63-1.34,1.95-2.16,2.83l-0.01,0.01c-0.47,0.5-0.82,0.85-0.82,0.85s-0.47,0-1.2-0.09l0,0
				c-1.51-0.09-4.18-0.46-6.39-1.3c-0.16-0.06-0.31-0.11-0.47-0.18c-1.53-0.66-2.74-1.59-3.16-2.88c-0.03-0.09,0.01-0.19-0.09-0.29
				l0,0c-1.35-4.77,1.08-9.61,1.15-9.73l0,0c0,0,0.57,8.63,5.51,11.52c0.48,0.28,0.94,0.51,1.37,0.68c4.11,1.67,6.01-1.11,6.27-1.51
				C31.4,49.04,31.41,49.02,31.41,49.02z"/>
			<path id="XMLID_00000035527743054602920730000004525528371400047545_" fill="#FFFFFF" d="M20.34,51.28
				c-1.53-0.66-2.74-1.6-3.16-2.88c-1.6-4.86,0.99-9.9,1.06-10.02c-0.03,0.14-1.72,7.67,1.86,12.55
				C20.18,51.04,20.27,51.16,20.34,51.28z"/>
			<path id="XMLID_00000115508104365399832320000010025681824711989943_" fill="#FFFFFF" d="M31.09,54.56
				c-1.02,1.05-2.59,1.77-5,1.6c-8.16-0.55-10.47-8.67-10.5-8.79l0,0c8.51,5.65,12.66,4.85,14.65,3.13c1.5-1.29,1.78-3.09,1.78-3.09
				l0.94,1.37C32.96,48.77,33.21,52.38,31.09,54.56z"/>
			
				<path id="XMLID_00000104686803873099786400000015816666799815338907_" opacity="0.55" fill="#FFFFFF" enable-background="new    " d="
				M31.09,54.56c-1.02,1.05-2.59,1.77-5,1.6c-8.16-0.55-10.47-8.67-10.5-8.79c0.07,0.12,5.1,8.59,13.29,7.1
				C30.08,54.25,30.77,54.3,31.09,54.56z"/>
			<path id="XMLID_00000154390323437502269510000005648193632449905553_" fill="#FFFFFF" d="M29.26,43.08l-0.04-0.01
				C29.23,43.07,29.24,43.07,29.26,43.08z"/>
			<path id="XMLID_00000145036017807594616510000015506984451424257978_" fill="#FFFFFF" d="M35.45,51.06L35.45,51.06
				c-0.03,0.09-0.08,0.18-0.12,0.26c-0.25,0.53-0.53,1.01-0.84,1.45C30.99,57.8,24.39,57,24.39,57c2.36-0.9,4-2.26,5.13-3.7
				c2.45-3.11,2.58-6.59,2.58-6.59c-0.01-0.26-0.03-0.5-0.08-0.73c-0.4-2-2.18-2.72-2.68-2.88l3.7,1.08l0.4,0.12
				c0,0,1.35,2.29,1.41,2.59c0.01,0.04,0.03,0.15,0.05,0.32C35.06,48.21,35.45,51.06,35.45,51.06z"/>
			
				<path id="XMLID_00000003813443831844047560000014475058631343199622_" opacity="0.35" fill="#FFFFFF" enable-background="new    " d="
				M35.45,51.06c-0.28,0.63-0.6,1.2-0.96,1.71C30.99,57.8,24.39,57,24.39,57s9.02-0.57,10.36-8.97c0.05-0.3,0.1-0.57,0.16-0.82
				C35.06,48.21,35.45,51.06,35.45,51.06z"/>
			<path id="XMLID_00000073700926280966370520000009446827025389793206_" fill="#FFFFFF" d="M35.73,52.45
				C35.73,52.46,35.73,52.46,35.73,52.45c-0.42-2.09-1.01-3.72-1.68-4.99c-1.75-3.34-4.01-4.2-4.9-4.42l-0.01,0.01
				c-0.03-0.01-0.16-0.04-0.35-0.08c-0.03,0-0.05-0.01-0.05-0.01l0,0c-0.9-0.14-3.05-0.11-4.26,2.83c0,0-0.58-4.1,4.24-5
				c0,0,1.95-0.29,3.91,0.76c0.41,0.22,0.82,0.5,1.21,0.85C38.18,46.29,35.79,52.32,35.73,52.45z"/>
			
				<path id="XMLID_00000048490581856903299220000011601048443831275942_" opacity="0.37" fill="#FFFFFF" enable-background="new    " d="
				M35.73,52.45c0.03-0.17,1.72-9.56-6.42-10.54c0,0-4-0.39-4.83,3.89c0,0-0.58-4.1,4.24-5c0,0,1.95-0.29,3.91,0.76
				c0.41,0.22,0.82,0.5,1.21,0.85C38.18,46.29,35.79,52.32,35.73,52.45z"/>
		</g>
		<g>
			<path fill="#FFFFFF" d="M44.78,43.77c0.55,0.54,0.82,1.33,0.82,2.37s-0.27,1.83-0.82,2.37s-1.32,0.8-2.32,0.8h-1.83v2.98h-1.86
				v-9.33h3.69C43.46,42.96,44.23,43.23,44.78,43.77z M43.75,46.13c0-1.03-0.46-1.55-1.38-1.55h-1.74v3.08h1.74
				c0.45,0,0.79-0.12,1.02-0.36C43.63,47.07,43.75,46.68,43.75,46.13z"/>
			<path fill="#FFFFFF" d="M53.67,42.96l-2.86,5.5v3.82h-1.84v-3.82l-2.86-5.5h2.02l1.78,3.76l1.75-3.76
				C51.65,42.96,53.67,42.96,53.67,42.96z"/>
			<path fill="#FFFFFF" d="M62.02,52.29h-2.16L58,48.83h-1.34v3.46h-1.86v-7.32c0-0.7,0.16-1.21,0.5-1.53
				c0.33-0.32,0.88-0.48,1.66-0.48h1.58c0.95,0,1.7,0.28,2.25,0.85c0.56,0.57,0.84,1.28,0.84,2.14c0,0.63-0.17,1.18-0.5,1.63
				c-0.34,0.46-0.74,0.78-1.23,0.95L62.02,52.29z M59.39,46.91c0.25-0.26,0.38-0.6,0.38-1s-0.12-0.72-0.36-0.96
				c-0.25-0.25-0.57-0.36-0.98-0.36H57.5c-0.55,0-0.83,0.28-0.83,0.83v1.9h1.75C58.81,47.31,59.14,47.18,59.39,46.91z"/>
			<path fill="#FFFFFF" d="M65.42,52.29h-1.86v-9.33h1.86V52.29z"/>
			<path fill="#FFFFFF" d="M74.67,46.72l-1.71,3.53c-0.25,0.47-0.56,0.71-0.93,0.71s-0.68-0.25-0.93-0.74l-1.74-3.5v5.57H67.5v-9.33
				h1.83l2.69,5.39l2.67-5.39h1.83v9.33h-1.86L74.67,46.72L74.67,46.72z"/>
		</g>
	</g>
</g>
</svg>
