<svg xmlns="http://www.w3.org/2000/svg" xml:space="preserve" id="Calque_1" x="0" y="0" version="1.1" viewBox="0 0 92.12 92.12">
  <g fill="#FFFFFF">
    <path d="M22.8 63.21c0 2.23-.63 4.47-3.49 4.47-2.86 0-3.49-2.23-3.49-4.47 0-2.23.63-4.47 3.49-4.47 2.86 0 3.49 2.24 3.49 4.47zm-6.1 0c0 1.6.26 3.7 2.61 3.7 2.35 0 2.61-2.1 2.61-3.7s-.26-3.7-2.61-3.7c-2.35 0-2.61 2.1-2.61 3.7zM24.68 65c0 1.74 1.01 1.92 2.01 1.92 1.04 0 1.72-.26 1.72-.26v-5.87h.87v6.37s-1.1.51-2.61.51c-1.9 0-2.87-.7-2.87-2.71v-4.17h.88V65zM34.64 63.99v-.98c0-1.17-.63-1.6-1.82-1.6-1.16 0-1.94.4-1.94.4l-.18-.71c.43-.2 1.2-.45 2.21-.45 1.68 0 2.6.68 2.6 2.35v4.15s-1.01.51-2.6.51c-1.5 0-2.62-.48-2.62-1.9 0-1.49 1.21-1.93 2.77-1.93.59.01 1.11.07 1.58.16zm0 2.72v-2.03c-.48-.07-1.03-.12-1.54-.12-1.1 0-1.94.22-1.94 1.22 0 .94.77 1.17 1.75 1.17.96 0 1.73-.24 1.73-.24zM41.4 63.33c0-1.74-1.01-1.92-2.01-1.92-1.05 0-1.72.26-1.72.26v5.87h-.87v-6.37s1.1-.51 2.6-.51c1.92 0 2.87.7 2.87 2.71v4.17h-.87v-4.21zM44.86 61.51v3.83c0 .99.27 1.57 1.21 1.57.56 0 1.05-.2 1.05-.2l.12.72s-.49.23-1.23.23c-1.22 0-2.03-.6-2.03-2.34V61.5h-.94v-.72h.94V59l.88-.16v1.95h2.21v.72h-2.21zM49.2 59.05c0 .37-.23.59-.59.59-.38 0-.6-.22-.6-.59 0-.34.22-.56.6-.56.36 0 .59.21.59.56zm-.15 8.49h-.87v-6.75h.87v6.75zM54.92 63.33c0-1.73-.93-1.92-1.85-1.92-1.13 0-1.78.26-1.78.26v5.87h-.87v-6.37s1.06-.51 2.65-.51c.93 0 1.6.18 2.05.6.51-.26 1.39-.6 2.48-.6 1.77 0 2.71.77 2.71 2.72v4.16h-.88v-4.2c0-1.73-1.05-1.93-1.86-1.93-.85 0-1.62.3-2.03.49.16.39.24.87.24 1.46v4.17h-.87v-4.2zM66.09 63.33c0-1.73-.93-1.92-1.86-1.92-1.13 0-1.78.26-1.78.26v5.87h-.87v-6.37s1.06-.51 2.65-.51c.93 0 1.6.18 2.05.6.51-.26 1.39-.6 2.48-.6 1.77 0 2.71.77 2.71 2.72v4.16h-.87v-4.2c0-1.73-1.05-1.93-1.86-1.93-.85 0-1.62.3-2.03.49.16.39.24.87.24 1.46v4.17h-.87v-4.2zM73.36 64.29c0 1.06.21 2.62 2.2 2.62 1.15 0 1.87-.35 1.87-.35l.13.72s-.79.39-2.06.39c-2.26 0-3-1.46-3-3.51 0-1.95.73-3.5 2.81-3.5 1.96 0 2.59 1.23 2.59 2.66 0 .32-.04.65-.1.98h-4.44zm3.68-1.07c0-.89-.26-1.82-1.73-1.82-1.53 0-1.85 1.2-1.93 2.18h3.65c.01-.12.01-.24.01-.36z"/>
    <path d="m22.47 68.46-.29.66-3.3-1.54.26-.58 3.33 1.46z"/>
  </g>
  <g fill="#FFFFFF">
    <path d="m37.14 39.39 2.83-4.92h5.68l-5.68 9.83H28.63l2.83-4.91zM54.16 39.39 57 34.47h5.67l-5.68 9.83H45.65l2.83-4.91zM45.65 24.64l2.84-4.91h5.67l-5.67 9.83H37.14l2.84-4.92z"/>
    <path d="M54.16 49.22h-5.68l-2.84-4.92h11.35l5.68 9.83h-5.68zM37.13 49.22h-5.67l-2.84-4.92h11.35l5.67 9.83h-5.67zM45.65 34.47h-5.68l-2.83-4.91h11.34l5.68 9.83h-5.68z" opacity=".5"/>
  </g>
</svg>
