<svg xmlns="http://www.w3.org/2000/svg" xmlns:xlink="http://www.w3.org/1999/xlink" xml:space="preserve" viewBox="0 0 92.12 92.12">
  <defs>
    <path id="a" d="M12.79 37.8h66.54v16.52H12.79z"/>
  </defs>
  <clipPath id="b">
    <use xlink:href="#a" overflow="visible"/>
  </clipPath>
  <g fill="#D6FC8A" clip-path="url(#b)">
    <path d="M25.82 37.8c-.37 0-.76.14-1.1.53L13.09 52.21c-.45.54-.38 1.34.15 1.79.23.19.51.3.81.3.34 0 .76-.21.99-.46l9.42-11.26v5.61h-3.12c-.7 0-1.26.56-1.26 1.26v.01c-.01.69.54 1.25 1.23 1.26h3.16v2.24c0 .74.6 1.35 1.35 1.35h1.35V39.16c0-.27-.08-.53-.23-.76-.26-.37-.67-.6-1.12-.6M73.2 42.17h-1.26v1.42a5.643 5.643 0 0 0-3.81-1.45c-3.31 0-5.81 2.69-5.81 6.09s2.5 6.09 5.81 6.09c1.4.01 2.76-.5 3.81-1.42v.14c0 .36.15.7.42.94.01.01.02.02.04.03l.01.01c.22.18.5.28.79.28h1.26V43.41c0-.69-.56-1.25-1.24-1.25-.01.01-.02.01-.02.01m-1.27 6.06c0 2.14-1.56 3.74-3.54 3.74s-3.54-1.61-3.54-3.74c0-2.14 1.56-3.74 3.54-3.74 1.93 0 3.45 1.54 3.54 3.58v.16zM77.74 51.13c-.88 0-1.59.71-1.59 1.59 0 .88.71 1.59 1.59 1.59.88 0 1.59-.71 1.59-1.59.01-.87-.69-1.58-1.56-1.59h-.03M31.7 51.27V39.06c0-.7-.57-1.26-1.26-1.26h-1.26v14.8c0 .94.76 1.7 1.7 1.7s1.7-.76 1.7-1.7l-.5-.48a1.14 1.14 0 0 1-.38-.85M34.98 37.8h-1.26v15.23c0 .7.57 1.26 1.26 1.26h1.26V39.06c.01-.69-.56-1.26-1.26-1.26M44.54 42.17h-2.49c-.37 0-.72.16-.96.45l-4.71 5.57 4.78 5.66c.24.28.59.45.96.45h2.72l-5.27-6.25 4.97-5.88z"/>
    <path d="M49.69 51.98c-1.95 0-3.54-1.68-3.54-3.74s1.58-3.74 3.54-3.74c.54 0 1.06.13 1.54.37l-3.15 3.72c-.41.49-.35 1.22.13 1.63.49.41 1.22.35 1.63-.14l4.68-5.53c-1.11-1.41-2.9-2.41-4.84-2.41-3.36 0-6.09 2.73-6.08 6.09 0 3.36 2.73 6.09 6.09 6.08 2.54 0 4.81-1.58 5.7-3.95h-2.8c-.64.98-1.7 1.62-2.9 1.62M62.68 43.31c0-.64-.52-1.17-1.17-1.17-2.75 0-5.16 2.01-5.16 4.76v6.17c0 .68.55 1.23 1.23 1.23h1.23v-7.28c0-1.4 1.31-2.54 2.71-2.54.64 0 1.16-.53 1.16-1.17"/>
  </g>
</svg>