<?xml version="1.0" encoding="utf-8"?>
<!-- Generator: Adobe Illustrator 27.0.0, SVG Export Plug-In . SVG Version: 6.00 Build 0)  -->
<svg version="1.1" id="Calque_1" xmlns="http://www.w3.org/2000/svg" xmlns:xlink="http://www.w3.org/1999/xlink" x="0px" y="0px"
	 viewBox="0 0 92.12 92.12" enable-background="new 0 0 92.12 92.12" xml:space="preserve">
<g>
	<g>
		<defs>
			<rect id="SVGID_1_" x="12.79" y="37.8" width="66.54" height="16.52"/>
		</defs>
		<clipPath id="SVGID_00000101076580639005596460000011207788476921724805_">
			<use xlink:href="#SVGID_1_"  overflow="visible"/>
		</clipPath>
		
			<g id="Groupe_502-2_00000162316780146964142210000017453427390680120722_" clip-path="url(#SVGID_00000101076580639005596460000011207788476921724805_)">
			<path id="Tracé_682_00000004517367874511611860000013840102210400231092_" fill="#DBFF94" d="M25.82,37.8
				c-0.37,0-0.76,0.14-1.1,0.53L13.09,52.21c-0.45,0.54-0.38,1.34,0.15,1.79c0.23,0.19,0.51,0.3,0.81,0.3
				c0.34,0,0.76-0.21,0.99-0.46l9.42-11.26v5.61h-3.12c-0.7,0-1.26,0.56-1.26,1.26c0,0,0,0,0,0.01c-0.01,0.69,0.54,1.25,1.23,1.26
				c0.01,0,0.02,0,0.04,0h3.12v2.24c0,0.74,0.6,1.35,1.35,1.35h1.35V39.16c0-0.27-0.08-0.53-0.23-0.76
				C26.68,38.03,26.27,37.8,25.82,37.8"/>
			<path id="Tracé_683_00000131353957973950589810000002024598134687151749_" fill="#DBFF94" d="M73.2,42.17h-1.26v1.42
				c-1.04-0.94-2.41-1.46-3.81-1.45c-3.31,0-5.81,2.69-5.81,6.09s2.5,6.09,5.81,6.09c1.4,0.01,2.76-0.5,3.81-1.42v0.14
				c0,0.36,0.15,0.7,0.42,0.94c0.01,0.01,0.02,0.02,0.04,0.03c0,0,0.01,0.01,0.01,0.01c0.22,0.18,0.5,0.28,0.79,0.28h1.26V43.43
				c0-0.01,0-0.01,0-0.02c0-0.69-0.56-1.25-1.24-1.25C73.21,42.17,73.2,42.17,73.2,42.17 M71.93,48.23c0,2.14-1.56,3.74-3.54,3.74
				s-3.54-1.61-3.54-3.74c0-2.14,1.56-3.74,3.54-3.74c1.93,0,3.45,1.54,3.54,3.58L71.93,48.23z"/>
			<path id="Tracé_684_00000032611380814749804730000002124801319604794815_" fill="#DBFF94" d="M77.74,51.13
				c-0.88,0-1.59,0.71-1.59,1.59c0,0.88,0.71,1.59,1.59,1.59c0.88,0,1.59-0.71,1.59-1.59v0c0.01-0.87-0.69-1.58-1.56-1.59
				C77.76,51.13,77.75,51.13,77.74,51.13"/>
			<path id="Tracé_685_00000042003358506034202950000003234462201503968644_" fill="#DBFF94" d="M31.7,51.27V39.06
				c0-0.7-0.57-1.26-1.26-1.26h-1.26v14.8c0,0.94,0.76,1.7,1.7,1.7c0.94,0,1.7-0.76,1.7-1.7l0,0l-0.5-0.48
				C31.83,51.89,31.7,51.59,31.7,51.27"/>
			<path id="Tracé_686_00000016764564351513744350000012651089047458197418_" fill="#DBFF94" d="M34.98,37.8h-1.26v15.23
				c0,0.7,0.57,1.26,1.26,1.26l0,0h1.26V39.06C36.25,38.37,35.68,37.8,34.98,37.8"/>
			<path id="Tracé_687_00000005954836192433636220000011102408423633398426_" fill="#DBFF94" d="M44.54,42.17h-2.49
				c-0.37,0-0.72,0.16-0.96,0.45l-4.71,5.57l4.78,5.66c0.24,0.28,0.59,0.45,0.96,0.45h2.72l-5.27-6.25L44.54,42.17z"/>
			<path id="Tracé_688_00000103952659757010834800000016426634973334493613_" fill="#DBFF94" d="M49.69,51.98
				c-1.95,0-3.54-1.68-3.54-3.74s1.58-3.74,3.54-3.74c0.54,0,1.06,0.13,1.54,0.37l-3.15,3.72c-0.41,0.49-0.35,1.22,0.13,1.63
				c0,0,0,0,0,0l0,0c0.49,0.41,1.22,0.35,1.63-0.14c0,0,0,0,0,0l4.68-5.53c-1.11-1.41-2.9-2.41-4.84-2.41
				c-3.36,0-6.09,2.73-6.08,6.09c0,3.36,2.73,6.09,6.09,6.08c2.54,0,4.81-1.58,5.7-3.95h-2.8C51.95,51.34,50.89,51.98,49.69,51.98"
				/>
			<path id="Tracé_689_00000000217590452405804790000002325126402759177889_" fill="#DBFF94" d="M62.68,43.31
				c0-0.64-0.52-1.17-1.17-1.17c-2.75,0-5.16,2.01-5.16,4.76v6.17c0,0.68,0.55,1.23,1.23,1.23c0,0,0,0,0,0h1.23v-7.28
				c0-1.4,1.31-2.54,2.71-2.54C62.16,44.48,62.68,43.95,62.68,43.31"/>
		</g>
	</g>
</g>
</svg>
