<?xml version="1.0" encoding="utf-8"?>
<!-- Generator: Adobe Illustrator 27.0.0, SVG Export Plug-In . SVG Version: 6.00 Build 0)  -->
<svg version="1.1" id="Calque_1" xmlns="http://www.w3.org/2000/svg" xmlns:xlink="http://www.w3.org/1999/xlink" x="0px" y="0px"
	 viewBox="0 0 92.12 92.12" enable-background="new 0 0 92.12 92.12" xml:space="preserve">
<g>
	<g>
		<rect x="40.44" y="38.61" fill="#FFFFFF" width="0.84" height="5.3"/>
		<path fill="#FFFFFF" d="M51.06,38.97c-0.26-0.34-0.58-0.65-0.93-0.91c-0.01-0.01-0.02-0.02-0.03-0.02
			c-1.1-0.78-2.45-0.91-3.76-0.91c-0.8,0-1.59,0-2.39,0c-0.73,0-1.46,0-2.19,0c-0.02,0-0.49,0-0.49,0v-6.44h4.76v-0.69h-5.58v7.82
			h6.54c2.75,0,4,1.78,4,3.44c0,2.15-1.5,3.44-4,3.44h-6.54v0.69h6.54c3.02,0,4.9-1.59,4.9-4.15C51.88,40.4,51.56,39.62,51.06,38.97
			z"/>
		<path fill="#FFFFFF" d="M46.06,24.07c-7.62,0-13.82,6.2-13.82,13.82c0,7.62,6.2,13.82,13.82,13.82c7.62,0,13.82-6.2,13.82-13.82
			S53.68,24.07,46.06,24.07z M46.06,50.91c-7.18,0-13.03-5.84-13.03-13.03s5.84-13.03,13.03-13.03s13.03,5.84,13.03,13.03
			S53.24,50.91,46.06,50.91z"/>
		<path fill="#FFFFFF" d="M47.6,30.73c0.56,0.08,1.12,0.25,1.59,0.55c0.65,0.39,1.14,1.02,1.34,1.76c0.21,0.77,0.15,1.63-0.27,2.32
			c-0.21,0.36-0.5,0.68-0.78,0.97c-0.11,0.11-0.23,0.23-0.35,0.34c-0.06,0.05-0.11,0.12-0.18,0.16c0,0-0.01,0-0.01,0.01
			c0.26,0.09,0.53,0.2,0.79,0.34c0.03,0.02,0.42-0.41,0.47-0.45c0.47-0.47,0.91-1,1.14-1.63c0.14-0.38,0.2-0.78,0.2-1.18
			c0-0.74-0.17-1.47-0.56-2.1c-0.4-0.63-1.01-1.1-1.7-1.38C48.49,30.11,47.6,30,46.74,30v0.02v0.27v0.38h-0.01c0,0,0,0,0.01,0
			C47.02,30.66,47.31,30.69,47.6,30.73z"/>
	</g>
	<g>
		<path fill="#FFFFFF" d="M15.06,58.18h1.36c0.18,0,0.36,0.02,0.54,0.05c0.18,0.03,0.34,0.09,0.49,0.19c0.15,0.1,0.26,0.23,0.35,0.4
			c0.09,0.17,0.14,0.39,0.14,0.67c0,0.25-0.07,0.47-0.21,0.65c-0.14,0.19-0.35,0.31-0.63,0.37v0.02c0.16,0.02,0.29,0.05,0.42,0.11
			c0.13,0.07,0.24,0.15,0.34,0.25c0.09,0.11,0.16,0.23,0.21,0.38s0.07,0.3,0.07,0.47c0,0.29-0.05,0.51-0.16,0.69
			s-0.24,0.32-0.39,0.42c-0.16,0.11-0.33,0.17-0.51,0.21c-0.19,0.04-0.36,0.06-0.51,0.06h-1.5V58.18z M15.5,60.32h0.91
			c0.23,0,0.41-0.03,0.55-0.09s0.25-0.13,0.34-0.21c0.08-0.08,0.13-0.17,0.16-0.27c0.02-0.1,0.04-0.18,0.04-0.26
			c0-0.17-0.02-0.32-0.08-0.43c-0.06-0.11-0.13-0.2-0.22-0.27s-0.2-0.11-0.33-0.14c-0.12-0.02-0.25-0.04-0.39-0.04H15.5V60.32z
			 M15.5,62.71h1.01c0.25,0,0.47-0.03,0.62-0.1c0.16-0.07,0.28-0.15,0.36-0.25c0.08-0.1,0.14-0.2,0.17-0.31s0.04-0.2,0.04-0.29
			c0-0.18-0.03-0.34-0.1-0.47c-0.07-0.13-0.16-0.24-0.26-0.32c-0.11-0.08-0.23-0.14-0.36-0.18c-0.14-0.04-0.27-0.06-0.41-0.06H15.5
			V62.71z"/>
		<path fill="#FFFFFF" d="M25.81,58.18h0.45l1.98,4.94h-0.49l-0.51-1.32h-2.49l-0.53,1.32h-0.46L25.81,58.18z M26.01,58.69
			l-1.1,2.71h2.16L26.01,58.69z"/>
		<path fill="#FFFFFF" d="M34.63,58.61h-1.61v-0.42h3.65v0.42h-1.61v4.52h-0.44L34.63,58.61L34.63,58.61z"/>
		<path fill="#FFFFFF" d="M42.51,58.18h0.44v4.94h-0.44V58.18z"/>
		<path fill="#FFFFFF" d="M49.36,58.18h2.82v0.42H49.8v1.76h2.21v0.42H49.8v2.35h-0.44V58.18z"/>
		<path fill="#FFFFFF" d="M58.17,58.18h0.44v4.94h-0.44V58.18z"/>
		<path fill="#FFFFFF" d="M64.35,58.18h0.47l1.51,4.33l1.53-4.33h0.47l-1.79,4.94H66.1L64.35,58.18z"/>
		<path fill="#FFFFFF" d="M74.08,58.18h2.88v0.42h-2.44v1.76h2.29v0.42h-2.29v1.93h2.54v0.42h-2.98
			C74.08,63.12,74.08,58.18,74.08,58.18z"/>
		<path fill="#FFFFFF" d="M15.06,68l0.25-1.78h0.03l0.73,1.46l0.72-1.46h0.02L17.07,68H16.9l-0.18-1.27L16.09,68h-0.05l-0.64-1.28
			L15.23,68H15.06z"/>
		<path fill="#FFFFFF" d="M18.9,66.21l0.83,1.78h-0.2l-0.28-0.59h-0.77l-0.28,0.59h-0.2l0.84-1.78H18.9z M18.88,66.59l-0.3,0.65
			h0.61L18.88,66.59z"/>
		<path fill="#FFFFFF" d="M20.73,65.76h0.17l0.35,0.31h-0.22l-0.21-0.19l-0.22,0.19h-0.23L20.73,65.76z M20.72,66.21h0.18v1.78
			h-0.18V66.21z"/>
		<path fill="#FFFFFF" d="M21.88,66.39v-0.17h0.98v0.17h-0.4V68h-0.18v-1.61H21.88z"/>
		<path fill="#FFFFFF" d="M23.87,66.21h0.36c0.2,0,0.34,0.01,0.4,0.02c0.11,0.02,0.2,0.07,0.26,0.16c0.07,0.08,0.1,0.18,0.1,0.29
			c0,0.1-0.02,0.18-0.07,0.25c-0.05,0.07-0.11,0.13-0.2,0.16c-0.08,0.04-0.2,0.06-0.35,0.06l0.65,0.83H24.8l-0.65-0.83h-0.1v0.83
			h-0.18L23.87,66.21L23.87,66.21z M24.05,66.39v0.6h0.31c0.12,0,0.2-0.01,0.26-0.03c0.06-0.02,0.1-0.06,0.13-0.11
			c0.03-0.05,0.05-0.11,0.05-0.16s-0.02-0.11-0.05-0.16c-0.03-0.05-0.07-0.08-0.13-0.11c-0.05-0.02-0.14-0.03-0.26-0.03
			C24.36,66.39,24.05,66.39,24.05,66.39z"/>
		<path fill="#FFFFFF" d="M26.09,66.21h0.18v1.78h-0.18V66.21z"/>
		<path fill="#FFFFFF" d="M27.24,67.66l0.16-0.09c0.11,0.2,0.23,0.29,0.37,0.29c0.06,0,0.11-0.02,0.17-0.04
			c0.05-0.02,0.09-0.07,0.12-0.11c0.02-0.05,0.04-0.1,0.04-0.15c0-0.06-0.02-0.11-0.06-0.18c-0.06-0.08-0.16-0.17-0.3-0.29
			c-0.15-0.11-0.25-0.2-0.28-0.25c-0.07-0.08-0.1-0.17-0.1-0.27c0-0.08,0.02-0.15,0.06-0.21c0.04-0.07,0.09-0.11,0.16-0.15
			c0.07-0.03,0.14-0.06,0.22-0.06s0.16,0.02,0.24,0.07c0.07,0.04,0.15,0.11,0.23,0.23l-0.15,0.11c-0.07-0.09-0.12-0.15-0.17-0.18
			c-0.05-0.02-0.1-0.04-0.16-0.04c-0.07,0-0.13,0.02-0.18,0.07c-0.05,0.04-0.07,0.1-0.07,0.16c0,0.04,0.01,0.07,0.02,0.11
			c0.02,0.03,0.05,0.07,0.09,0.12c0.02,0.02,0.1,0.08,0.23,0.18c0.16,0.11,0.26,0.21,0.32,0.3s0.09,0.18,0.09,0.27
			c0,0.13-0.05,0.25-0.15,0.34c-0.1,0.1-0.22,0.15-0.36,0.15c-0.11,0-0.2-0.03-0.29-0.09C27.39,67.9,27.31,67.8,27.24,67.66z"/>
		<path fill="#FFFFFF" d="M29.41,66.21h1.02v0.17h-0.84v0.56h0.83v0.17h-0.83v0.7h0.83v0.17h-1.01V66.21z"/>
		<path fill="#FFFFFF" d="M32.21,68v-1.78h0.37c0.27,0,0.46,0.02,0.58,0.07c0.17,0.06,0.31,0.16,0.41,0.32
			c0.1,0.15,0.15,0.33,0.15,0.53c0,0.18-0.04,0.34-0.11,0.47c-0.07,0.14-0.18,0.24-0.3,0.3C33.17,67.97,33,68,32.78,68L32.21,68
			L32.21,68z M32.38,67.82h0.2c0.25,0,0.42-0.02,0.51-0.05c0.13-0.04,0.24-0.12,0.32-0.24c0.07-0.11,0.11-0.25,0.11-0.42
			c0-0.17-0.04-0.32-0.12-0.44s-0.2-0.2-0.35-0.25c-0.11-0.03-0.29-0.05-0.56-0.05h-0.12C32.38,66.38,32.38,67.82,32.38,67.82z"/>
		<path fill="#FFFFFF" d="M34.13,66.78h-0.14c-0.01-0.17-0.02-0.61-0.02-0.61h0.22C34.18,66.17,34.13,66.78,34.13,66.78z"/>
		<path fill="#FFFFFF" d="M35.42,66.17c0.27,0,0.5,0.09,0.68,0.27c0.18,0.18,0.27,0.4,0.27,0.67c0,0.26-0.09,0.48-0.27,0.66
			c-0.18,0.18-0.4,0.27-0.66,0.27c-0.26,0-0.49-0.09-0.67-0.27c-0.18-0.18-0.27-0.4-0.27-0.65c0-0.17,0.04-0.33,0.12-0.47
			c0.08-0.15,0.2-0.26,0.34-0.34C35.1,66.21,35.26,66.17,35.42,66.17z M35.43,66.34c-0.13,0-0.25,0.03-0.38,0.11
			c-0.11,0.07-0.21,0.16-0.28,0.28c-0.07,0.11-0.1,0.25-0.1,0.39c0,0.21,0.07,0.39,0.22,0.54c0.15,0.15,0.33,0.22,0.53,0.22
			c0.14,0,0.27-0.03,0.38-0.1s0.21-0.16,0.28-0.28c0.07-0.11,0.1-0.25,0.1-0.39c0-0.14-0.03-0.27-0.1-0.38
			c-0.07-0.11-0.16-0.2-0.28-0.28C35.69,66.37,35.57,66.34,35.43,66.34z"/>
		<path fill="#FFFFFF" d="M36.2,66.21h1.02v0.17h-0.85v0.56h0.83v0.17h-0.83v0.7h0.83v0.17h-1.01L36.2,66.21L36.2,66.21z"/>
		<path fill="#FFFFFF" d="M38.3,66.21h0.18v1.08c0,0.13,0,0.2,0.01,0.24c0.01,0.07,0.03,0.13,0.07,0.18s0.08,0.09,0.15,0.12
			c0.07,0.03,0.13,0.05,0.2,0.05c0.06,0,0.11-0.02,0.17-0.04s0.1-0.06,0.14-0.11c0.03-0.04,0.07-0.1,0.08-0.16
			c0.01-0.05,0.02-0.14,0.02-0.28v-1.08h0.18v1.08c0,0.16-0.02,0.29-0.05,0.38c-0.03,0.1-0.09,0.18-0.19,0.25
			c-0.09,0.07-0.2,0.11-0.34,0.11c-0.15,0-0.27-0.03-0.37-0.11c-0.11-0.07-0.17-0.16-0.2-0.27c-0.02-0.07-0.03-0.2-0.03-0.38v-1.07
			H38.3z"/>
		<path fill="#FFFFFF" d="M40.56,66.21h0.2l0.59,1.38l0.6-1.38h0.2l-0.78,1.78h-0.04L40.56,66.21z"/>
		<path fill="#FFFFFF" d="M43.23,66.21h0.36c0.2,0,0.34,0.01,0.4,0.02c0.11,0.02,0.2,0.07,0.26,0.16c0.07,0.08,0.1,0.18,0.1,0.29
			c0,0.1-0.02,0.18-0.07,0.25c-0.05,0.07-0.11,0.13-0.2,0.16c-0.08,0.04-0.2,0.06-0.35,0.06l0.65,0.83h-0.22l-0.65-0.83h-0.1v0.83
			h-0.19V66.21z M43.4,66.39v0.6h0.31c0.12,0,0.2-0.01,0.26-0.03c0.06-0.02,0.1-0.06,0.13-0.11c0.03-0.05,0.05-0.11,0.05-0.16
			s-0.02-0.11-0.05-0.16c-0.03-0.05-0.07-0.08-0.13-0.11c-0.05-0.02-0.14-0.03-0.26-0.03C43.71,66.39,43.4,66.39,43.4,66.39z"/>
		<path fill="#FFFFFF" d="M45.42,66.21h1.02v0.17H45.6v0.56h0.83v0.17H45.6v0.7h0.83v0.17h-1.01V66.21z"/>
		<path fill="#FFFFFF" d="M49.59,67.33l0.12,0.13c-0.08,0.07-0.16,0.13-0.22,0.18c0.05,0.04,0.11,0.11,0.19,0.19
			c0.07,0.07,0.11,0.11,0.16,0.17h-0.25l-0.24-0.25c-0.15,0.12-0.27,0.2-0.36,0.24c-0.09,0.03-0.19,0.06-0.29,0.06
			c-0.14,0-0.25-0.04-0.34-0.11c-0.08-0.08-0.12-0.18-0.12-0.29c0-0.09,0.02-0.18,0.08-0.27c0.06-0.09,0.17-0.2,0.34-0.34
			c-0.1-0.11-0.16-0.2-0.19-0.26c-0.02-0.06-0.04-0.11-0.04-0.16c0-0.09,0.03-0.16,0.11-0.22c0.08-0.07,0.18-0.1,0.29-0.1
			c0.07,0,0.14,0.02,0.2,0.04c0.07,0.03,0.11,0.07,0.14,0.12c0.03,0.05,0.05,0.11,0.05,0.16c0,0.06-0.02,0.12-0.07,0.19
			s-0.12,0.16-0.25,0.26l0.27,0.29l0.18,0.18C49.46,67.45,49.53,67.38,49.59,67.33z M48.78,67.15c-0.16,0.11-0.25,0.2-0.29,0.27
			c-0.05,0.07-0.07,0.13-0.07,0.19c0,0.07,0.03,0.13,0.09,0.18c0.06,0.05,0.13,0.08,0.21,0.08c0.07,0,0.12-0.02,0.19-0.04
			c0.1-0.04,0.2-0.11,0.33-0.21l-0.28-0.29C48.9,67.29,48.85,67.22,48.78,67.15z M48.81,66.92c0.09-0.07,0.16-0.13,0.2-0.2
			c0.03-0.05,0.05-0.09,0.05-0.12c0-0.04-0.02-0.07-0.06-0.11c-0.04-0.03-0.09-0.04-0.16-0.04c-0.07,0-0.11,0.02-0.16,0.05
			c-0.04,0.03-0.06,0.07-0.06,0.11c0,0.03,0.01,0.07,0.02,0.09C48.68,66.76,48.73,66.84,48.81,66.92z"/>
		<path fill="#FFFFFF" d="M52.34,66.21l0.83,1.78h-0.2L52.7,67.4h-0.77l-0.28,0.59h-0.2l0.84-1.78H52.34z M52.31,66.59l-0.3,0.65
			h0.61L52.31,66.59z"/>
		<path fill="#FFFFFF" d="M54.2,66.21h0.36c0.2,0,0.34,0.01,0.4,0.02c0.11,0.02,0.2,0.07,0.26,0.16c0.07,0.08,0.1,0.18,0.1,0.29
			c0,0.1-0.02,0.18-0.07,0.25c-0.05,0.07-0.11,0.13-0.2,0.16c-0.08,0.04-0.2,0.06-0.35,0.06l0.65,0.83h-0.22l-0.65-0.83h-0.1v0.83
			h-0.18L54.2,66.21L54.2,66.21z M54.38,66.39v0.6h0.31c0.12,0,0.2-0.01,0.26-0.03c0.06-0.02,0.1-0.06,0.13-0.11
			c0.03-0.05,0.05-0.11,0.05-0.16s-0.02-0.11-0.05-0.16c-0.03-0.05-0.07-0.08-0.13-0.11c-0.05-0.02-0.14-0.03-0.26-0.03
			C54.69,66.39,54.38,66.39,54.38,66.39z"/>
		<path fill="#FFFFFF" d="M58.11,66.54l-0.14,0.11c-0.08-0.1-0.17-0.18-0.28-0.23c-0.11-0.05-0.23-0.08-0.36-0.08
			c-0.14,0-0.28,0.03-0.39,0.11c-0.12,0.07-0.21,0.16-0.29,0.28c-0.07,0.11-0.1,0.25-0.1,0.39c0,0.22,0.07,0.4,0.22,0.55
			c0.15,0.15,0.34,0.22,0.56,0.22c0.25,0,0.46-0.1,0.63-0.29l0.14,0.11c-0.09,0.11-0.2,0.2-0.34,0.26
			c-0.13,0.07-0.28,0.09-0.45,0.09c-0.31,0-0.56-0.11-0.74-0.31c-0.16-0.17-0.23-0.38-0.23-0.64c0-0.26,0.09-0.48,0.28-0.66
			c0.18-0.18,0.42-0.27,0.69-0.27c0.16,0,0.32,0.03,0.45,0.1C57.91,66.33,58.02,66.42,58.11,66.54z"/>
		<path fill="#FFFFFF" d="M59.21,66.21h0.18v0.75h0.91v-0.75h0.18v1.78H60.3v-0.86h-0.91v0.86h-0.18V66.21z"/>
		<path fill="#FFFFFF" d="M61.63,66.21h0.18v1.78h-0.18V66.21z"/>
		<path fill="#FFFFFF" d="M62.78,66.39v-0.17h0.98v0.17h-0.4V68h-0.18v-1.61H62.78z"/>
		<path fill="#FFFFFF" d="M64.77,66.21h1.02v0.17h-0.84v0.56h0.83v0.17h-0.83v0.7h0.83v0.17h-1.01V66.21z"/>
		<path fill="#FFFFFF" d="M68.5,66.54l-0.14,0.11c-0.08-0.1-0.17-0.18-0.28-0.23s-0.23-0.08-0.36-0.08c-0.14,0-0.28,0.03-0.39,0.11
			c-0.12,0.07-0.21,0.16-0.29,0.28c-0.07,0.11-0.1,0.25-0.1,0.39c0,0.22,0.07,0.4,0.22,0.55c0.15,0.15,0.34,0.22,0.56,0.22
			c0.25,0,0.46-0.1,0.63-0.29l0.14,0.11c-0.09,0.11-0.2,0.2-0.34,0.26c-0.13,0.07-0.28,0.09-0.45,0.09c-0.31,0-0.56-0.11-0.74-0.31
			c-0.16-0.17-0.23-0.38-0.23-0.64c0-0.26,0.09-0.48,0.28-0.66c0.18-0.18,0.42-0.27,0.69-0.27c0.16,0,0.32,0.03,0.45,0.1
			C68.31,66.33,68.42,66.42,68.5,66.54z"/>
		<path fill="#FFFFFF" d="M69.43,66.39v-0.17h0.98v0.17h-0.4V68h-0.18v-1.61H69.43z"/>
		<path fill="#FFFFFF" d="M71.41,66.21h0.18v1.08c0,0.13,0,0.2,0.01,0.24c0.01,0.07,0.03,0.13,0.07,0.18s0.08,0.09,0.15,0.12
			s0.13,0.05,0.2,0.05c0.06,0,0.11-0.02,0.17-0.04c0.06-0.02,0.1-0.06,0.14-0.11c0.03-0.04,0.07-0.1,0.08-0.16
			c0.01-0.05,0.02-0.14,0.02-0.28v-1.08h0.18v1.08c0,0.16-0.02,0.29-0.05,0.38s-0.09,0.18-0.19,0.25c-0.09,0.07-0.2,0.11-0.34,0.11
			c-0.15,0-0.27-0.03-0.37-0.11c-0.11-0.07-0.17-0.16-0.2-0.27c-0.02-0.07-0.03-0.2-0.03-0.38v-1.07H71.41z"/>
		<path fill="#FFFFFF" d="M73.79,66.21h0.36c0.2,0,0.34,0.01,0.4,0.02c0.11,0.02,0.2,0.07,0.26,0.16c0.07,0.08,0.1,0.18,0.1,0.29
			c0,0.1-0.02,0.18-0.07,0.25c-0.05,0.07-0.11,0.13-0.2,0.16c-0.08,0.04-0.2,0.06-0.35,0.06l0.65,0.83h-0.22l-0.65-0.83h-0.1v0.83
			H73.8L73.79,66.21L73.79,66.21z M73.97,66.39v0.6h0.31c0.12,0,0.2-0.01,0.26-0.03c0.06-0.02,0.1-0.06,0.13-0.11
			c0.03-0.05,0.05-0.11,0.05-0.16s-0.02-0.11-0.05-0.16c-0.03-0.05-0.07-0.08-0.13-0.11c-0.05-0.02-0.14-0.03-0.26-0.03
			C74.28,66.39,73.97,66.39,73.97,66.39z"/>
		<path fill="#FFFFFF" d="M76.04,66.21h1.02v0.17h-0.84v0.56h0.83v0.17h-0.83v0.7h0.83v0.17h-1.01V66.21z"/>
	</g>
</g>
</svg>
