<?xml version="1.0" encoding="utf-8"?>
<!-- Generator: Adobe Illustrator 27.0.0, SVG Export Plug-In . SVG Version: 6.00 Build 0)  -->
<svg version="1.1" id="Calque_1" xmlns="http://www.w3.org/2000/svg" xmlns:xlink="http://www.w3.org/1999/xlink" x="0px" y="0px"
	 viewBox="0 0 92.12 92.12" enable-background="new 0 0 92.12 92.12" xml:space="preserve">
<g>
	<g>
		<path fill="#FFFFFF" d="M67.93,24.42l-6.42,4.52l-6.17-5.05l4.52,6.52l-5.06,6.05l6.52-4.42l5.97,5.06l-4.33-6.56L67.93,24.42z
			 M61.37,30.45L61.37,30.45l0-0.01L61.37,30.45L61.37,30.45z"/>
		<g>
			<path fill="#FFFFFF" d="M45.35,35.45c-0.25,0.06,0.78-0.15,1.47-0.4c-0.24,0.07-0.48,0.14-0.73,0.22
				C45.84,35.33,45.59,35.39,45.35,35.45"/>
			<path fill="#FFFFFF" d="M59.01,30.94c-2.19-4.45-6.77-7.51-12.06-7.51c-7.26,0-13.17,5.75-13.43,12.94
				c1.22,0.05,2.43,0.05,3.6,0.01c2.32-0.14,4.45-0.58,6.36-1.17c0.18-0.05,0.5-0.12,0.84-0.19c0.34-0.08,0.72-0.18,1.04-0.26
				c0.56-0.15,1.09-0.35,1.63-0.54l0.4-0.15c0.13-0.05,0.26-0.11,0.39-0.17l0.78-0.34c2.2-0.95,4.31-1.94,6.41-3.43
				c0.22-0.14,0.48-0.29,0.57-0.3c0.05,0,0.05,0.03-0.02,0.11c-0.07,0.08-0.21,0.22-0.47,0.41c-0.42,0.32-0.85,0.63-1.28,0.93
				c-0.45,0.28-1.59,0.81-1.59,0.81s-0.38,0.2-0.53,0.27c-0.3,0.15-0.6,0.31-0.91,0.47c-0.31,0.16-0.63,0.29-0.95,0.44l-0.48,0.22
				c-0.16,0.07,1.43-0.48,3.09-1.38c0,0,1.52-0.89,1.46-0.84c0.5-0.3,0.99-0.61,1.48-0.93c0.35-0.25,1.33-1.09,1.01-0.77
				c-0.35,0.35-1.4,1.17-1.59,1.3c-0.18,0.12-0.36,0.25-0.53,0.37c-0.18,0.12-0.36,0.25-0.55,0.35c-0.38,0.22-0.75,0.44-1.13,0.67
				c-0.19,0.12-0.38,0.21-0.58,0.31l-0.59,0.3c-0.2,0.1-0.39,0.2-0.59,0.3c-0.2,0.09-0.4,0.18-0.6,0.27
				c-0.4,0.17-0.79,0.36-1.19,0.52c-0.4,0.16-0.79,0.31-1.18,0.46c0.46-0.12,0.97-0.32,1.46-0.53c0.49-0.22,0.96-0.43,1.36-0.55
				c-0.71,0.3-1.41,0.64-2.15,0.89c-0.37,0.13-0.73,0.28-1.1,0.39c-0.37,0.11-0.75,0.23-1.13,0.34l-0.29,0.1
				c-0.1,0.03-0.2,0.06-0.31,0.09c-0.21,0.06-0.44,0.11-0.69,0.17c0.28-0.03,0.67-0.12,1.06-0.2c0.5-0.15,1-0.31,1.49-0.46
				c-0.76,0.24-1.5,0.53-2.2,0.74c0.26-0.06,0.53-0.12,0.8-0.19c0.26-0.08,0.53-0.16,0.79-0.24c0.27-0.08,0.53-0.16,0.79-0.24
				c0.26-0.09,0.52-0.18,0.78-0.28c1.92-0.75,3.76-1.67,5.54-2.7c-0.28,0.24-0.7,0.54-0.86,0.73c0.03,0.03,0.62-0.29,0.29-0.08
				c-0.29,0.2-0.57,0.38-0.83,0.55c-0.27,0.15-0.51,0.28-0.73,0.4c-0.44,0.24-0.78,0.46-1,0.68c-0.07,0.13,1.46-0.41,1.02-0.13
				c-0.19,0.11-0.46,0.26-0.77,0.42c-0.32,0.15-0.69,0.32-1.07,0.5c-0.23,0.09-0.45,0.2-0.7,0.28c-0.03,0.01-0.08,0.04-0.14,0.08
				c-0.43,0.16-0.84,0.32-1.21,0.46c-0.37,0.13-0.7,0.22-0.93,0.29c-0.17,0.05-0.34,0.1-0.51,0.15c-0.09,0.02-0.17,0.02-0.24,0.02
				c-0.1,0.05-0.21,0.09-0.31,0.12c-0.46,0.11-0.92,0.22-1.37,0.33c-0.26,0.03-0.51,0.07-0.77,0.1c0.01,0.01,0.05,0.02,0.01,0.05
				c-0.28,0.06-0.57,0.11-0.85,0.17c-0.28,0.05-0.57,0.09-0.85,0.14c-0.23,0.02-0.45,0.03-0.64,0.02c-0.3,0.11-0.81,0.18-1.37,0.25
				c-0.56,0.06-1.17,0.09-1.67,0.14l0,0c-0.5,0.03-1.01,0.04-1.52,0.07c-0.09-0.01-0.5-0.02-0.56,0c-0.41-0.02-1.28-0.02-1.41-0.02
				c-0.27-0.01-0.53-0.02-0.78-0.02c-0.29-0.02-0.59-0.04-0.9-0.06c-0.51-0.03-1.01-0.1-1.51-0.16c-0.5-0.07-0.99-0.13-1.48-0.22
				c-0.03-0.02-0.03-0.04-0.04-0.06c-0.16,0.01-1.57-0.26-1.66-0.26c-0.02-0.01-0.34-0.08-0.7-0.17c-0.4-0.06-0.83-0.13-1.26-0.25
				c-0.59-0.16-1.03-0.29-0.96-0.17c0.07,0.12,0.55,0.31,1.18,0.5c0.63,0.19,1.41,0.38,2.07,0.53c-1.16-0.09-2.47-0.49-3.61-0.81
				c0.26,0.12,0.39,0.22,0.78,0.34c0.49,0.15,0.98,0.29,1.48,0.43c0.5,0.11,3.03,0.64,3.19,0.63c0.01,0.02,0.01,0.04,0.04,0.06
				c0.49,0.09,0.98,0.15,1.48,0.22c0.39,0.04,0.78,0.09,1.18,0.13c0.06,0.7,0.18,1.38,0.35,2.04c0.54-0.02,1.39-0.06,1.52-0.07
				c0.22-0.02,1.04-0.06,1.27-0.09c0.23-0.02,1.58-0.2,1.9-0.23c0,0,0,0,0.01,0c2.02-0.18,3.97-0.52,5.99-0.96
				c0.3-0.06,0.51-0.17,0.81-0.25c0.3-0.08,0.59-0.15,0.88-0.24c0,0,0-0.01-0.01-0.01c1.21-0.35,2.36-0.62,3.55-1.13
				c0.56-0.23,1.04-0.45,1.6-0.69c0.59-0.18,0.71-0.26,0.86-0.31c0.59-0.17,0.67-0.19,1.3-0.47c0,0,0.02,0.03,0.02,0.05
				c0.09-0.05,0.17-0.1,0.24-0.13c-0.19,0.33-0.92,0.77-0.06,0.5v0c-0.04,0.03-0.08,0.05-0.11,0.08l-0.01,0.01l0,0
				c-0.17,0.12-0.27,0.21-0.36,0.32l0.37-0.18c0.09,0.01,0.03,0.03,0.06,0.04c0.03,0-0.06,0.06-0.07,0.07
				c0.03,0.02-0.07,0.08-0.07,0.08c-0.01,0.02-0.05,0.01-0.06,0.03c-0.29,0.23-0.78,0.51-0.65,0.53c0.09,0,0.36-0.14,0.62-0.29
				c0.02,0,0.14,0.03,0.16,0.03c-0.35,0.19-0.23,0.16-0.51,0.33c-0.3,0.17-2.33,1.32-3.51,1.78c-0.05,0.02-2.67,0.89-3.25,1.05
				c0.03-0.02,1.82-0.76,1.85-0.79c-0.47,0.12-1.76,0.41-2.22,0.55c-1.13,0.37-2.28,0.67-3.53,0.9c-1.31,0.23-2.58,0.4-3.92,0.55
				c0.55-0.07-1.15,0.07-1.23,0.07c-0.55,0-1.56,0.11-1.75,0.11c-0.48,0-1.94,0.01-2.15,0.04c-1.72-0.04-3.38-0.11-5.22-0.47
				c-0.45-0.1-1.01-0.27-1.45-0.43c0.35,0.07,0.65,0.18,1,0.23c0.17,0.03,0.42,0.08,0.59,0.11c0.18,0.02,0.28,0.04,0.47,0.06
				c-0.16-0.04-0.48-0.11-0.61-0.14c-0.2-0.05-0.4-0.11-0.61-0.16c0.01,0,0.02,0,0.03,0c0.32,0.05,0.64,0.12,0.97,0.16
				c0.3,0.07-0.98-0.29-1.57-0.5c-0.33-0.14-1.12-0.43-1.29-0.49c-0.76-0.29-0.7-0.36-1.25-0.55c-0.09-0.03-0.18-0.06-0.27-0.09
				c-0.06-0.02-0.13-0.04-0.18-0.05c-0.12,0-0.16-0.03-0.27-0.03c0.25,0.1-0.21,0.02-0.25,0.03c0.37,0.15,0.73,0.3,1.1,0.44
				c0.38,0.13,0.76,0.31,1.14,0.44c0.38,0.13,0.84,0.31,0.51,0.22c-0.33-0.08-0.65-0.2-0.98-0.31c-0.33-0.11-0.67-0.22-0.99-0.34
				c-0.33-0.13-0.65-0.25-0.97-0.37c-0.06,0.03-0.08,0.08-0.06,0.15c0.34,0.15,0.68,0.3,1.03,0.44c0.35,0.13,0.7,0.24,1.05,0.36
				c0.7,0.25,1.37,0.47,2.08,0.7c0,0,0.42,0.12,0.8,0.22c0.61,0.15,2.46,0.56,2.46,0.56s-0.7-0.07-0.95-0.11
				c-0.99-0.16-2.14-0.41-2.26-0.46c0.03,0.01,0.62,0.32,2.16,0.7c0.45,0.11,0.73,0.18,1.68,0.34c0.93,0.15,1.95,0.22,2.96,0.27
				c0.15,0,0.27,0,0.38,0c0.21,0.46,0.44,0.91,0.7,1.34c0.99,0.05,1.98,0.07,2.94,0.05c2.33-0.08,4.46-0.47,6.39-1.01
				c0.18-0.05,0.5-0.11,0.85-0.17c0.34-0.07,0.72-0.16,1.04-0.23c0.56-0.13,1.1-0.33,1.64-0.5l0.41-0.13
				c0.13-0.05,0.26-0.1,0.4-0.16l0.79-0.32c2.22-0.9,4.36-1.83,6.49-3.27c0.22-0.13,0.48-0.28,0.58-0.29c0.05,0,0.05,0.03-0.02,0.11
				c-0.07,0.08-0.21,0.22-0.48,0.39c-0.43,0.31-0.86,0.61-1.31,0.9c-0.46,0.27-0.92,0.53-1.39,0.79c0,0-0.01,0.01-0.01,0.01
				c0.73-0.42,1.67-0.92,1.47-0.81c0.51-0.29,1.02-0.59,1.52-0.9c0.53-0.36,1.7-1.08,1.15-0.7c-0.74,0.51-1.56,1.1-1.75,1.21
				c-0.18,0.12-0.36,0.24-0.54,0.36c-0.18,0.12-0.36,0.24-0.56,0.34c-0.38,0.21-0.77,0.42-1.15,0.64c-0.19,0.11-0.39,0.2-0.59,0.3
				l-0.59,0.28c-0.2,0.09-0.4,0.19-0.59,0.28c-0.2,0.09-0.4,0.17-0.6,0.25c-0.4,0.16-0.8,0.34-1.2,0.49c-0.4,0.15-0.8,0.29-1.2,0.44
				c0.46-0.11,0.98-0.29,1.48-0.49c0.49-0.21,0.97-0.41,1.37-0.51c-0.72,0.29-1.42,0.6-2.17,0.83c-0.37,0.12-0.73,0.26-1.11,0.36
				c-0.38,0.1-0.76,0.21-1.14,0.31l-0.29,0.1c-0.1,0.03-0.2,0.05-0.31,0.08c-0.21,0.05-0.44,0.1-0.69,0.16
				c0.28-0.03,0.67-0.1,1.06-0.18c0.5-0.14,1.01-0.28,1.5-0.42c-0.77,0.22-1.51,0.49-2.21,0.69c0.27-0.06,0.54-0.11,0.8-0.17
				c0.27-0.07,0.53-0.15,0.8-0.22c0.27-0.07,0.54-0.14,0.8-0.22c0.26-0.09,0.52-0.17,0.78-0.26c1.93-0.7,3.8-1.58,5.6-2.56
				c-0.29,0.24-0.72,0.52-0.88,0.71c0.03,0.03,0.62-0.28,0.3-0.07c-0.3,0.2-0.58,0.37-0.84,0.52c-0.27,0.14-0.52,0.27-0.74,0.38
				c-0.45,0.23-0.79,0.44-1.01,0.66c-0.07,0.12,1.47-0.38,1.02-0.11c-0.19,0.1-0.46,0.25-0.78,0.4c-0.33,0.14-0.7,0.3-1.09,0.47
				c-0.23,0.08-0.46,0.19-0.71,0.27c-0.03,0.01-0.08,0.04-0.14,0.07c-0.43,0.15-0.85,0.3-1.22,0.43c-0.37,0.12-0.7,0.2-0.93,0.26
				c-0.17,0.05-0.34,0.09-0.52,0.13c-0.09,0.01-0.17,0.02-0.24,0.01c-0.1,0.05-0.21,0.08-0.32,0.12c-0.46,0.1-0.92,0.2-1.37,0.3
				c-0.26,0.03-1.33,0.23-1.62,0.28c-0.29,0.04-0.57,0.08-0.86,0.11c-0.23,0.01-1.46,0.17-2.02,0.22c-0.56,0.05-1.17,0.06-1.67,0.1
				l0,0c-0.5,0.01-1.01,0.02-1.52,0.03c-0.09-0.01-0.5-0.03-0.56-0.02c-0.41-0.03-1.28-0.05-1.41-0.06
				c-0.27-0.02-0.53-0.03-0.78-0.04c-0.3-0.03-0.59-0.06-0.9-0.09c-0.51-0.04-1.01-0.13-1.51-0.19c-0.5-0.08-0.99-0.16-1.48-0.26
				c-0.01-0.01-0.43-0.07-0.8-0.16c-0.44-0.1-0.84-0.21-0.89-0.22c-0.03-0.01-0.06-0.01-0.09-0.02c0.06,0.03,0.09,0.04,0.06,0.03
				c0.13,0.05-0.23,0.01-0.4-0.02c-0.51-0.1-1.26-0.27-1.84-0.45c-0.59-0.18-1.02-0.32-0.96-0.2c0.06,0.12,0.54,0.32,1.17,0.53
				c0.63,0.21,1.4,0.41,2.06,0.58c-1.15-0.12-2.46-0.55-3.59-0.89c0.26,0.13,0.39,0.23,0.77,0.36c0.49,0.16,0.98,0.32,1.47,0.46
				c0.5,0.12,1.19,0.34,1.79,0.47c0.6,0.14,2.4,0.48,2.9,0.56c0.5,0.06,1,0.15,1.51,0.19c0.3,0.03,1.37,0.07,1.64,0.09
				c0.05,0,0.18,0,0.32,0.01c2.47,2.92,6.15,4.77,10.27,4.77c7.42,0,13.44-6.02,13.44-13.44c0-1.21-0.17-2.39-0.47-3.5l-6.8,4.61
				L59.01,30.94z"/>
		</g>
	</g>
	<g>
		<path fill="#FFFFFF" d="M20.38,64.39v1.12c-0.62,0.21-1.22,0.32-1.81,0.32c-0.97,0-1.74-0.26-2.32-0.79
			c-0.58-0.53-0.87-1.24-0.87-2.13c0-0.9,0.28-1.62,0.84-2.17c0.56-0.55,1.3-0.82,2.22-0.82c0.32,0,0.61,0.03,0.86,0.08
			c0.25,0.06,0.57,0.16,0.94,0.31v1.2c-0.62-0.36-1.19-0.55-1.72-0.55c-0.55,0-1.01,0.18-1.36,0.54c-0.35,0.36-0.53,0.81-0.53,1.37
			c0,0.58,0.19,1.05,0.58,1.39c0.38,0.34,0.9,0.51,1.55,0.51C19.23,64.77,19.77,64.64,20.38,64.39z"/>
		<path fill="#FFFFFF" d="M22.41,57.62c0.2,0,0.37,0.06,0.52,0.19c0.14,0.13,0.22,0.29,0.22,0.47c0,0.18-0.07,0.34-0.22,0.47
			c-0.14,0.13-0.32,0.2-0.52,0.2c-0.19,0-0.35-0.07-0.5-0.2c-0.14-0.13-0.22-0.29-0.22-0.47c0-0.17,0.07-0.33,0.22-0.46
			C22.06,57.69,22.22,57.62,22.41,57.62z M21.81,60.02h1.23v5.7h-1.23V60.02z"/>
		<path fill="#FFFFFF" d="M24.75,57.06h1.23v3.37c0.53-0.36,1.1-0.53,1.7-0.53c0.79,0,1.43,0.27,1.93,0.82
			c0.5,0.55,0.75,1.25,0.75,2.1c0,0.92-0.3,1.65-0.89,2.19c-0.6,0.54-1.39,0.82-2.39,0.82c-0.4,0-0.82-0.04-1.26-0.12
			c-0.44-0.08-0.79-0.18-1.05-0.3V57.06z M25.98,61.51v3.09c0.42,0.12,0.85,0.17,1.29,0.17c0.54,0,0.99-0.18,1.33-0.53
			c0.34-0.36,0.52-0.81,0.52-1.37c0-0.57-0.16-1.03-0.48-1.38c-0.32-0.36-0.74-0.53-1.26-0.53C26.91,60.95,26.45,61.14,25.98,61.51z
			"/>
		<path fill="#FFFFFF" d="M31.73,57.06h1.23v8.66h-1.23V57.06z"/>
		<path fill="#FFFFFF" d="M40.01,62.97h-4.36c0.03,0.55,0.23,0.98,0.6,1.3c0.37,0.32,0.84,0.48,1.42,0.48
			c0.81,0,1.55-0.23,2.24-0.69v1.1c-0.38,0.23-0.75,0.4-1.12,0.5c-0.37,0.1-0.8,0.15-1.3,0.15c-0.68,0-1.23-0.13-1.66-0.39
			c-0.42-0.26-0.76-0.61-1.01-1.05c-0.25-0.44-0.38-0.95-0.38-1.53c0-0.87,0.27-1.57,0.8-2.12c0.53-0.54,1.23-0.82,2.08-0.82
			c0.82,0,1.48,0.26,1.97,0.79c0.49,0.53,0.73,1.24,0.73,2.13V62.97z M35.67,62.3h3.12c-0.03-0.45-0.18-0.8-0.44-1.04
			c-0.26-0.24-0.61-0.37-1.05-0.37c-0.44,0-0.8,0.12-1.08,0.37C35.94,61.5,35.76,61.85,35.67,62.3z"/>
		<path fill="#FFFFFF" d="M48.92,68.63v-8.61h2.15c1.1,0,1.96,0.25,2.57,0.76c0.61,0.5,0.92,1.21,0.92,2.11
			c0,0.86-0.29,1.56-0.87,2.11c-0.58,0.55-1.31,0.82-2.21,0.82c-0.4,0-0.83-0.08-1.31-0.24v3.05H48.92z M51.04,61.07h-0.87v3.51
			c0.38,0.18,0.77,0.27,1.19,0.27c0.57,0,1.05-0.18,1.41-0.55c0.37-0.37,0.55-0.84,0.55-1.42c0-0.37-0.09-0.7-0.26-0.99
			c-0.17-0.29-0.41-0.49-0.71-0.62C52.05,61.14,51.61,61.07,51.04,61.07z"/>
		<path fill="#FFFFFF" d="M61.17,62.97h-4.36c0.03,0.55,0.23,0.98,0.6,1.3c0.37,0.32,0.84,0.48,1.42,0.48
			c0.81,0,1.55-0.23,2.24-0.69v1.1c-0.38,0.23-0.75,0.4-1.12,0.5c-0.37,0.1-0.8,0.15-1.3,0.15c-0.68,0-1.23-0.13-1.66-0.39
			c-0.42-0.26-0.76-0.61-1.01-1.05c-0.25-0.44-0.38-0.95-0.38-1.53c0-0.87,0.27-1.57,0.8-2.12c0.53-0.54,1.23-0.82,2.08-0.82
			c0.82,0,1.48,0.26,1.97,0.79c0.49,0.53,0.73,1.24,0.73,2.13V62.97z M56.84,62.3h3.12c-0.03-0.45-0.18-0.8-0.44-1.04
			c-0.26-0.24-0.61-0.37-1.05-0.37c-0.44,0-0.8,0.12-1.08,0.37C57.11,61.5,56.93,61.85,56.84,62.3z"/>
		<path fill="#FFFFFF" d="M63.81,60.02v1.31l0.07-0.1c0.59-0.88,1.19-1.32,1.78-1.32c0.46,0,0.95,0.21,1.45,0.64l-0.65,0.99
			c-0.43-0.37-0.82-0.56-1.19-0.56c-0.4,0-0.74,0.17-1.03,0.52c-0.29,0.35-0.43,0.76-0.43,1.23v2.98h-1.23v-5.7H63.81z"/>
		<path fill="#FFFFFF" d="M67.37,60.93l2.3-2.08v1.18h1.96v1.02h-1.96v2.8c0,0.65,0.29,0.98,0.88,0.98c0.44,0,0.9-0.14,1.39-0.41
			v1.05c-0.47,0.24-0.99,0.37-1.54,0.37c-0.56,0-1.03-0.15-1.4-0.45c-0.12-0.09-0.21-0.19-0.29-0.31c-0.08-0.11-0.14-0.26-0.19-0.45
			c-0.05-0.18-0.08-0.53-0.08-1.05v-2.53h-1.08V60.93z"/>
		<path fill="#FFFFFF" d="M72.53,65.31V64.1c0.35,0.22,0.7,0.4,1.06,0.54c0.36,0.14,0.67,0.21,0.91,0.21c0.26,0,0.48-0.06,0.66-0.17
			c0.18-0.12,0.28-0.25,0.28-0.42c0-0.17-0.06-0.3-0.18-0.41c-0.12-0.11-0.38-0.27-0.77-0.47c-0.79-0.4-1.31-0.75-1.55-1.04
			c-0.24-0.29-0.37-0.6-0.37-0.94c0-0.44,0.19-0.8,0.56-1.07c0.37-0.28,0.85-0.42,1.43-0.42c0.61,0,1.23,0.16,1.87,0.47v1.12
			c-0.73-0.41-1.32-0.61-1.78-0.61c-0.24,0-0.43,0.05-0.58,0.14c-0.15,0.09-0.22,0.22-0.22,0.37c0,0.13,0.07,0.26,0.2,0.38
			c0.13,0.12,0.36,0.26,0.7,0.43l0.44,0.23c1.03,0.54,1.55,1.13,1.55,1.78c0,0.47-0.2,0.85-0.6,1.15c-0.4,0.3-0.91,0.45-1.53,0.45
			c-0.37,0-0.7-0.04-0.98-0.11C73.33,65.64,72.97,65.51,72.53,65.31z"/>
	</g>
	<path fill="#FFFFFF" d="M45.04,63.42l4-4.92l-5.16,3.63l-4.96-4.06l3.64,5.24l-4.07,4.86l5.24-3.55l4.8,4.07L45.04,63.42z
		 M43.76,63.34L43.76,63.34l0,0.01L43.76,63.34L43.76,63.34z"/>
</g>
</svg>
