<?xml version="1.0" encoding="utf-8"?>
<!-- Generator: Adobe Illustrator 27.0.0, SVG Export Plug-In . SVG Version: 6.00 Build 0)  -->
<svg version="1.1" id="Calque_1" xmlns="http://www.w3.org/2000/svg" xmlns:xlink="http://www.w3.org/1999/xlink" x="0px" y="0px"
	 viewBox="0 0 92.12 92.12" enable-background="new 0 0 92.12 92.12" xml:space="preserve">
<g>
	<g transform="matrix(1,0,0,1,-1.58824e-05,-0.000280711)">
		<g id="Fond-clair_00000015351273050159239820000002586897653442289811_" transform="matrix(1,0,0,1,-2.00137,-2.02367)">
			
				<g id="logo-blanc_00000137109386189271903710000016961537591660667814_" transform="matrix(0.048489,0,0,0.0483992,-12.5164,-67.1588)">
				<g>
					<g transform="matrix(0.625812,-0.779974,0.695237,0.557823,-1075.47,1184.18)">
						<path fill-rule="evenodd" clip-rule="evenodd" fill="#FFFFFF" d="M238.71,2352.43c-9.44-1-18.44-1.58-26.35-1.42
							c-12.81,0.26-22.58,1.26-26.06,3.14l9.25,9.63c4.93-1.93,22.13-4.23,41.11-0.46L238.71,2352.43z"/>
					</g>
					<g transform="matrix(0.646334,-0.268835,0.40814,0.981251,-506.536,208.21)">
						<path fill-rule="evenodd" clip-rule="evenodd" fill="#FFFFFF" d="M517.09,2291.89l-18.81-0.29
							c-2.31,16.2-2.49,32.85,0.01,50.04l19.2-0.39C514.4,2324.07,514.42,2308.1,517.09,2291.89z"/>
					</g>
					<g transform="matrix(0.996366,0.0851791,-0.107981,1.26309,179.973,-473.864)">
						<path fill-rule="evenodd" clip-rule="evenodd" fill="#FFFFFF" d="M767.06,2123.35c-6.53-0.21-13.77-0.55-28.36,0.02
							l-4.66,7.43c8.97-0.89,16.24-0.83,28.15,0.01L767.06,2123.35z"/>
					</g>
					<g transform="matrix(0.943884,0.330279,-0.330279,0.943884,563.679,-115.913)">
						<path fill-rule="evenodd" clip-rule="evenodd" fill="#FFFFFF" d="M963.79,2147.07l-8.45-1.48
							c-2.81,12.2-3.69,23.19-1.55,33.01l10.4-5.37C962.15,2166.11,961.61,2157.35,963.79,2147.07z"/>
					</g>
					<g transform="matrix(0.944756,-0.327774,0.308622,0.889552,-453.401,433.771)">
						<path fill-rule="evenodd" clip-rule="evenodd" fill="#FFFFFF" d="M624.16,2266.05c-19.62-1.18-37.8-1.22-54.72-0.31l1.92,9.4
							c16.08-1.44,34.02-1.46,53.92,0.03L624.16,2266.05z"/>
					</g>
					<g transform="matrix(0.943744,0.330676,-0.251807,0.718654,401.306,165.554)">
						<path fill-rule="evenodd" clip-rule="evenodd" fill="#FFFFFF" d="M1107.8,2348.96c-15.34-3.59-30.04-4.35-43.6,0.02l3.51,7.62
							c3.09-1.71,8.48-2.9,15.32-2.82c5.4,0.06,11.58,1.03,19.18,2.41L1107.8,2348.96z"/>
					</g>
					<g transform="matrix(1.00891,0.522378,-0.487784,0.942099,740.612,-404.582)">
						<polygon fill-rule="evenodd" clip-rule="evenodd" fill="#FFFFFF" points="1175.73,2115.45 1184.95,2115.45 1184.95,2134.24 
							1175.73,2134.24 						"/>
					</g>
					<g transform="matrix(0.968758,0.248009,-0.202163,0.789677,342.256,80.0624)">
						<path fill-rule="evenodd" clip-rule="evenodd" fill="#FFFFFF" d="M1140.01,2392.52c-17.24-2.63-33.65-3.62-48.14-0.81
							l3.48,9.12c5.79-2.85,19.96-3.14,37.94-1.15L1140.01,2392.52z"/>
					</g>
					<g transform="matrix(0.705057,-0.422141,0.516894,0.863313,-561.14,635.386)">
						<path fill-rule="evenodd" clip-rule="evenodd" fill="#FFFFFF" d="M513.79,2139.88l-11.62-0.89
							c1.19,16.77,1.33,33.37-0.1,49.76l12.53,4.17C515.77,2175.31,515.67,2157.64,513.79,2139.88z"/>
					</g>
					<g transform="matrix(0.722139,0.450241,-0.529073,0.848577,1258.71,-268.404)">
						<path fill-rule="evenodd" clip-rule="evenodd" fill="#FFFFFF" d="M1338.81,2317.15l-11.46,4.85
							c4.3,13.04,3.36,18.74-1.37,33.26l14.62,3.45C1346.82,2338.69,1343.69,2325.5,1338.81,2317.15z"/>
					</g>
					<g transform="matrix(0.832965,0.45573,-0.452873,0.827743,1057.71,-198.169)">
						<path fill-rule="evenodd" clip-rule="evenodd" fill="#FFFFFF" d="M1270.53,2424.29c-13.48-0.85-26.78-0.91-39.95-0.39
							l2.14,10.96c13.54-0.33,27.22-0.27,41.02,0.18L1270.53,2424.29z"/>
					</g>
					<g transform="matrix(0.993801,0.111172,-0.111172,0.993801,226.915,-109.7)">
						<path fill-rule="evenodd" clip-rule="evenodd" fill="#FFFFFF" d="M1006.87,2410.54l-12.03,2.71
							c3.04,17.41,3.58,33.56,0.68,47.93l10.85,12.47C1011.3,2453.33,1011.4,2433.02,1006.87,2410.54z"/>
					</g>
					<g transform="matrix(0.932765,-0.360484,0.400277,1.03573,-694.439,297.038)">
						<path fill-rule="evenodd" clip-rule="evenodd" fill="#FFFFFF" d="M743.56,2259.87c-21.63,1.3-41.9,0.99-61.43-0.31l-1.3,12.57
							c21.21,1.38,42.87,1.42,65.02-0.08L743.56,2259.87z"/>
					</g>
					<g transform="matrix(0.793445,0.608642,-0.555027,0.723551,1315,82.0519)">
						<path fill-rule="evenodd" clip-rule="evenodd" fill="#FFFFFF" d="M1111.03,2373.45c-18.9,3.38-36.5,2.97-53.01-0.64
							l-2.94,16.1c22.93,3.62,45.24,3.25,66.78-2.26L1111.03,2373.45z"/>
					</g>
					<g transform="matrix(0.929694,0.368332,-0.368332,0.929694,838.442,-88.5538)">
						<path fill-rule="evenodd" clip-rule="evenodd" fill="#FFFFFF" d="M890.81,2387.64h-14.27c0.7,14.64,0.59,29.33,0,44.03h14.27
							C891.33,2416.93,891.36,2402.26,890.81,2387.64z"/>
					</g>
					<g transform="matrix(1,0,0,1,0.111157,15.0164)">
						<path fill-rule="evenodd" clip-rule="evenodd" fill="#FFFFFF" d="M751.38,2395.79c-19.73,0.29-37.19-0.76-45.83-5.41
							l-10.43,9.92c13.73,7.16,34,8.84,56.26,8.87V2395.79z"/>
					</g>
				</g>
				<g>
					<g transform="matrix(0.922206,-0.386893,0.392557,0.935706,-717.603,407.984)">
						
							<ellipse transform="matrix(-0.9994 -0.035 0.035 -0.9994 1164.9399 4820.2725)" fill-rule="evenodd" clip-rule="evenodd" fill="#FFFFFF" cx="624.6" cy="2399.95" rx="51.85" ry="48.75"/>
					</g>
					<g transform="matrix(0.906577,-0.42204,0.42204,0.906577,-644.088,416.458)">
						
							<ellipse transform="matrix(-1 -6.268030e-03 6.268030e-03 -1 930.0133 4573.2393)" fill-rule="evenodd" clip-rule="evenodd" fill="#FFFFFF" cx="472.17" cy="2285.16" rx="45.31" ry="33.7"/>
					</g>
					<g transform="matrix(0.758419,0.707718,-0.69433,0.744072,1523.23,-282.605)">
						
							<ellipse transform="matrix(8.367468e-03 1 -1 8.367468e-03 3598.7625 940.975)" fill-rule="evenodd" clip-rule="evenodd" fill="#FFFFFF" cx="1324.94" cy="2284.99" rx="39.19" ry="48.47"/>
					</g>
					<g transform="matrix(1.05615,0.183678,-0.174914,1.00575,221.143,-179.256)">
						
							<ellipse transform="matrix(-1.186001e-04 1 -1 -1.186001e-04 3219.7869 1240.2178)" fill-rule="evenodd" clip-rule="evenodd" fill="#FFFFFF" cx="989.86" cy="2229.81" rx="24.3" ry="44.11"/>
					</g>
					<g transform="matrix(1.02178,0,0,1.01212,-23.8945,-25.9713)">
						
							<ellipse transform="matrix(-1.831772e-03 1 -1 -1.831772e-03 3392.2578 1556.5637)" fill-rule="evenodd" clip-rule="evenodd" fill="#FFFFFF" cx="919.27" cy="2471.31" rx="40.41" ry="39.42"/>
					</g>
					<g transform="matrix(0.899522,-0.435565,0.444157,0.917266,-938.029,457.574)">
						
							<ellipse transform="matrix(-0.9997 0.0259 -0.0259 -0.9997 1309.9344 5083.3584)" fill-rule="evenodd" clip-rule="evenodd" fill="#FFFFFF" cx="622.07" cy="2550.16" rx="31.24" ry="31.9"/>
					</g>
					<g transform="matrix(0.923912,0.559875,-0.538125,0.88802,1069.71,-49.6538)">
						
							<ellipse transform="matrix(-0.0137 0.9999 -0.9999 -0.0137 3072.6746 1364.5183)" fill-rule="evenodd" clip-rule="evenodd" fill="#FFFFFF" cx="863.35" cy="2197.73" rx="33.69" ry="30.95"/>
					</g>
					<g transform="matrix(0.671131,0.781803,-0.826551,0.709545,1507.9,146.209)">
						
							<ellipse transform="matrix(-1.496602e-03 1 -1 -1.496602e-03 2894.4377 822.2495)" fill-rule="evenodd" clip-rule="evenodd" fill="#FFFFFF" cx="1036.71" cy="1856.18" rx="26.23" ry="11.37"/>
					</g>
					<g transform="matrix(0.983657,0.253213,-0.248211,0.964226,372.256,-188.622)">
						
							<ellipse transform="matrix(2.570946e-03 1 -1 2.570946e-03 3279.4958 1091.4)" fill-rule="evenodd" clip-rule="evenodd" fill="#FFFFFF" cx="1092.64" cy="2189.67" rx="8.56" ry="23.66"/>
					</g>
					<g transform="matrix(1.00636,-0.20843,0.202808,0.979218,-310.609,176.834)">
						
							<ellipse transform="matrix(-1 1.994477e-04 -1.994477e-04 -1 1285.3485 4435.9814)" fill-rule="evenodd" clip-rule="evenodd" fill="#FFFFFF" cx="642.45" cy="2218.05" rx="30.63" ry="15.48"/>
					</g>
					<g transform="matrix(0.839815,0.613229,-0.655457,0.897646,1254.34,-544.319)">
						
							<ellipse transform="matrix(5.145628e-03 1 -1 5.145628e-03 3574.9822 796.9794)" fill-rule="evenodd" clip-rule="evenodd" fill="#FFFFFF" cx="1386.95" cy="2195.2" rx="20.57" ry="28.7"/>
					</g>
					<g transform="matrix(0.915931,-0.350265,0.362255,0.947284,-607.085,560.08)">
						
							<ellipse transform="matrix(-1 5.191531e-03 -5.191531e-03 -1 1799.8409 4548.2876)" fill-rule="evenodd" clip-rule="evenodd" fill="#FFFFFF" cx="894.02" cy="2276.48" rx="21.21" ry="28.01"/>
					</g>
				</g>
				<g>
					<g transform="matrix(1.04661,0.0678057,-0.0662478,1.02256,85.3408,-130.893)">
						
							<ellipse transform="matrix(-5.462046e-04 1 -1 -5.462046e-04 3525.9224 1466.5651)" fill-rule="evenodd" clip-rule="evenodd" fill="#FFFFFF" cx="1030.08" cy="2495.28" rx="22.84" ry="20.85"/>
					</g>
					<g transform="matrix(1.0107,-0.0444949,0.0447204,1.01582,-113.693,1.45663)">
						
							<ellipse transform="matrix(-1 -5.926051e-03 5.926051e-03 -1 1689.006 5104.2485)" fill-rule="evenodd" clip-rule="evenodd" fill="#FFFFFF" cx="852.07" cy="2549.62" rx="25.46" ry="24.74"/>
					</g>
					<g transform="matrix(0.975712,0,0,1.01851,11.2704,-40.2517)">
						<ellipse fill-rule="evenodd" clip-rule="evenodd" fill="#FFFFFF" cx="672.38" cy="2464.71" rx="20.72" ry="23.7"/>
					</g>
					<g transform="matrix(0.787466,0.520658,-0.567014,0.857575,1116.08,83.9738)">
						
							<ellipse transform="matrix(-3.540493e-03 1 -1 -3.540493e-03 2997.0525 1205.3766)" fill-rule="evenodd" clip-rule="evenodd" fill="#FFFFFF" cx="897.97" cy="2095.92" rx="24.97" ry="12.17"/>
					</g>
					<g transform="matrix(0.346639,0.775633,-0.974218,0.435389,1842.63,433.585)">
						
							<ellipse transform="matrix(-3.458848e-03 1 -1 -3.458848e-03 3025.9373 265.8687)" fill-rule="evenodd" clip-rule="evenodd" fill="#FFFFFF" cx="1380.49" cy="1640.68" rx="27.39" ry="5.69"/>
					</g>
					<g transform="matrix(0.985883,-0.0504609,0.052338,1.02256,-63.6824,8.90833)">
						
							<ellipse transform="matrix(-1 -2.131433e-03 2.131433e-03 -1 1573.0038 4340.3164)" fill-rule="evenodd" clip-rule="evenodd" fill="#FFFFFF" cx="788.81" cy="2169.32" rx="18.2" ry="5.97"/>
					</g>
					<g transform="matrix(0.609934,0.788311,-0.873406,0.675774,2030.15,-453.943)">
						
							<ellipse transform="matrix(5.850334e-03 1 -1 5.850334e-03 3834.6667 638.9091)" fill-rule="evenodd" clip-rule="evenodd" fill="#FFFFFF" cx="1596" cy="2248.04" rx="13.13" ry="17.53"/>
					</g>
					<g transform="matrix(1.00422,-0.0080864,0.00815521,1.01276,-19.758,-16.5717)">
						
							<ellipse transform="matrix(-1 8.638253e-04 -8.638253e-04 -1 1680.5718 4615.9258)" fill-rule="evenodd" clip-rule="evenodd" fill="#FFFFFF" cx="839.29" cy="2308.33" rx="31.62" ry="26.25"/>
					</g>
					<g transform="matrix(0.834088,0.490827,-0.575398,0.977802,1059.27,-506.626)">
						
							<ellipse transform="matrix(4.646920e-03 1 -1 4.646920e-03 3472.7612 747.4052)" fill-rule="evenodd" clip-rule="evenodd" fill="#FFFFFF" cx="1360.94" cy="2118.17" rx="9.22" ry="14.51"/>
					</g>
				</g>
			</g>
			<g transform="matrix(1,0,0,0.970913,-0.0133375,-13.8471)">
				<g transform="matrix(21.972,0,0,21.972,57.137,47.873)">
					<path fill="#FFFFFF" d="M-0.6,0.67h0.06c0-0.01,0-0.02,0-0.04c0-0.02-0.01-0.02-0.02-0.03c0-0.01-0.02-0.02-0.02-0.02
						C-0.6,0.57-0.61,0.57-0.64,0.57c-0.02,0-0.04,0-0.05,0.01C-0.7,0.58-0.71,0.6-0.72,0.61c0,0.02-0.01,0.03-0.01,0.05
						c0,0.02,0,0.04,0,0.06c0,0.02,0,0.05,0,0.06c0,0.02,0.01,0.04,0.02,0.05c0,0.02,0.02,0.02,0.02,0.03
						c0.02,0.01,0.03,0.01,0.05,0.01c0.02,0,0.04,0,0.05-0.01c0.02-0.01,0.02-0.02,0.03-0.02s0.01-0.02,0.02-0.04s0-0.03,0-0.05
						H-0.6c0,0.02,0,0.03,0,0.04c0,0.01-0.01,0.02-0.01,0.02s-0.01,0.01-0.02,0.01s-0.01,0-0.02,0c-0.01,0-0.02,0-0.02-0.01
						c-0.01,0-0.01-0.01-0.02-0.02c0-0.01-0.01-0.02-0.01-0.03c0-0.02,0-0.03,0-0.05c0-0.02,0-0.04,0-0.05s0-0.02,0.01-0.04
						c0-0.01,0.01-0.02,0.02-0.02c0.01,0,0.01-0.01,0.02-0.01c0.02,0,0.02,0.01,0.03,0.02C-0.6,0.64-0.6,0.66-0.6,0.67z"/>
				</g>
				<g transform="matrix(21.972,0,0,21.972,68.936,47.873)">
					<path fill="#FFFFFF" d="M-1.04,0.88h0.16V0.82h-0.11V0.58h-0.06L-1.04,0.88L-1.04,0.88z"/>
				</g>
				<g transform="matrix(21.972,0,0,21.972,79.109,47.873)">
					<path fill="#FFFFFF" d="M-1.18,0.76l-0.03-0.13l0,0l-0.03,0.13H-1.18z M-1.17,0.58l0.08,0.3h-0.06l-0.02-0.06h-0.08l-0.02,0.06
						h-0.06l0.08-0.3H-1.17z"/>
				</g>
				<g transform="matrix(21.972,0,0,21.972,91.3254,47.873)">
					<rect x="-1.63" y="0.58" fill="#FFFFFF" width="0.06" height="0.3"/>
				</g>
				<g transform="matrix(21.972,0,0,21.972,96.9942,47.873)">
					<path fill="#FFFFFF" d="M-1.78,0.58v0.3h0.05V0.63l0,0l0.05,0.24h0.05l0.05-0.24l0,0v0.24h0.05v-0.3H-1.6l-0.05,0.21l0,0
						l-0.04-0.21C-1.69,0.58-1.78,0.58-1.78,0.58z"/>
				</g>
				<g transform="matrix(21.972,0,0,21.972,113.253,47.873)">
					<path fill="#FFFFFF" d="M-2.16,0.78h-0.06V0.8c0,0.03,0.01,0.05,0.02,0.06c0.02,0.02,0.04,0.02,0.07,0.02
						c0.03,0,0.05-0.01,0.08-0.02c0.02-0.02,0.02-0.04,0.02-0.07c0-0.01,0-0.02,0-0.02s-0.01-0.02-0.01-0.02
						c-0.01-0.01-0.01-0.02-0.02-0.02c-0.01-0.01-0.02-0.01-0.03-0.02l-0.05-0.02c-0.02-0.01-0.02-0.01-0.02-0.02
						s-0.01-0.02-0.01-0.02s0-0.01,0-0.02s0-0.01,0.01-0.01l0.01-0.01c0,0,0.01,0,0.02,0c0.02,0,0.02,0,0.02,0.01
						C-2.1,0.63-2.1,0.64-2.1,0.66h0.05V0.65c0-0.02,0-0.02-0.01-0.04c0.01-0.01,0-0.02-0.01-0.02c-0.01-0.01-0.02-0.01-0.03-0.02
						c-0.01,0-0.02-0.01-0.04-0.01c-0.03,0-0.05,0.01-0.07,0.02C-2.21,0.6-2.21,0.62-2.21,0.66c0,0.02,0,0.02,0.01,0.03
						c0,0.01,0,0.02,0.01,0.02c0.01,0.01,0.02,0.02,0.02,0.02c0.01,0,0.02,0.01,0.03,0.02c0.01,0,0.02,0.01,0.02,0.01
						c0.01,0,0.02,0.01,0.02,0.01c0.01,0,0.01,0.01,0.01,0.02c0,0.01,0,0.01,0,0.02c0,0.02,0,0.02-0.01,0.03
						c-0.01,0.01-0.02,0.01-0.02,0.01c-0.01,0-0.02,0-0.02,0c-0.01,0-0.01-0.01-0.02-0.01c0,0-0.01-0.01-0.01-0.02
						S-2.17,0.79-2.16,0.78L-2.16,0.78L-2.16,0.78z"/>
				</g>
				<g transform="matrix(21.972,0,0,21.972,129.93,47.873)">
					<rect x="-2.64" y="0.58" fill="#FFFFFF" width="0.06" height="0.3"/>
				</g>
				<g transform="matrix(21.972,0,0,21.972,135.599,47.873)">
					<path fill="#FFFFFF" d="M-2.68,0.76L-2.7,0.62l0,0l-0.03,0.13C-2.73,0.76-2.68,0.76-2.68,0.76z M-2.67,0.58l0.08,0.3h-0.06
						l-0.01-0.06h-0.08l-0.02,0.06h-0.06l0.08-0.3C-2.74,0.58-2.67,0.58-2.67,0.58z"/>
				</g>
			</g>
		</g>
	</g>
</g>
</svg>
