<?xml version="1.0" encoding="utf-8"?>
<!-- Generator: Adobe Illustrator 27.0.0, SVG Export Plug-In . SVG Version: 6.00 Build 0)  -->
<svg version="1.1" id="Calque_1" xmlns="http://www.w3.org/2000/svg" xmlns:xlink="http://www.w3.org/1999/xlink" x="0px" y="0px"
	 viewBox="0 0 92.12 92.12" enable-background="new 0 0 92.12 92.12" xml:space="preserve">
<g>
	<g>
		<g>
			<g>
				<path fill="#FFFFFF" d="M40.53,53.43h-2.12c-0.19,0-0.34-0.15-0.34-0.34V38.53c0-0.19,0.15-0.34,0.34-0.34h2.12
					c0.19,0,0.34,0.15,0.34,0.34v8.74c0,0.18,0.23,0.26,0.33,0.11l3.71-4.7c0.06-0.08,0.16-0.13,0.27-0.13h2.64
					c0.15,0,0.24,0.18,0.15,0.31l-3.23,4.06c-0.09,0.11-0.1,0.26-0.03,0.38l3.21,5.64c0.13,0.23-0.03,0.51-0.3,0.51H45.2
					c-0.12,0-0.23-0.06-0.3-0.18l-1.97-3.54c-0.06-0.12-0.23-0.13-0.31-0.02l-1.68,2.22c-0.06,0.07-0.09,0.17-0.09,0.26v0.91
					C40.88,53.28,40.72,53.43,40.53,53.43z"/>
			</g>
			<g>
				<path fill="#FFFFFF" d="M29.27,38.18h-2.12c-0.19,0-0.34,0.15-0.34,0.34v14.56c0,0.19,0.15,0.34,0.34,0.34h2.12
					c0.19,0,0.34-0.15,0.34-0.34V38.53C29.62,38.33,29.47,38.18,29.27,38.18z"/>
			</g>
			<g>
				<path fill="#FFFFFF" d="M59.03,47.88c0,0.82-0.15,1.57-0.44,2.28c-0.29,0.7-0.69,1.31-1.19,1.82c-0.5,0.52-1.09,0.92-1.77,1.21
					c-0.68,0.3-1.4,0.44-2.17,0.44c-0.77,0-1.49-0.15-2.16-0.44c-0.68-0.3-1.27-0.7-1.78-1.21c-0.51-0.52-0.9-1.12-1.19-1.82
					c-0.29-0.7-0.44-1.46-0.44-2.28c0-0.83,0.15-1.6,0.44-2.3c0.29-0.7,0.69-1.32,1.19-1.82c0.51-0.52,1.1-0.91,1.78-1.21
					c0.68-0.29,1.4-0.44,2.16-0.44c0.78,0,1.5,0.14,2.17,0.41c0.68,0.27,1.27,0.66,1.77,1.17c0.5,0.51,0.9,1.11,1.19,1.82
					C58.89,46.22,59.03,47.01,59.03,47.88z M56.23,47.88c0-0.45-0.07-0.86-0.22-1.22c-0.15-0.36-0.35-0.68-0.6-0.94
					s-0.55-0.46-0.88-0.6c-0.34-0.14-0.69-0.21-1.07-0.21c-0.38,0-0.73,0.07-1.07,0.21c-0.34,0.14-0.63,0.34-0.88,0.6
					c-0.25,0.26-0.44,0.57-0.59,0.94c-0.15,0.36-0.21,0.77-0.21,1.22c0,0.42,0.07,0.82,0.21,1.17c0.15,0.36,0.34,0.67,0.59,0.94
					c0.25,0.27,0.54,0.48,0.88,0.63c0.34,0.15,0.69,0.23,1.07,0.23c0.38,0,0.73-0.07,1.07-0.21c0.34-0.14,0.63-0.34,0.88-0.6
					s0.45-0.57,0.6-0.94C56.16,48.72,56.23,48.32,56.23,47.88z"/>
			</g>
			<g>
				<path fill="#FFFFFF" d="M63.03,53.43h-2.12c-0.19,0-0.34-0.15-0.34-0.34V42.86c0-0.19,0.15-0.34,0.34-0.34h2.12
					c0.19,0,0.34,0.15,0.34,0.34v10.23C63.37,53.28,63.22,53.43,63.03,53.43z"/>
			</g>
			<g>
				<path fill="#FFFFFF" d="M76.39,53.44l-1.74,0.02c-0.19,0-0.35-0.15-0.35-0.34v-0.78c0-0.16-0.19-0.24-0.31-0.15
					c-0.17,0.14-0.35,0.27-0.53,0.4c-0.3,0.21-0.61,0.39-0.93,0.54c-0.32,0.15-0.66,0.27-1,0.36c-0.34,0.09-0.69,0.13-1.04,0.13
					c-0.77,0-1.49-0.13-2.16-0.39s-1.27-0.63-1.78-1.12c-0.51-0.49-0.9-1.1-1.19-1.81c-0.29-0.71-0.44-1.53-0.44-2.44
					c0-0.85,0.15-1.63,0.44-2.34c0.29-0.71,0.69-1.32,1.19-1.82c0.51-0.51,1.1-0.9,1.78-1.19c0.68-0.28,1.4-0.42,2.16-0.42
					c0.36,0,0.7,0.04,1.05,0.13s0.69,0.21,1.01,0.36c0.32,0.15,0.64,0.34,0.93,0.55c0.18,0.13,0.36,0.27,0.52,0.4
					c0.12,0.1,0.31,0.02,0.31-0.15v-0.5c0-0.19,0.15-0.34,0.34-0.34l1.74-0.02c0.19,0,0.35,0.15,0.35,0.34v10.21
					C76.72,53.29,76.58,53.43,76.39,53.44z M73.25,47.88c0-0.38-0.07-0.75-0.22-1.11c-0.15-0.36-0.35-0.67-0.6-0.94
					c-0.25-0.27-0.55-0.49-0.88-0.66c-0.34-0.17-0.69-0.25-1.07-0.25c-0.38,0-0.73,0.06-1.07,0.19c-0.34,0.13-0.63,0.32-0.88,0.57
					s-0.44,0.57-0.59,0.93c-0.15,0.37-0.21,0.79-0.21,1.27c0,0.48,0.07,0.9,0.21,1.27c0.15,0.37,0.34,0.68,0.59,0.93
					c0.25,0.25,0.54,0.44,0.88,0.57c0.34,0.13,0.69,0.19,1.07,0.19c0.38,0,0.73-0.08,1.07-0.25c0.34-0.17,0.63-0.39,0.88-0.66
					s0.45-0.59,0.6-0.94C73.18,48.63,73.25,48.26,73.25,47.88z"/>
			</g>
			<g>
				<path fill="#FFFFFF" d="M20.35,51.03c0.11,0.03,0.22,0.06,0.33,0.06c0.11,0.01,0.22,0.02,0.33,0.02c0.27,0,0.54-0.04,0.79-0.11
					s0.49-0.19,0.72-0.32c0.23-0.14,0.42-0.31,0.6-0.52c0.06-0.06,0.1-0.13,0.15-0.19c0.16-0.23,0.49-0.26,0.69-0.06l1.36,1.36
					c0.16,0.17,0.18,0.43,0.03,0.61c-0.2,0.24-0.41,0.47-0.65,0.67c-0.34,0.3-0.71,0.55-1.1,0.75c-0.4,0.2-0.81,0.36-1.24,0.47
					c-0.44,0.1-0.88,0.16-1.34,0.16c-0.78,0-1.5-0.15-2.19-0.44c-0.69-0.29-1.28-0.69-1.79-1.2c-0.51-0.52-0.91-1.13-1.21-1.83
					c-0.3-0.71-0.44-1.49-0.44-2.34c0-0.87,0.15-1.66,0.44-2.39c0.3-0.72,0.69-1.33,1.21-1.84c0.51-0.51,1.11-0.9,1.79-1.19
					c0.69-0.28,1.41-0.42,2.19-0.42c0.46,0,0.91,0.06,1.35,0.16c0.44,0.11,0.86,0.27,1.25,0.48c0.4,0.2,0.54,0.34,0.82,0.57
					c0.19,0.15,0.36,0.33,0.52,0.51c0.23,0.27,0.25,0.66,0.02,0.94L20.35,51.03z M21.57,45.53c0.11-0.15,0.02-0.36-0.16-0.38l0,0
					c-0.13-0.02-0.26-0.02-0.4-0.02c-0.39,0-0.74,0.07-1.08,0.21c-0.34,0.14-0.64,0.34-0.89,0.61c-0.25,0.26-0.44,0.57-0.59,0.94
					c-0.15,0.36-0.22,0.78-0.22,1.24c0,0.1,0.01,0.22,0.02,0.35c0.01,0.13,0.02,0.26,0.05,0.4c0.02,0.14,0.06,0.26,0.09,0.39l0,0
					c0.04,0.15,0.24,0.19,0.33,0.06L21.57,45.53z"/>
			</g>
			<g>
				<path fill="#FFFFFF" d="M36.81,53.15l-2.9-5.09c-0.08-0.15-0.28-0.15-0.38-0.02l-1.41,1.88c-0.1,0.14-0.12,0.33-0.03,0.48
					l1.64,2.93c0.03,0.06,0.1,0.1,0.16,0.1h2.77C36.78,53.43,36.87,53.28,36.81,53.15z"/>
			</g>
			<g>
				<path fill="#FFFFFF" d="M36.75,42.79c-0.01,0.02-0.02,0.04-0.03,0.06l-3.29,4.14l0,0l-0.08,0.1l-1.79,2.38l-0.17,0.23
					l-0.65,0.86c-0.13,0.18-0.41,0.08-0.41-0.14v-3.13c0-0.25,0.08-0.49,0.24-0.69l3.1-3.93l0,0c0.06-0.08,0.16-0.13,0.27-0.13h2.64
					c0.02,0,0.06,0.01,0.07,0.02c0.01,0.01,0.02,0.01,0.03,0.02l0,0c0.01,0.01,0.02,0.02,0.02,0.02
					C36.76,42.65,36.78,42.72,36.75,42.79z"/>
			</g>
			<g>
				<g>
					<path fill="#FFFFFF" d="M61.03,41.7h-0.8c-0.28,0-0.51-0.23-0.51-0.51v-0.8c0-0.28,0.23-0.51,0.51-0.51h0.8
						c0.28,0,0.51,0.23,0.51,0.51v0.8C61.54,41.47,61.31,41.7,61.03,41.7z"/>
				</g>
				<g>
					<path fill="#FFFFFF" d="M63.72,41.7h-0.8c-0.28,0-0.51-0.23-0.51-0.51v-0.8c0-0.28,0.23-0.51,0.51-0.51h0.8
						c0.28,0,0.51,0.23,0.51,0.51v0.8C64.23,41.47,64,41.7,63.72,41.7z"/>
				</g>
			</g>
		</g>
	</g>
</g>
</svg>
