<?xml version="1.0" encoding="utf-8"?>
<!-- Generator: Adobe Illustrator 27.0.0, SVG Export Plug-In . SVG Version: 6.00 Build 0)  -->
<svg version="1.1" id="Calque_1" xmlns="http://www.w3.org/2000/svg" xmlns:xlink="http://www.w3.org/1999/xlink" x="0px" y="0px"
	 viewBox="0 0 92.12 92.12" enable-background="new 0 0 92.12 92.12" xml:space="preserve">
<g>
	<g>
		<path fill="#FFFFFF" d="M54.08,65.28c-3.85,0-7.69-1.13-10.98-3.36c-0.52-0.35-0.65-1.05-0.3-1.58c0.35-0.52,1.05-0.65,1.58-0.3
			c5.51,3.74,12.78,3.97,18.5,0.57c2.43-1.44,4.49-3.48,5.95-5.88c0.33-0.54,1.02-0.71,1.55-0.38c0.54,0.33,0.71,1.02,0.38,1.55
			c-1.65,2.73-3.97,5.03-6.73,6.66C60.97,64.38,57.52,65.28,54.08,65.28z"/>
	</g>
	<g>
		<path fill="#FFFFFF" d="M38.64,36.39c-0.1,0-0.21-0.03-0.31-0.09c-0.26-0.17-0.34-0.52-0.17-0.79c1.59-2.47,3.7-4.5,6.25-6.01
			c6.15-3.65,13.72-3.54,19.77,0.26c0.26,0.17,0.34,0.52,0.17,0.79c-0.17,0.26-0.52,0.34-0.79,0.17
			c-5.69-3.58-12.81-3.67-18.59-0.25c-2.39,1.42-4.37,3.32-5.87,5.65C39.01,36.29,38.83,36.39,38.64,36.39z"/>
	</g>
	<g>
		<path fill="#FFFFFF" d="M54.09,59.15c-3.51,0-6.95-1.37-9.5-3.92c-1.13-1.13-2.04-2.43-2.7-3.87c-0.13-0.29-0.01-0.62,0.28-0.75
			c0.29-0.13,0.62-0.01,0.75,0.28c0.6,1.32,1.44,2.51,2.47,3.54c3.35,3.35,8.39,4.47,12.85,2.85c0.29-0.11,0.62,0.05,0.73,0.34
			c0.1,0.29-0.05,0.62-0.34,0.73C57.15,58.88,55.61,59.15,54.09,59.15z"/>
	</g>
	<g>
		<path fill="#FFFFFF" d="M65.48,41.05c-0.41,0-0.81-0.22-1.01-0.62c-0.56-1.08-1.28-2.07-2.14-2.93
			c-3.12-3.12-7.66-4.21-11.86-2.86c-0.59,0.19-1.24-0.13-1.43-0.73c-0.19-0.59,0.13-1.24,0.73-1.43
			c5.01-1.62,10.44-0.31,14.16,3.42c1.04,1.04,1.9,2.21,2.56,3.51c0.29,0.56,0.06,1.25-0.49,1.53
			C65.83,41.01,65.65,41.05,65.48,41.05z"/>
	</g>
	<g>
		<path fill="#FFFFFF" d="M76.65,47.89v-5.15c0-0.23-0.21-0.35-0.41-0.35c-0.17,0-0.4,0.14-0.4,0.35v2.88
			c0,0.21-0.13,0.51-0.27,0.51c-0.21,0-0.18-0.16-0.81-0.86c-2.19-2.46-2.17-2.88-2.8-2.88c-0.24,0-0.59-0.01-0.59,0.51v4.85
			c0,0.25,0.13,0.51,0.44,0.51c0.25,0,0.41-0.09,0.41-0.4v-3.13c0-0.05,0.1-0.4,0.23-0.4c0.12,0,0.21,0.01,0.9,0.91l1.4,1.66
			c0.64,0.72,0.91,1.36,1.4,1.36C76.4,48.25,76.65,48.23,76.65,47.89 M70.1,47.93c0-0.36-0.12-0.45-0.27-0.45h-3.16
			c-0.25,0-0.5-0.23-0.5-0.86c0-0.36,0.06-0.86,0.63-0.86h1.76c0.19,0,0.27-0.22,0.27-0.41c0-0.25-0.13-0.45-0.36-0.45h-1.85
			c-0.27,0-0.45-0.4-0.45-0.76c0-0.41,0.18-0.81,0.59-0.81h3.02c0.17,0,0.27-0.1,0.27-0.4c0-0.21-0.05-0.46-0.36-0.46h-4
			c-0.15,0-0.33,0.12-0.41,0.21v5.36c0,0.18,0.16,0.3,0.33,0.3h4.23C70.02,48.34,70.1,48.15,70.1,47.93 M63.03,44.13
			c0,0.53-0.59,0.75-0.99,0.75h-1.53c-0.63,0-0.59-0.67-0.59-0.75c0-0.53,0.2-0.76,0.54-0.76h1.58
			C62.51,43.36,63.03,43.61,63.03,44.13 M64.07,44.17c0-1.16-0.97-1.72-1.85-1.72h-2.84c-0.06,0-0.45,0.03-0.45,0.3V48
			c0,0.22,0.26,0.3,0.45,0.3c0.19,0,0.5-0.04,0.5-0.4v-1.67c0-0.44,0.4-0.46,0.81-0.46c1.64,0,1.59,2.53,2.75,2.53
			c0.21,0,0.5,0.01,0.5-0.25c0-0.33-1.08-1.69-1.08-1.97C62.86,45.44,64.07,45.71,64.07,44.17 M56.55,45.36
			c0,0.29-0.19,2.02-2.03,2.02c-1.18,0-1.98-0.83-1.98-2.08c0-0.91,0.59-2.07,2.03-2.07C55.08,43.22,56.55,43.57,56.55,45.36
			 M57.54,45.36c0-1.82-1.17-3.04-3.02-3.04c-1.64,0-2.98,1.07-2.98,2.98c0,1.98,1.44,3.04,2.98,3.04
			C56.29,48.33,57.54,47.09,57.54,45.36 M49.66,44.13c0,0.53-0.59,0.75-0.99,0.75h-1.54c-0.63,0-0.59-0.67-0.59-0.75
			c0-0.53,0.2-0.76,0.54-0.76h1.58C49.13,43.36,49.66,43.61,49.66,44.13 M50.7,44.17c0-1.16-0.97-1.72-1.85-1.72h-2.84
			c-0.06,0-0.45,0.03-0.45,0.3V48c0,0.22,0.26,0.3,0.45,0.3c0.19,0,0.5-0.04,0.5-0.4v-1.67c0-0.44,0.4-0.46,0.81-0.46
			c1.64,0,1.59,2.53,2.75,2.53c0.21,0,0.5,0.01,0.5-0.25c0-0.33-1.08-1.69-1.08-1.97C49.48,45.44,50.7,45.71,50.7,44.17
			 M44.32,42.87c0-0.32-0.05-0.45-0.27-0.45h-4.6c-0.17,0-0.27,0.17-0.27,0.4c0,0.21,0.05,0.46,0.36,0.46h1.26
			c0.29,0,0.49,0.29,0.49,0.75v3.54c0,0.35-0.2,0.66,0.45,0.66c0.29,0,0.5-0.02,0.5-0.41v-4.09c0-0.24,0.23-0.45,0.45-0.45h1.26
			C44.11,43.28,44.32,43.19,44.32,42.87 M38.44,47.23c0-0.18-0.18-0.56-0.41-0.56c-0.36,0-0.66,0.8-2.03,0.8
			c-1.03,0-2.3-0.52-2.3-2.12c0-1.74,1.5-2.17,2.21-2.17c1,0,1.81,0.67,1.89,0.67c0.16,0,0.45-0.38,0.45-0.67
			c0-0.4-1.44-0.85-2.25-0.85c-1.81,0-3.24,1.21-3.24,3.03c0,1.48,1.07,2.74,2.32,2.94c0.13,0.02,0.47,0.08,0.86,0.08
			c0.4,0,0.87-0.07,1.05-0.12C37.82,48.04,38.44,47.39,38.44,47.23 M32.04,47.93c0-0.36-0.12-0.45-0.27-0.45h-3.16
			c-0.25,0-0.5-0.23-0.5-0.86c0-0.36,0.06-0.86,0.63-0.86h1.76c0.19,0,0.27-0.22,0.27-0.41c0-0.25-0.13-0.45-0.36-0.45h-1.85
			c-0.27,0-0.45-0.4-0.45-0.76c0-0.41,0.18-0.81,0.59-0.81h3.02c0.17,0,0.27-0.1,0.27-0.4c0-0.21-0.05-0.46-0.36-0.46h-4
			c-0.15,0-0.33,0.12-0.41,0.21v5.36c0,0.18,0.16,0.3,0.33,0.3h4.23C31.96,48.34,32.04,48.15,32.04,47.93 M26.18,47.85
			c0-0.34-0.04-0.45-0.27-0.45h-2.97c-0.24,0-0.45-0.35-0.45-0.56v-4.09c0-0.24-0.22-0.36-0.45-0.36c-0.25,0-0.5,0.15-0.5,0.46v4.95
			c0,0.21,0.06,0.46,0.36,0.46h4C26.07,48.27,26.18,48.12,26.18,47.85 M20.3,47.85c0-0.45-0.05-0.41-0.59-0.41H17.1
			c-0.53,0-0.67-0.23-0.67-0.86c0-0.36,0.01-0.8,0.45-0.8h1.89c0.17,0,0.27-0.14,0.27-0.41c0-0.25-0.02-0.23-0.13-0.4h-1.89
			c-0.44,0-0.59-0.23-0.59-0.76c0-0.28-0.02-0.75,0.5-0.75h3.07c0.09,0,0.27-0.02,0.27-0.41c0-0.22-0.02-0.4-0.27-0.4h-1.67
			c-0.1,0-0.56-0.1-0.67-0.1c-0.31,0-0.68,0.1-0.68,0.1h-1.17c-0.18,0-0.32,0.17-0.32,0.35v4.9c0,0.24,0.25,0.35,0.41,0.35h4.1
			C20.11,48.26,20.3,48.21,20.3,47.85 M18.32,41.59c0-0.1,0.01-0.1,0-0.15h-0.45c-0.15,0.1-0.33,0.13-0.36,0.56v0.25h0.32
			C18.06,42.06,18.32,41.91,18.32,41.59"/>
	</g>
</g>
</svg>
