<?xml version="1.0" encoding="utf-8"?>
<!-- Generator: Adobe Illustrator 27.0.0, SVG Export Plug-In . SVG Version: 6.00 Build 0)  -->
<svg version="1.1" id="Calque_1" xmlns="http://www.w3.org/2000/svg" xmlns:xlink="http://www.w3.org/1999/xlink" x="0px" y="0px"
	 viewBox="0 0 92.12 92.12" enable-background="new 0 0 92.12 92.12" xml:space="preserve">
<g>
	<g>
		<path id="XMLID_00000010991163878702274800000009315036801529724602_" fill="#FFFFFF" d="M58.05,37.17h-24
			c-0.94,0-1.69-0.76-1.69-1.71c0-0.94,0.76-1.71,1.69-1.71h24c0.94,0,1.69,0.76,1.69,1.71C59.76,36.41,58.99,37.17,58.05,37.17z"/>
		<g id="XMLID_00000109742583620709211070000003269525015553611919_">
			<path fill="#FFFFFF" d="M34.04,63.64c0.05,2.14-0.26,4-1.76,5.64c-1.61,1.75-4.01,2.74-6.37,2.74c-4.66,0-8.63-3.95-8.63-8.62
				c0-4.85,3.95-8.75,8.77-8.75c3.06,0,5.53,1.53,7.29,3.95l-0.87,0.7c-1.49-2.25-3.77-3.64-6.49-3.64c-4.1,0-7.63,3.61-7.63,7.68
				c0,4.17,3.44,7.68,7.63,7.68c1.81,0,3.56-0.74,4.95-1.86c1.45-1.24,1.98-2.65,2.05-4.49h-6.02v-1.01H34.04z"/>
			<path fill="#FFFFFF" d="M38.79,66.69c-0.06,2.63,1.74,4.38,4.13,4.38c1.61,0,2.9-0.96,3.64-2.36l0.85,0.5
				c-0.94,1.8-2.59,2.8-4.62,2.8c-3.05,0-4.99-2.49-4.99-5.44c0-2.9,1.98-5.39,4.99-5.39c3.12,0,4.97,2.51,4.95,5.5L38.79,66.69
				L38.79,66.69z M46.73,65.76c-0.25-1.91-1.81-3.61-3.93-3.61c-2.1,0-3.84,1.66-4.01,3.61H46.73z"/>
			<path fill="#FFFFFF" d="M60.29,63.82c-0.98-1.08-2.16-1.69-3.64-1.69c-2.43,0-4.26,2.09-4.26,4.45s1.81,4.49,4.24,4.49
				c1.47,0,2.85-0.71,3.79-1.86v1.37c-1.05,0.92-2.36,1.44-3.75,1.44c-3.05,0-5.28-2.4-5.28-5.44c0-3.01,2.27-5.39,5.31-5.39
				c1.34,0,2.56,0.4,3.59,1.28L60.29,63.82L60.29,63.82z"/>
			<path fill="#FFFFFF" d="M75.03,66.61c0,3.08-2.38,5.41-5.42,5.41c-2.96,0-5.36-2.45-5.36-5.39c0-2.99,2.36-5.44,5.36-5.44
				C72.64,61.2,75.03,63.53,75.03,66.61z M65.26,66.63c0,2.36,1.85,4.44,4.28,4.44c2.52,0,4.48-1.93,4.48-4.44
				c0-2.56-1.94-4.49-4.48-4.49C67.09,62.14,65.26,64.23,65.26,66.63z"/>
		</g>
		<g id="XMLID_00000142173588811409029540000005909417809676224421_">
			<path id="XMLID_00000049913463976251720670000002356328435069803191_" fill="#FFFFFF" d="M61.08,50.82
				c-3.91,0-7.82-1.49-10.79-4.49c-0.67-0.67-0.67-1.75,0-2.42c0.67-0.67,1.73-0.67,2.4,0c4.62,4.66,12.16,4.66,16.78,0
				c4.62-4.66,4.62-12.24,0-16.89c-2.24-2.26-5.22-3.5-8.39-3.5c-3.17,0-6.15,1.24-8.39,3.5c-2.65,2.67-4.07,6.22-5.44,9.67
				c-1.37,3.44-2.79,6.99-5.43,9.64c-5.95,5.99-15.63,5.99-21.58,0s-5.95-15.74,0-21.73s15.63-5.99,21.58,0
				c0.67,0.67,0.67,1.75,0,2.42c-0.67,0.67-1.73,0.67-2.4,0c-4.62-4.66-12.16-4.66-16.78,0s-4.62,12.24,0,16.89s12.16,4.66,16.78,0
				c2.15-2.16,3.38-5.24,4.67-8.5c1.5-3.76,3.05-7.65,6.19-10.81c2.88-2.9,6.71-4.5,10.79-4.5s7.91,1.6,10.79,4.5
				c5.95,5.99,5.95,15.74,0,21.73C68.9,49.33,64.99,50.82,61.08,50.82z"/>
		</g>
	</g>
</g>
</svg>
