<?xml version="1.0" encoding="utf-8"?>
<!-- Generator: Adobe Illustrator 27.0.0, SVG Export Plug-In . SVG Version: 6.00 Build 0)  -->
<svg version="1.1" id="Calque_1" xmlns="http://www.w3.org/2000/svg" xmlns:xlink="http://www.w3.org/1999/xlink" x="0px" y="0px"
	 viewBox="0 0 92.12 92.12" enable-background="new 0 0 92.12 92.12" xml:space="preserve">
<g>
	<g>
		<polygon fill="#FFFFFF" points="65.51,49.31 68.12,49.31 63.23,39.46 58.33,49.31 60.95,49.31 63.23,44.71 		"/>
		<g>
			<path fill="#FFFFFF" d="M16.8,49.31h-0.81v-9.58h0.81C16.8,39.72,16.8,49.31,16.8,49.31z"/>
			<path fill="#FFFFFF" d="M20.46,39.72L24,48.17l3.55-8.45h1.08v9.58h-0.81v-4.17l0.06-4.28l-3.56,8.44h-0.63l-3.55-8.41l0.06,4.21
				v4.2H19.4v-9.57H20.46z"/>
			<path fill="#FFFFFF" d="M32.12,39.72l3.53,8.45l3.55-8.45h1.08v9.58h-0.81v-4.17l0.06-4.28l-3.56,8.44h-0.63l-3.55-8.41
				l0.06,4.21v4.2h-0.81v-9.57H32.12z"/>
			<path fill="#FFFFFF" d="M49.79,44.9c0,0.88-0.15,1.66-0.46,2.32c-0.3,0.67-0.74,1.18-1.31,1.54c-0.56,0.36-1.22,0.54-1.96,0.54
				c-1.12,0-2.02-0.4-2.71-1.2c-0.69-0.8-1.03-1.88-1.03-3.24v-0.99c0-0.87,0.16-1.65,0.47-2.32s0.74-1.19,1.31-1.55
				c0.56-0.36,1.22-0.55,1.96-0.55c0.74,0,1.39,0.17,1.95,0.53c0.56,0.36,1,0.86,1.31,1.5c0.31,0.65,0.47,1.4,0.48,2.26v1.16H49.79z
				 M48.98,43.87c0-1.16-0.26-2.06-0.78-2.71c-0.52-0.65-1.24-0.98-2.15-0.98c-0.89,0-1.6,0.32-2.13,0.98
				c-0.53,0.66-0.79,1.57-0.79,2.75v1c0,1.13,0.26,2.04,0.79,2.7c0.52,0.67,1.24,1,2.15,1c0.92,0,1.63-0.32,2.15-0.98
				c0.51-0.66,0.77-1.57,0.77-2.74V43.87z"/>
			<path fill="#FFFFFF" d="M53.64,47.53h4.02v1.77h-6.33v-9.58h2.31V47.53z"/>
			<path fill="#FFFFFF" d="M68.7,49.31v-9.58h3.45c1.24,0,2.17,0.23,2.81,0.68c0.64,0.45,0.97,1.11,0.97,1.96
				c0,0.5-0.11,0.92-0.34,1.27c-0.23,0.35-0.56,0.61-1.01,0.78c0.5,0.13,0.89,0.38,1.15,0.74c0.27,0.36,0.4,0.8,0.4,1.31
				c0,0.93-0.3,1.64-0.9,2.11c-0.59,0.48-1.47,0.71-2.64,0.72L68.7,49.31L68.7,49.31z M71.01,43.72h1.2
				c0.51-0.01,0.86-0.1,1.08-0.28s0.32-0.44,0.32-0.8c0-0.4-0.12-0.7-0.35-0.87c-0.23-0.17-0.61-0.27-1.12-0.27h-1.13V43.72z
				 M71.01,45.23v2.3h1.51c0.42,0,0.74-0.1,0.96-0.29c0.22-0.19,0.33-0.46,0.33-0.81c0-0.8-0.4-1.2-1.19-1.2H71.01z"/>
			<polygon fill="#FFFFFF" points="56.4,53.94 55.99,53.74 62.99,39.29 71.24,35.8 71.42,36.22 63.33,39.64 			"/>
			<path fill="#FFFFFF" d="M72.44,36.9c-0.89,0-1.61-0.72-1.61-1.61c0-0.89,0.72-1.61,1.61-1.61c0.89,0,1.61,0.72,1.61,1.61
				C74.05,36.17,73.33,36.9,72.44,36.9z M72.44,34.15c-0.63,0-1.15,0.51-1.15,1.15c0,0.63,0.51,1.15,1.15,1.15
				c0.63,0,1.15-0.51,1.15-1.15C73.59,34.66,73.07,34.15,72.44,34.15z"/>
			<path fill="#FFFFFF" d="M61.38,36.91c-0.69,0-1.25-0.56-1.25-1.25c0-0.69,0.56-1.25,1.25-1.25c0.69,0,1.25,0.56,1.25,1.25
				C62.63,36.35,62.07,36.91,61.38,36.91z M61.38,34.88c-0.44,0-0.79,0.36-0.79,0.79s0.36,0.79,0.79,0.79
				c0.44,0,0.79-0.36,0.79-0.79S61.82,34.88,61.38,34.88z"/>
			<path fill="#FFFFFF" d="M70.21,54.5c-0.67,0-1.21-0.54-1.21-1.21c0-0.67,0.54-1.21,1.21-1.21c0.67,0,1.21,0.54,1.21,1.21
				C71.43,53.96,70.88,54.5,70.21,54.5z M70.21,52.55c-0.41,0-0.75,0.33-0.75,0.75c0,0.41,0.33,0.75,0.75,0.75
				c0.41,0,0.75-0.33,0.75-0.75C70.97,52.88,70.63,52.55,70.21,52.55z"/>
			<path fill="#FFFFFF" d="M55.75,56.72c-0.88,0-1.6-0.71-1.6-1.6c0-0.88,0.71-1.6,1.6-1.6c0.88,0,1.6,0.71,1.6,1.6
				C57.34,56.01,56.63,56.72,55.75,56.72z M55.75,53.99c-0.63,0-1.13,0.51-1.13,1.13c0,0.63,0.51,1.13,1.13,1.13
				c0.63,0,1.13-0.51,1.13-1.13C56.88,54.5,56.38,53.99,55.75,53.99z"/>
			
				<rect x="65.52" y="35.52" transform="matrix(0.8938 -0.4485 0.4485 0.8938 -12.9729 34.2134)" fill="#FFFFFF" width="0.46" height="17.96"/>
		</g>
	</g>
</g>
</svg>
