<?xml version="1.0" encoding="UTF-8"?><svg xmlns="http://www.w3.org/2000/svg" xmlns:xlink="http://www.w3.org/1999/xlink" viewBox="0 0 256 256"><defs><style>.uuid-99c37e98-0a42-43a2-b02b-7b018666ba09{fill:url(#uuid-5c95f881-52db-45fc-b74c-d3816a922640);}.uuid-99c37e98-0a42-43a2-b02b-7b018666ba09,.uuid-a832e253-b2e3-4a88-9e05-2c3f80eaec46,.uuid-e97d5699-7edf-43d4-b135-d0c5760fe1e5,.uuid-623b3a18-6a33-4488-9809-439d6783acc6,.uuid-1a99b718-a354-40b1-8921-7ff1df57641d,.uuid-bf04ea29-72ca-4f2a-8687-439e3fac60b8,.uuid-b34660cb-3fc6-4eea-80b7-e1ca9b01d822,.uuid-3c4cef93-6a9a-484d-8dd9-a601f47b19b2,.uuid-6c0c9b90-e0f6-402e-a220-28622bbb85b9,.uuid-4c61d80e-0261-4714-a626-d33d376aee20,.uuid-2ae2a035-8b75-49c9-a5d6-a623d065e41c,.uuid-79ae7bd0-1d6e-46b0-8376-a7c495f4296f,.uuid-9b907d61-791e-4ada-93ae-f1d60b99ab08,.uuid-f79362c9-213b-4fbf-b92b-3c035642470e,.uuid-244b867d-f932-4db2-bece-19f57c2b0bb1,.uuid-df7bf850-ee6e-4613-9f38-6f05197adfd0,.uuid-8a8655dc-b549-4223-9178-8fd70dd982d0,.uuid-cf1d5164-b6e6-4206-b208-58cf549845a9,.uuid-7ade39b7-adfa-4f54-8a66-7ed942fa08b5,.uuid-9e6aa359-432e-4c18-94f4-4f410105214a{stroke-width:0px;}.uuid-a832e253-b2e3-4a88-9e05-2c3f80eaec46{fill:#009285;}.uuid-a832e253-b2e3-4a88-9e05-2c3f80eaec46,.uuid-e97d5699-7edf-43d4-b135-d0c5760fe1e5{mix-blend-mode:luminosity;}.uuid-e97d5699-7edf-43d4-b135-d0c5760fe1e5{fill:#00a497;}.uuid-623b3a18-6a33-4488-9809-439d6783acc6{fill:url(#uuid-bed791a1-f7a3-4c8d-ba6e-8a8261fad789);}.uuid-1a99b718-a354-40b1-8921-7ff1df57641d{fill:url(#uuid-fc23c4c5-821f-4175-a781-ceea6a28315d);}.uuid-bf04ea29-72ca-4f2a-8687-439e3fac60b8{fill:url(#uuid-7b243c36-6dc5-4322-88c4-d470d14c0003);}.uuid-b34660cb-3fc6-4eea-80b7-e1ca9b01d822{fill:url(#uuid-b76ae838-34d2-49b9-ad6a-07edf3d1da40);}.uuid-3c4cef93-6a9a-484d-8dd9-a601f47b19b2{fill:url(#uuid-84e454a2-9fe1-432e-aa2d-f70fab476ff7);}.uuid-6c0c9b90-e0f6-402e-a220-28622bbb85b9{fill:url(#uuid-d915c820-6aac-42a4-8ef5-a9e2bfa92268);}.uuid-4c61d80e-0261-4714-a626-d33d376aee20{fill:url(#uuid-10c0dec5-845b-4b0c-9a5c-db93ed9a8bbd);}.uuid-58e3c358-7fbd-4e11-94b8-f2c9e0343426{isolation:isolate;}.uuid-2ae2a035-8b75-49c9-a5d6-a623d065e41c{fill:url(#uuid-62ac91ea-edf4-46d9-98b5-61daec496975);}.uuid-79ae7bd0-1d6e-46b0-8376-a7c495f4296f{fill:url(#uuid-c0d751b1-c06b-4bca-9a03-d825128871da);}.uuid-9b907d61-791e-4ada-93ae-f1d60b99ab08{fill:url(#uuid-c1530bac-77dd-4ac0-bfc5-77d536993c61);}.uuid-f79362c9-213b-4fbf-b92b-3c035642470e{fill:#51867a;}.uuid-244b867d-f932-4db2-bece-19f57c2b0bb1{fill:#275c50;}.uuid-df7bf850-ee6e-4613-9f38-6f05197adfd0{fill:#c3f8ec;}.uuid-8a8655dc-b549-4223-9178-8fd70dd982d0{fill:#89beb2;}.uuid-cf1d5164-b6e6-4206-b208-58cf549845a9{fill:#97ccc0;}.uuid-7ade39b7-adfa-4f54-8a66-7ed942fa08b5{fill:#fff;}.uuid-9e6aa359-432e-4c18-94f4-4f410105214a{fill:url(#uuid-1a386220-fabd-41f3-abc1-a4da5086ef7c);}</style><linearGradient id="uuid-bed791a1-f7a3-4c8d-ba6e-8a8261fad789" x1="613.28" y1="-764.88" x2="614.28" y2="-764.88" gradientTransform="translate(115158.11 174348.29) rotate(-174.68) scale(212.88 -212.88)" gradientUnits="userSpaceOnUse"><stop offset="0" stop-color="#14493d"/><stop offset=".21" stop-color="#275c50"/><stop offset=".37" stop-color="#33685c"/><stop offset=".67" stop-color="#558a7e"/><stop offset="1" stop-color="#82b7ab"/><stop offset="1" stop-color="#51867a"/></linearGradient><linearGradient id="uuid-c1530bac-77dd-4ac0-bfc5-77d536993c61" x1="613.28" y1="-764.88" x2="614.28" y2="-764.88" gradientTransform="translate(115021.4 174124.09) rotate(-174.68) scale(212.63 -212.63)" xlink:href="#uuid-bed791a1-f7a3-4c8d-ba6e-8a8261fad789"/><linearGradient id="uuid-fc23c4c5-821f-4175-a781-ceea6a28315d" x1="613.28" y1="-764.88" x2="614.28" y2="-764.88" gradientTransform="translate(115050.76 174161.8) rotate(-174.68) scale(212.68 -212.68)" xlink:href="#uuid-bed791a1-f7a3-4c8d-ba6e-8a8261fad789"/><linearGradient id="uuid-84e454a2-9fe1-432e-aa2d-f70fab476ff7" x1="613.28" y1="-764.88" x2="614.28" y2="-764.88" gradientTransform="translate(115055.85 174176.66) rotate(-174.68) scale(212.69 -212.69)" xlink:href="#uuid-bed791a1-f7a3-4c8d-ba6e-8a8261fad789"/><linearGradient id="uuid-7b243c36-6dc5-4322-88c4-d470d14c0003" x1="613.28" y1="-764.88" x2="614.28" y2="-764.88" gradientTransform="translate(115049.05 174174.89) rotate(-174.68) scale(212.68 -212.68)" xlink:href="#uuid-bed791a1-f7a3-4c8d-ba6e-8a8261fad789"/><linearGradient id="uuid-c0d751b1-c06b-4bca-9a03-d825128871da" x1="609.9" y1="-765" x2="610.9" y2="-765" gradientTransform="translate(-79107.86 -99206.81) scale(129.83 -129.83)" gradientUnits="userSpaceOnUse"><stop offset="0" stop-color="#14493d"/><stop offset=".16" stop-color="#275c50"/><stop offset=".27" stop-color="#2d6256"/><stop offset=".43" stop-color="#407569"/><stop offset=".62" stop-color="#5f9488"/><stop offset=".79" stop-color="#82b7ab"/><stop offset="1" stop-color="#51867a"/></linearGradient><linearGradient id="uuid-b76ae838-34d2-49b9-ad6a-07edf3d1da40" x1="609.9" y1="-765" x2="610.9" y2="-765" gradientTransform="translate(-79107.7 -99214.37) scale(129.83 -129.83)" xlink:href="#uuid-c0d751b1-c06b-4bca-9a03-d825128871da"/><linearGradient id="uuid-1a386220-fabd-41f3-abc1-a4da5086ef7c" x1="610.1" y1="-765" x2="611.1" y2="-765" gradientTransform="translate(-87502.65 -109689.24) scale(143.54 -143.54)" xlink:href="#uuid-c0d751b1-c06b-4bca-9a03-d825128871da"/><linearGradient id="uuid-5c95f881-52db-45fc-b74c-d3816a922640" x1="613.21" y1="-766.05" x2="614.21" y2="-766.05" gradientTransform="translate(164466.2 30476.22) rotate(139.17) scale(170.24 -170.24)" xlink:href="#uuid-c0d751b1-c06b-4bca-9a03-d825128871da"/><linearGradient id="uuid-d915c820-6aac-42a4-8ef5-a9e2bfa92268" x1="613.37" y1="-766.18" x2="614.37" y2="-766.18" gradientTransform="translate(145768.04 26996.23) rotate(139.17) scale(150.85 -150.85)" xlink:href="#uuid-c0d751b1-c06b-4bca-9a03-d825128871da"/><linearGradient id="uuid-62ac91ea-edf4-46d9-98b5-61daec496975" x1="613.37" y1="-766.19" x2="614.37" y2="-766.19" gradientTransform="translate(145695.35 26989.48) rotate(139.17) scale(150.76 -150.76)" xlink:href="#uuid-c0d751b1-c06b-4bca-9a03-d825128871da"/><linearGradient id="uuid-10c0dec5-845b-4b0c-9a5c-db93ed9a8bbd" x1="609.9" y1="-765" x2="610.9" y2="-765" gradientTransform="translate(-79107.8 -99210.45) scale(129.83 -129.83)" gradientUnits="userSpaceOnUse"><stop offset="0" stop-color="#14493d"/><stop offset=".48" stop-color="#275c50"/><stop offset=".54" stop-color="#2d6256"/><stop offset=".62" stop-color="#407569"/><stop offset=".71" stop-color="#5f9488"/><stop offset=".79" stop-color="#82b7ab"/><stop offset="1" stop-color="#51867a"/></linearGradient></defs><g class="uuid-58e3c358-7fbd-4e11-94b8-f2c9e0343426"><g id="uuid-205703c5-4614-4f89-9860-e65224c50723"><path class="uuid-7ade39b7-adfa-4f54-8a66-7ed942fa08b5" d="m96.24,157.68c-.44-2.09-1.11-3.35-2.85-3.35-2.37,0-3.48,2.42-3.48,5.78,0,4.1,1.48,6.15,4.7,6.15,1.85,0,3.96-.71,5.52-1.75l-.18,3.5c-1.52,1.01-3.93,1.71-6.3,1.71-5.52,0-8.74-3.32-8.74-9.28s3.11-9.47,8.45-9.47c1.96,0,3.67.52,4.96,1.49,1.26.97,2.04,2.46,2.41,4.29l-4.48.93Z"/><path class="uuid-7ade39b7-adfa-4f54-8a66-7ed942fa08b5" d="m116.29,165.7l-.3,3.69h-13.36v-23.59h5.15v19.9h8.51Z"/><path class="uuid-7ade39b7-adfa-4f54-8a66-7ed942fa08b5" d="m135.1,168.68c-.74.52-1.96.93-3.3.93-1.52,0-2.78-.63-3.19-1.9-.96,1.27-2.85,2.01-4.85,2.01-3.82,0-6.37-2.12-6.37-6s2.82-6.11,7.04-6.11c1.3,0,2.7.26,3.63.6v-.48c0-1.19-.15-1.94-.7-2.57-.56-.63-1.56-.97-3-.97-1.74,0-3.63.45-5.37,1.34v-3.35c1.7-.78,3.93-1.19,6.15-1.19,2.82,0,4.89.6,6.26,1.9,1.11,1.04,1.59,2.53,1.59,4.62v7.71c0,.78.26,1.12.85,1.12.44,0,1.15-.26,1.44-.48l-.19,2.83Zm-7.04-7.79c-.56-.22-1.63-.45-2.56-.45-2.15,0-3.15,1.3-3.15,3.05,0,1.97,1.11,3.02,2.82,3.02.89,0,1.67-.34,2.15-.86.48-.52.74-1.3.74-2.27v-2.5Z"/><path class="uuid-7ade39b7-adfa-4f54-8a66-7ed942fa08b5" d="m147.65,155c-.37-.07-1-.11-1.44-.11-1.07,0-1.96.3-2.56,1-.7.86-.89,1.98-.89,3.54v9.95h-4.93v-14.57h-2.15l-1.3-3.5h6.45l.89,2.53c.89-1.79,2.7-2.87,4.78-2.87.44,0,.81.04,1.15.11v3.91Z"/><path class="uuid-7ade39b7-adfa-4f54-8a66-7ed942fa08b5" d="m162.81,161.97h-9.34c.33,2.91,2.11,4.32,4.85,4.32,2.07,0,4.33-.74,5.89-1.83l-.19,3.39c-1.7,1.23-4.3,1.86-6.7,1.86-5.74,0-8.93-3.65-8.93-9.28,0-5.96,3.44-9.47,8.48-9.47s8.15,3.28,8.15,8.31c0,1.94-.55,2.68-2.22,2.68Zm-5.93-7.64c-1.89,0-3.33,1.45-3.48,4.81h6.56c.26,0,.33-.11.33-.37,0-2.83-1.3-4.43-3.41-4.43Z"/><path class="uuid-7ade39b7-adfa-4f54-8a66-7ed942fa08b5" d="m184.52,169.39h-4.93v-11.03c0-1.19-.11-1.98-.59-2.65-.48-.63-1.26-1.01-2.33-1.01-1.19,0-2,.48-2.52,1.15-.59.78-.74,1.79-.74,3.17v10.36h-4.93v-14.57h-2.15l-1.3-3.5h6.38l.89,2.31c1.19-1.6,3.15-2.65,5.74-2.65,2.11,0,3.82.6,4.93,1.75,1.15,1.23,1.56,2.8,1.56,4.85v11.81Z"/><path class="uuid-7ade39b7-adfa-4f54-8a66-7ed942fa08b5" d="m193.37,169.72c-2.26,0-4.7-.41-6.52-1.23l.3-3.73c1.56.93,4.08,1.57,5.89,1.57,1.93,0,3.04-.6,3.04-1.79,0-3.17-9.3-1.19-9.3-7.86,0-3.58,3.04-5.7,7.41-5.7,1.7,0,3.74.3,5.04.78v3.5c-1.26-.52-2.93-.93-4.7-.93s-3.19.67-3.19,1.86c0,2.91,9.3,1.27,9.3,7.82,0,3.8-3.15,5.7-7.26,5.7Z"/><path class="uuid-7ade39b7-adfa-4f54-8a66-7ed942fa08b5" d="m77.98,145.8l-6.04,14.09c-.41.93-.85,2.42-.89,2.94h-.04c-.07-.56-.56-1.98-1-2.94l-6.41-14.09h-8.24s1.31,3.65,1.31,3.65h2.15v19.94h4.33v-15.46c.19,1.12.56,2.31.96,3.2l5.52,12.26h2.48l5.3-12.3c.33-.78.89-2.35,1-3.13v15.43h4.37v-23.59h-4.82Z"/><path class="uuid-f79362c9-213b-4fbf-b92b-3c035642470e" d="m112.54,114.53l-5.67,2.34h0s0,0,0,0l-4.58,1.89c1.95,2.53,4.2,4.7,6.66,6.52.32-1.09.65-2.17.99-3.24.81-2.54,1.67-5.04,2.6-7.51"/><path class="uuid-df7bf850-ee6e-4613-9f38-6f05197adfd0" d="m113.85,111.19c-.45,1.1-.88,2.21-1.3,3.33l2.29-.94h0s-.99-2.39-.99-2.39"/><path class="uuid-df7bf850-ee6e-4613-9f38-6f05197adfd0" d="m119.35,124.47l-7.22,1.28,1.44,2.43c.84.43,1.7.83,2.57,1.19,1.26-1.14,2.51-2.34,3.76-3.59l-.54-1.31"/><path class="uuid-df7bf850-ee6e-4613-9f38-6f05197adfd0" d="m100.57,79.19c-1.34,2.09-2.44,4.31-3.3,6.61l5.78-.63-2.48-5.97"/><polyline class="uuid-df7bf850-ee6e-4613-9f38-6f05197adfd0" points="104.01 104.39 100.02 105.32 103.2 110.69 104.01 104.39"/><path class="uuid-623b3a18-6a33-4488-9809-439d6783acc6" d="m95.13,97.06c-.07,3.06.27,6.15,1.04,9.17l3.86-.9-4.9-8.26"/><path class="uuid-9b907d61-791e-4ada-93ae-f1d60b99ab08" d="m150.09,80l-20.21,2.22c-4.37,5.98-8.17,12.23-11.44,18.79l23.8-5.57h0c2.7-4.79,5.32-9.93,7.86-15.43"/><path class="uuid-1a99b718-a354-40b1-8921-7ff1df57641d" d="m158.54,80.73c-1.02,3.9-2.08,7.79-3.19,11.64l7-1.64c-.72-3.44-1.99-6.82-3.81-10"/><polyline class="uuid-3c4cef93-6a9a-484d-8dd9-a601f47b19b2" points="106.5 84.78 103.05 85.16 105.65 91.44 106.5 84.78"/><path class="uuid-bf04ea29-72ca-4f2a-8687-439e3fac60b8" d="m103.05,85.16h0l-5.78.63c-1.34,3.61-2.06,7.41-2.15,11.26l4.9,8.26,3.98-.93,1.65-12.94-2.61-6.28"/><path class="uuid-79ae7bd0-1d6e-46b0-8376-a7c495f4296f" d="m136.73,104.57l-21.89,9.02h0s4.52,10.88,4.52,10.88l2.2-.39h0c5.24-5.51,10.32-12,15.18-19.51"/><path class="uuid-b34660cb-3fc6-4eea-80b7-e1ca9b01d822" d="m162.85,93.81l-9.01,3.71c-2.33,7.72-4.84,15.21-7.56,22.18l10.31-1.82c5.04-6.98,7.25-15.61,6.27-24.07"/><path class="uuid-9e6aa359-432e-4c18-94f4-4f410105214a" d="m114.84,113.58l-2.29.94h0c-.93,2.47-1.79,4.98-2.61,7.52-.34,1.07-.67,2.15-.99,3.24.38.28.76.55,1.15.81l2.04-.36,7.22-1.28-4.52-10.88"/><path class="uuid-99c37e98-0a42-43a2-b02b-7b018666ba09" d="m146.27,119.7l-24.72,4.38h0c-.55.58-1.1,1.14-1.65,1.7h0s0,0,0,0c-1.24,1.25-2.5,2.45-3.76,3.59,2.47,1.02,4.52,1.54,6.02,1.86h0c2.29.47,4.63.72,6.98.72,4.42,0,8.88-.87,13.1-2.65,1.39-3.06,2.74-6.27,4.03-9.6"/><path class="uuid-6c0c9b90-e0f6-402e-a220-28622bbb85b9" d="m152.99,73.47c-.95,2.23-1.92,4.41-2.89,6.53l7.5-.82c-.19-.29-.37-.58-.56-.86-1.22-1.77-2.58-3.39-4.05-4.85"/><path class="uuid-2ae2a035-8b75-49c9-a5d6-a623d065e41c" d="m155.35,92.37l-13.11,3.07h0c-1.8,3.2-3.64,6.24-5.51,9.13l17.11-7.05h0c.51-1.71,1.02-3.43,1.52-5.15"/><path class="uuid-244b867d-f932-4db2-bece-19f57c2b0bb1" d="m157.6,79.18h0l-7.5.82h0c-2.53,5.5-5.15,10.64-7.86,15.43h0l13.11-3.07c1.11-3.85,2.17-7.74,3.19-11.64-.3-.52-.61-1.04-.94-1.55"/><path class="uuid-4c61d80e-0261-4714-a626-d33d376aee20" d="m153.83,97.52l-17.11,7.05h0c-4.86,7.51-9.94,14-15.18,19.51h0l24.72-4.38c2.72-6.97,5.23-14.46,7.56-22.18h0"/><path class="uuid-cf1d5164-b6e6-4206-b208-58cf549845a9" d="m118.44,101.01l-8.03,1.88,3.45,8.31h0c1.4-3.47,2.93-6.87,4.59-10.19"/><polyline class="uuid-cf1d5164-b6e6-4206-b208-58cf549845a9" points="106.86 116.86 102.28 118.74 102.29 118.76 106.87 116.87 106.86 116.86"/><polyline class="uuid-cf1d5164-b6e6-4206-b208-58cf549845a9" points="103.2 110.69 103.2 110.69 102.19 118.65 102.28 118.76 102.29 118.76 102.28 118.74 106.86 116.86 103.2 110.69"/><path class="uuid-8a8655dc-b549-4223-9178-8fd70dd982d0" d="m110.4,102.89l-6.4,1.5-.8,6.3,3.66,6.17h0s5.68-2.34,5.68-2.34h0s0,.01,0,.02h0c.42-1.12.86-2.23,1.3-3.34h0l-3.45-8.31"/><path class="uuid-8a8655dc-b549-4223-9178-8fd70dd982d0" d="m112.55,114.51l-5.68,2.34h0s0,.02,0,.02l5.67-2.34s0-.01,0-.02"/><path class="uuid-cf1d5164-b6e6-4206-b208-58cf549845a9" d="m129.88,82.22c3.95-5.4,8.38-10.58,13.31-15.55-10.53-4.82-23.23-4.11-33.43,2.99-.5.35-.99.71-1.47,1.08l-1.79,14.04,23.38-2.56Z"/><path class="uuid-e97d5699-7edf-43d4-b135-d0c5760fe1e5" d="m118.44,101.01c3.28-6.55,7.07-12.81,11.44-18.79l-23.38,2.56-.85,6.66,4.75,11.45,8.03-1.88Z"/><polygon class="uuid-a832e253-b2e3-4a88-9e05-2c3f80eaec46" points="105.65 91.44 104.01 104.39 110.4 102.89 105.65 91.44"/></g></g></svg>