<?xml version="1.0" encoding="utf-8"?>
<!-- Generator: Adobe Illustrator 27.0.0, SVG Export Plug-In . SVG Version: 6.00 Build 0)  -->
<svg version="1.1" id="Calque_1" xmlns="http://www.w3.org/2000/svg" xmlns:xlink="http://www.w3.org/1999/xlink" x="0px" y="0px"
	 viewBox="0 0 92.12 92.12" enable-background="new 0 0 92.12 92.12" xml:space="preserve">
<g>
	<g>
		<path fill="#FFFFFF" d="M61.85,34.22c-0.62-3.16-2.6-6.42-5.25-8.63c-2.62-2.19-5.8-3.47-8.74-3.89
			c-0.31-0.05-0.63-0.08-0.93-0.11c-4.24-0.39-7.98,1.07-10.35,3c-0.06,0.04-0.12,0.08-0.18,0.13c-1.18,0.87-2.1,1.87-2.7,2.86
			c0.28-0.25,0.48-0.46,0.77-0.69c0.02-0.02,0.13-0.1,0.14-0.13c0.08-0.08,0.16-0.13,0.24-0.2c2.57-2.01,6.27-3.39,10.11-3.24
			c0.79,0.03,1.59,0.13,2.41,0.29c5.23,0.91,10.46,5.51,11.18,10.36c0.35,2.04-0.01,4.15-0.95,5.76c-0.1,0.13-0.2,0.26-0.3,0.37
			c-0.01,0.01-0.01,0.01-0.02,0.02c-1.3,1.36-3.26,2.08-5.39,2.06c-0.73-0.01-1.48-0.1-2.23-0.29c-3.36-0.6-5.98-2.86-7.44-5.53
			c-1.36-2.51-1.6-5.26-0.45-7.27c0-0.01,0.01-0.01,0.01-0.02c-0.3,0.26-0.6,0.53-0.9,0.8c-1.76,1.71-2.78,4.81-1.81,8.24
			c0.96,3.68,4.47,7.25,8.75,8.55c1.44,0.49,2.94,0.7,4.41,0.63c2.52-0.11,4.89-1.05,6.61-2.77c0.48-0.47,0.9-1,1.25-1.56
			c0.19-0.3,0.37-0.59,0.55-0.88c-0.07,0.12-0.16,0.23-0.24,0.35C61.91,40.18,62.41,37.13,61.85,34.22"/>
		<path fill="#FFFFFF" d="M34.29,28.45c-2.42,2.12-3.92,5.21-4.2,8.46c-0.38,4.34,1.48,9.01,4.85,12.21
			c3.46,3.28,7.91,4.8,11.92,4.81c0.41,0.01,0.81-0.01,1.21-0.03c4.68-0.31,8.33-2.81,10.34-5.68c0.22-0.3,0.43-0.62,0.63-0.92
			c-0.26,0.39,0.26-0.43,0,0c0.57-0.94,1.2-1.97,1.6-3.54c-0.47,0.83-1.08,1.61-1.81,2.33c-0.49,0.51-1.03,0.97-1.62,1.4
			c-1.69,1.2-3.83,2.01-6.22,2.15c-0.9,0.06-1.83,0.02-2.79-0.13c-6.81-0.72-13.2-6.95-12.69-13.66c0.12-2.33,1.1-4.55,2.66-6.09
			c0.11-0.09,0.23-0.17,0.35-0.25c1.66-1.14,3.83-1.71,5.97-1.61c0.7,0.03,1.4,0.13,2.08,0.3c5.69,1.15,9.27,7.74,7.78,12.1
			c0.23-0.3,0.47-0.61,0.68-0.91c0.11-0.17,0.22-0.35,0.31-0.53c0.91-1.75,1.08-4.32-0.1-6.9c-1.17-2.66-4.14-5.3-7.55-6.39
			c-1.21-0.41-2.5-0.64-3.8-0.7c-2.4-0.1-4.89,0.44-6.97,1.62c-0.78,0.44-1.52,0.96-2.21,1.58L34.29,28.45z"/>
	</g>
	<g>
		<g>
			<g>
				<path fill="#FFFFFF" d="M15.82,59.07h2.21c1.9,0,3.64,0.55,3.64,2.64c0,2.05-1.49,2.78-3.37,2.78h-0.74v3.32h-1.75V59.07z
					 M17.57,63.12h0.62c0.87,0,1.67-0.29,1.67-1.3s-0.76-1.36-1.67-1.36h-0.62C17.57,60.45,17.57,63.12,17.57,63.12z"/>
				<path fill="#FFFFFF" d="M25.47,61.21c1.92,0,3.38,1.29,3.38,3.42c0,1.85-1.24,3.33-3.38,3.33c-2.13,0-3.37-1.48-3.37-3.33
					C22.1,62.5,23.57,61.21,25.47,61.21z M25.47,66.67c1.29,0,1.63-1.16,1.63-2.23c0-0.99-0.53-1.92-1.63-1.92
					c-1.09,0-1.61,0.95-1.61,1.92C23.86,65.49,24.19,66.67,25.47,66.67z"/>
				<path fill="#FFFFFF" d="M29.94,59.07h1.68v8.75h-1.68V59.07z"/>
				<path fill="#FFFFFF" d="M35.94,66.07h0.02l1.56-4.71h1.7l-2.42,6.4c-0.54,1.43-0.93,2.83-2.68,2.83c-0.4,0-0.8-0.06-1.19-0.18
					l0.11-1.24c0.22,0.07,0.45,0.11,0.87,0.11c0.67,0,1.09-0.47,1.09-1.16l-2.46-6.78h1.85L35.94,66.07z"/>
				<path fill="#FFFFFF" d="M45.27,67.45c-0.62,0.34-1.32,0.51-2.21,0.51c-2.13,0-3.37-1.23-3.37-3.35c0-1.87,0.99-3.41,2.99-3.41
					c2.39,0,3.07,1.64,3.07,3.9h-4.46c0.07,1.04,0.8,1.63,1.85,1.63c0.81,0,1.52-0.3,2.14-0.65V67.45z M44.14,63.95
					c-0.05-0.81-0.43-1.52-1.36-1.52s-1.41,0.65-1.49,1.52H44.14z"/>
				<path fill="#FFFFFF" d="M46.41,61.36h1.98l1.27,2.1l1.24-2.1h1.78l-1.93,3.07l2.18,3.39h-2.01l-1.44-2.41l-1.45,2.41H46.2
					l2.21-3.39L46.41,61.36z"/>
				<path fill="#FFFFFF" d="M53.78,61.36h1.6v0.91h0.02c0.38-0.63,1.02-1.07,2.01-1.07c1.98,0,2.7,1.58,2.7,3.35
					c0,1.77-0.72,3.39-2.74,3.39c-0.71,0-1.3-0.18-1.89-0.89h-0.02v3.37h-1.68C53.78,70.44,53.78,61.36,53.78,61.36z M55.47,64.57
					c0,0.91,0.36,2.09,1.48,2.09c1.1,0,1.41-1.2,1.41-2.09c0-0.87-0.3-2.05-1.39-2.05C55.9,62.52,55.47,63.66,55.47,64.57z"/>
				<path fill="#FFFFFF" d="M66.63,67.45c-0.62,0.34-1.32,0.51-2.21,0.51c-2.13,0-3.37-1.23-3.37-3.35c0-1.87,0.99-3.41,2.99-3.41
					c2.39,0,3.07,1.64,3.07,3.9h-4.46c0.07,1.04,0.8,1.63,1.85,1.63c0.81,0,1.52-0.3,2.14-0.65C66.63,66.09,66.63,67.45,66.63,67.45
					z M65.49,63.95c-0.05-0.81-0.43-1.52-1.36-1.52c-0.94,0-1.41,0.65-1.49,1.52H65.49z"/>
				<path fill="#FFFFFF" d="M68.33,61.36h1.49v1.47h0.02c0.07-0.6,0.76-1.61,1.77-1.61c0.16,0,0.34,0,0.51,0.05v1.69
					c-0.15-0.09-0.45-0.14-0.75-0.14c-1.36,0-1.36,1.7-1.36,2.63v2.37h-1.68V61.36z"/>
				<path fill="#FFFFFF" d="M73.02,62.59L73.02,62.59v-1.23l0,0v-1.29l1.68-0.54v1.83h1.49v1.23H74.7v3.01
					c0,0.55,0.15,1.07,0.79,1.07c0.3,0,0.59-0.06,0.76-0.18l0.05,1.33c-0.35,0.1-0.74,0.15-1.24,0.15c-1.32,0-2.04-0.82-2.04-2.09
					L73.02,62.59L73.02,62.59z"/>
			</g>
		</g>
	</g>
</g>
</svg>
