<?xml version="1.0" encoding="utf-8"?>
<!-- Generator: Adobe Illustrator 27.0.0, SVG Export Plug-In . SVG Version: 6.00 Build 0)  -->
<svg version="1.1" id="Calque_1" xmlns="http://www.w3.org/2000/svg" xmlns:xlink="http://www.w3.org/1999/xlink" x="0px" y="0px"
	 viewBox="0 0 92.12 92.12" enable-background="new 0 0 92.12 92.12" xml:space="preserve">
<g>
	<g>
		<path fill="#FFFFFF" d="M61.82,31.01c-0.62-3.16-2.6-6.41-5.24-8.62c-2.62-2.19-5.79-3.46-8.73-3.89
			c-0.31-0.05-0.62-0.08-0.93-0.1c-4.24-0.39-7.96,1.06-10.34,3c-0.06,0.04-0.11,0.08-0.18,0.13c-1.18,0.86-2.1,1.86-2.7,2.86
			c0.28-0.25,0.48-0.45,0.77-0.69c0.01-0.02,0.13-0.1,0.14-0.12c0.08-0.08,0.16-0.13,0.24-0.2c2.56-2.01,6.25-3.39,10.1-3.24
			c0.79,0.03,1.59,0.12,2.4,0.29c5.22,0.92,10.45,5.5,11.17,10.34c0.35,2.04-0.01,4.14-0.94,5.75c-0.1,0.13-0.2,0.26-0.31,0.37
			c-0.01,0.01-0.01,0.01-0.02,0.02c-1.3,1.35-3.25,2.08-5.39,2.06c-0.73-0.01-1.48-0.1-2.23-0.29c-3.35-0.6-5.97-2.85-7.43-5.52
			c-1.36-2.51-1.6-5.25-0.45-7.26c0-0.01,0.01-0.01,0.01-0.02c-0.3,0.26-0.6,0.52-0.9,0.8c-1.76,1.71-2.77,4.8-1.8,8.23
			c0.96,3.67,4.46,7.24,8.74,8.55c1.43,0.49,2.94,0.7,4.41,0.64c2.51-0.11,4.89-1.05,6.61-2.76c0.48-0.48,0.89-1,1.26-1.55
			c0.19-0.3,0.37-0.59,0.55-0.89c-0.07,0.12-0.16,0.23-0.24,0.35C61.89,36.96,62.4,33.92,61.82,31.01"/>
		<path fill="#FFFFFF" d="M34.3,25.25c-2.41,2.11-3.91,5.2-4.19,8.45c-0.38,4.33,1.48,9,4.84,12.19c3.46,3.28,7.9,4.79,11.92,4.81
			c0.41,0.01,0.81-0.01,1.21-0.03c4.67-0.31,8.32-2.81,10.33-5.68c0.22-0.31,0.43-0.62,0.63-0.93c-0.26,0.39,0.26-0.43,0,0
			c0.56-0.93,1.2-1.96,1.6-3.54c-0.48,0.83-1.09,1.61-1.8,2.33c-0.48,0.51-1.03,0.97-1.62,1.39c-1.69,1.19-3.82,2.01-6.21,2.15
			c-0.89,0.06-1.83,0.02-2.8-0.12c-6.81-0.73-13.19-6.94-12.68-13.64c0.12-2.33,1.1-4.54,2.65-6.08c0.11-0.09,0.23-0.17,0.35-0.25
			c1.66-1.14,3.83-1.71,5.96-1.61c0.69,0.03,1.39,0.13,2.08,0.3c5.69,1.14,9.26,7.73,7.77,12.09c0.23-0.31,0.46-0.61,0.68-0.91
			c0.11-0.17,0.22-0.35,0.31-0.53c0.91-1.75,1.08-4.31-0.1-6.9c-1.17-2.66-4.13-5.3-7.54-6.38c-1.21-0.41-2.51-0.64-3.8-0.69
			c-2.4-0.1-4.89,0.44-6.96,1.62c-0.78,0.44-1.52,0.96-2.2,1.58L34.3,25.25z"/>
	</g>
	<g>
		<g>
			<g>
				<path fill="#FFFFFF" d="M21.42,73.55c-0.56,0.13-1.15,0.24-1.73,0.24c-2.47,0-4.17-1.23-4.17-3.8c0-2.6,1.59-4.06,4.17-4.06
					c0.5,0,1.17,0.1,1.72,0.31l-0.1,1.29c-0.58-0.33-1.1-0.4-1.64-0.4c-1.57,0-2.55,1.2-2.55,2.76c0,1.55,0.96,2.72,2.58,2.72
					c0.6,0,1.31-0.13,1.67-0.31L21.42,73.55z"/>
				<path fill="#FFFFFF" d="M24.74,67.92c1.67,0,2.94,1.12,2.94,2.97c0,1.61-1.08,2.9-2.94,2.9c-1.85,0-2.93-1.29-2.93-2.9
					C21.81,69.04,23.08,67.92,24.74,67.92z M24.74,72.65c1.12,0,1.42-1,1.42-1.94c0-0.86-0.46-1.67-1.42-1.67
					c-0.95,0-1.41,0.83-1.41,1.67C23.33,71.64,23.63,72.65,24.74,72.65z"/>
				<path fill="#FFFFFF" d="M28.56,68.05h1.39v0.77h0.02c0.46-0.64,1.08-0.89,1.85-0.89c1.33,0,1.91,0.93,1.91,2.2v3.54h-1.46v-3
					c0-0.68-0.01-1.61-0.95-1.61c-1.06,0-1.29,1.14-1.29,1.86v2.75h-1.46L28.56,68.05L28.56,68.05z"/>
				<path fill="#FFFFFF" d="M38.31,69.22c-0.44-0.15-0.77-0.24-1.31-0.24c-0.39,0-0.86,0.15-0.86,0.62c0,0.89,2.54,0.32,2.54,2.35
					c0,1.31-1.17,1.83-2.35,1.83c-0.56,0-1.12-0.1-1.65-0.24l0.09-1.2c0.46,0.23,0.93,0.37,1.43,0.37c0.37,0,0.96-0.14,0.96-0.68
					c0-1.1-2.54-0.35-2.54-2.38c0-1.21,1.06-1.74,2.2-1.74c0.68,0,1.14,0.11,1.59,0.21L38.31,69.22z"/>
				<path fill="#FFFFFF" d="M39.78,69.12h-0.69v-1.07h0.69v-1.12l1.46-0.47v1.59h1.3v1.07h-1.3v2.61c0,0.48,0.13,0.93,0.68,0.93
					c0.26,0,0.51-0.06,0.66-0.15l0.04,1.15c-0.31,0.09-0.64,0.13-1.08,0.13c-1.14,0-1.77-0.71-1.77-1.82L39.78,69.12L39.78,69.12z"
					/>
				<path fill="#FFFFFF" d="M43.32,68.05h1.3v1.27h0.02c0.06-0.52,0.66-1.4,1.54-1.4c0.15,0,0.29,0,0.44,0.04v1.47
					c-0.13-0.07-0.39-0.12-0.65-0.12c-1.18,0-1.18,1.48-1.18,2.29v2.06h-1.46L43.32,68.05L43.32,68.05z"/>
				<path fill="#FFFFFF" d="M52.43,73.65h-1.39v-0.77h-0.02c-0.44,0.55-1.08,0.89-1.84,0.89c-1.33,0-1.91-0.93-1.91-2.2v-3.54h1.46
					v3c0,0.68,0.01,1.61,0.95,1.61c1.06,0,1.29-1.14,1.29-1.86v-2.75h1.46C52.43,68.05,52.43,73.65,52.43,73.65z"/>
				<path fill="#FFFFFF" d="M57.32,69.25c-0.27-0.12-0.55-0.21-0.99-0.21c-0.9,0-1.48,0.72-1.48,1.77c0,1.03,0.49,1.83,1.51,1.83
					c0.41,0,0.87-0.15,1.12-0.26l0.06,1.21c-0.43,0.13-0.86,0.19-1.46,0.19c-1.84,0-2.76-1.26-2.76-2.96c0-1.62,0.96-2.91,2.72-2.91
					c0.59,0,1.02,0.06,1.42,0.19L57.32,69.25z"/>
				<path fill="#FFFFFF" d="M58.75,69.12h-0.69v-1.07h0.69v-1.12l1.46-0.47v1.59h1.3v1.07h-1.3v2.61c0,0.48,0.13,0.93,0.68,0.93
					c0.26,0,0.51-0.06,0.67-0.15l0.04,1.15c-0.31,0.09-0.64,0.13-1.08,0.13c-1.14,0-1.77-0.71-1.77-1.82
					C58.75,71.96,58.75,69.12,58.75,69.12z"/>
				<path fill="#FFFFFF" d="M62.29,65.63h1.46v1.39h-1.46V65.63z M62.29,68.05h1.46v5.61h-1.46V68.05z"/>
				<path fill="#FFFFFF" d="M67.61,67.92c1.67,0,2.94,1.12,2.94,2.97c0,1.61-1.08,2.9-2.94,2.9c-1.85,0-2.93-1.29-2.93-2.9
					C64.68,69.04,65.95,67.92,67.61,67.92z M67.61,72.65c1.12,0,1.42-1,1.42-1.94c0-0.86-0.46-1.67-1.42-1.67
					c-0.95,0-1.4,0.83-1.4,1.67C66.2,71.64,66.5,72.65,67.61,72.65z"/>
				<path fill="#FFFFFF" d="M71.44,68.05h1.39v0.77h0.02c0.46-0.64,1.08-0.89,1.85-0.89c1.33,0,1.91,0.93,1.91,2.2v3.54h-1.46v-3
					c0-0.68-0.01-1.61-0.95-1.61c-1.06,0-1.29,1.14-1.29,1.86v2.75h-1.46L71.44,68.05L71.44,68.05z"/>
			</g>
			<g>
				<path fill="#FFFFFF" d="M15.52,55.45h1.93c1.65,0,3.17,0.48,3.17,2.3c0,1.77-1.3,2.42-2.92,2.42h-0.64v2.88h-1.52V55.45z
					 M17.04,58.96h0.53c0.77,0,1.45-0.25,1.45-1.14c0-0.88-0.66-1.18-1.45-1.18h-0.53V58.96z"/>
				<path fill="#FFFFFF" d="M23.91,57.31c1.67,0,2.94,1.12,2.94,2.97c0,1.61-1.08,2.9-2.94,2.9c-1.85,0-2.92-1.29-2.92-2.9
					C20.98,58.43,22.25,57.31,23.91,57.31z M23.91,62.04c1.12,0,1.42-1,1.42-1.94c0-0.86-0.46-1.67-1.42-1.67
					c-0.95,0-1.4,0.83-1.4,1.67C22.51,61.03,22.8,62.04,23.91,62.04z"/>
				<path fill="#FFFFFF" d="M27.79,55.45h1.46v7.6h-1.46V55.45z"/>
				<path fill="#FFFFFF" d="M33,61.53h0.02l1.35-4.09h1.48L33.75,63c-0.47,1.24-0.81,2.46-2.33,2.46c-0.35,0-0.7-0.06-1.03-0.15
					l0.1-1.08c0.19,0.06,0.39,0.1,0.75,0.1c0.59,0,0.95-0.4,0.95-1l-2.14-5.89h1.61L33,61.53z"/>
				<path fill="#FFFFFF" d="M41.11,62.73c-0.53,0.3-1.14,0.44-1.93,0.44c-1.85,0-2.92-1.06-2.92-2.91c0-1.62,0.86-2.96,2.6-2.96
					c2.08,0,2.67,1.43,2.67,3.38h-3.88c0.06,0.9,0.7,1.42,1.6,1.42c0.71,0,1.32-0.26,1.86-0.56L41.11,62.73L41.11,62.73z
					 M40.13,59.69c-0.04-0.71-0.37-1.32-1.18-1.32s-1.23,0.56-1.3,1.32H40.13z"/>
				<path fill="#FFFFFF" d="M42.11,57.44h1.72l1.1,1.83L46,57.44h1.55l-1.68,2.67l1.89,2.94h-1.74l-1.25-2.09l-1.26,2.09h-1.6
					l1.93-2.94L42.11,57.44z"/>
				<path fill="#FFFFFF" d="M48.51,57.44h1.39v0.8h0.02c0.33-0.55,0.88-0.93,1.74-0.93c1.72,0,2.35,1.37,2.35,2.92
					c0,1.54-0.63,2.95-2.38,2.95c-0.62,0-1.13-0.15-1.64-0.77h-0.02v2.92h-1.46V57.44z M49.97,60.22c0,0.8,0.31,1.82,1.28,1.82
					c0.96,0,1.23-1.05,1.23-1.82c0-0.75-0.26-1.79-1.21-1.79C50.34,58.43,49.97,59.44,49.97,60.22z"/>
				<path fill="#FFFFFF" d="M59.66,62.73c-0.53,0.3-1.14,0.44-1.93,0.44c-1.85,0-2.92-1.06-2.92-2.91c0-1.62,0.86-2.96,2.6-2.96
					c2.08,0,2.67,1.43,2.67,3.38h-3.88c0.06,0.9,0.7,1.42,1.6,1.42c0.71,0,1.31-0.26,1.86-0.56L59.66,62.73L59.66,62.73z
					 M58.69,59.69c-0.04-0.71-0.37-1.32-1.18-1.32c-0.81,0-1.23,0.56-1.3,1.32H58.69z"/>
				<path fill="#FFFFFF" d="M61.15,57.44h1.3v1.27h0.02c0.06-0.52,0.66-1.4,1.54-1.4c0.14,0,0.3,0,0.44,0.04v1.47
					c-0.13-0.07-0.39-0.12-0.65-0.12c-1.18,0-1.18,1.48-1.18,2.29v2.05h-1.46L61.15,57.44L61.15,57.44z"/>
				<path fill="#FFFFFF" d="M65.22,58.5L65.22,58.5v-1.07l0,0v-1.12l1.46-0.47v1.59h1.3v1.07h-1.3v2.61c0,0.48,0.13,0.93,0.68,0.93
					c0.27,0,0.52-0.06,0.66-0.15l0.05,1.15c-0.31,0.09-0.64,0.13-1.08,0.13c-1.14,0-1.77-0.71-1.77-1.82V58.5z"/>
			</g>
		</g>
	</g>
</g>
</svg>
