<?xml version="1.0" encoding="utf-8"?>
<!-- Generator: Adobe Illustrator 27.8.0, SVG Export Plug-In . SVG Version: 6.00 Build 0)  -->
<svg version="1.1" id="Calque_1" xmlns="http://www.w3.org/2000/svg" xmlns:xlink="http://www.w3.org/1999/xlink" x="0px" y="0px"
	 viewBox="0 0 300 300" enable-background="new 0 0 300 300" xml:space="preserve">
<rect fill="#12473B" width="300" height="300"/>
<line fill="none" stroke="#FFFFFF" stroke-width="0.1" stroke-miterlimit="10" stroke-dasharray="0.6" x1="230.98" y1="125" x2="38.98" y2="184.18"/>
<g id="Tracé_684_00000095324527102513469750000014111388101574294411_">
	<g>
		<path fill="none" stroke="#FFFFFF" stroke-width="0.1" stroke-miterlimit="10" d="M150,84.36c-0.2,0-0.4,0-0.6,0"/>
		<path fill="none" stroke="#FFFFFF" stroke-width="0.1" stroke-miterlimit="10" stroke-dasharray="1.1994,1.1994" d="M148.2,84.39
			c-35.42,0.95-63.84,29.96-63.84,65.61c0,36.25,29.39,65.64,65.64,65.64c36.25,0,65.64-29.39,65.64-65.64c0,0,0,0,0,0
			c0.26-35.91-28.57-65.24-64.44-65.64"/>
		<path fill="none" stroke="#FFFFFF" stroke-width="0.1" stroke-miterlimit="10" d="M150.6,84.36c-0.2,0-0.4,0-0.6,0"/>
	</g>
</g>
<g id="Tracé_684_00000089560011350272051630000009972563960492990894_">
	<g>
		<path fill="none" stroke="#D6FC8A" stroke-width="0.1" stroke-miterlimit="10" d="M150,62.72c-0.1,0-0.2,0-0.3,0"/>
		<path fill="none" stroke="#D6FC8A" stroke-width="0.1" stroke-miterlimit="10" stroke-dasharray="0.6003,0.6003" d="M149.1,62.73
			C101.31,63.21,62.72,102.1,62.72,150c0,48.2,39.07,87.28,87.28,87.28c48.2,0,87.28-39.07,87.28-87.28c0,0,0,0,0,0
			c0.35-47.85-38.17-86.93-86.02-87.28c-0.22,0-0.44,0-0.65,0"/>
		<path fill="none" stroke="#D6FC8A" stroke-width="0.1" stroke-miterlimit="10" d="M150.3,62.72c-0.1,0-0.2,0-0.3,0"/>
	</g>
</g>
<line fill="none" stroke="#D6FC8A" stroke-width="0.1" stroke-miterlimit="10" stroke-dasharray="0.8385" x1="219.26" y1="171.34" x2="74.68" y2="126.77"/>
<path id="Tracé_684_00000049193137581232852100000011289872878820998061_" fill="#D6FC8A" d="M150,96.46
	c-29.57,0-53.54,23.97-53.54,53.54c0,29.57,23.97,53.54,53.54,53.54c29.57,0,53.54-23.97,53.54-53.54c0,0,0,0,0,0
	c0.21-29.36-23.41-53.33-52.77-53.54C150.51,96.46,150.26,96.46,150,96.46"/>
</svg>